# DSV LOACH -- one-person work submarine
# +Z forward, +Y up, 1 unit = 1 m. Vertex colours in v lines.
mtllib loach.mtl
v 0.1500 0.0000 -1.3000 0.4431 0.3804 0.2196
v 0.1214 0.0882 -1.3000 0.4510 0.3804 0.2196
v 0.0464 0.1427 -1.3000 0.4588 0.3843 0.2235
v -0.0464 0.1427 -1.3000 0.4667 0.3961 0.2314
v -0.1214 0.0882 -1.3000 0.4667 0.4118 0.2353
v -0.1500 0.0000 -1.3000 0.4039 0.3137 0.1843
v -0.1214 -0.0882 -1.3000 0.4078 0.3333 0.1961
v -0.0464 -0.1427 -1.3000 0.4235 0.3647 0.2118
v 0.0464 -0.1427 -1.3000 0.3686 0.2784 0.1608
v 0.1214 -0.0882 -1.3000 0.4353 0.3765 0.2157
v 0.4700 0.0000 -0.8800 0.4275 0.3569 0.2078
v 0.3802 0.2763 -0.8800 0.4980 0.4353 0.2510
v 0.1452 0.4470 -0.8800 0.5216 0.4510 0.2627
v -0.1452 0.4470 -0.8800 0.5294 0.4627 0.2667
v -0.3802 0.2763 -0.8800 0.4863 0.4196 0.2431
v -0.4700 0.0000 -0.8800 0.4510 0.3961 0.2275
v -0.3802 -0.2763 -0.8800 0.3843 0.3216 0.1843
v -0.1452 -0.4470 -0.8800 0.3569 0.2941 0.1725
v 0.1452 -0.4470 -0.8800 0.3451 0.2745 0.1569
v 0.3802 -0.2763 -0.8800 0.3451 0.2510 0.1490
v 0.5000 0.0000 0.6000 0.4510 0.3882 0.2235
v 0.4045 0.2939 0.6000 0.4627 0.3725 0.2157
v 0.1545 0.4755 0.6000 0.5176 0.4431 0.2549
v -0.1545 0.4755 0.6000 0.4588 0.3412 0.2000
v -0.4045 0.2939 0.6000 0.4588 0.3647 0.2118
v -0.5000 0.0000 0.6000 0.4549 0.4000 0.2275
v -0.4045 -0.2939 0.6000 0.3804 0.3137 0.1804
v -0.1545 -0.4755 0.6000 0.3529 0.2941 0.1686
v 0.1545 -0.4755 0.6000 0.3373 0.2627 0.1529
v 0.4045 -0.2939 0.6000 0.3333 0.2353 0.1373
v 0.3400 0.0000 1.0000 0.4510 0.3961 0.2275
v 0.2751 0.1998 1.0000 0.4863 0.4275 0.2471
v 0.1051 0.3234 1.0000 0.5020 0.4353 0.2510
v -0.1051 0.3234 1.0000 0.4392 0.3333 0.1961
v -0.2751 0.1998 1.0000 0.4196 0.3137 0.1843
v -0.3400 0.0000 1.0000 0.3961 0.3020 0.1765
v -0.2751 -0.1998 1.0000 0.3569 0.2667 0.1569
v -0.1051 -0.3234 1.0000 0.3608 0.2824 0.1647
v 0.1051 -0.3234 1.0000 0.3765 0.3098 0.1804
v 0.2751 -0.1998 1.0000 0.3882 0.3137 0.1843
v 0.0000 0.0000 -1.3000 0.4431 0.3804 0.2196
v 0.5450 0.0000 -0.4650 0.2745 0.2471 0.1961
v 0.4409 0.3203 -0.4650 0.3059 0.2745 0.2196
v 0.1684 0.5183 -0.4650 0.3255 0.2902 0.2314
v -0.1684 0.5183 -0.4650 0.3255 0.2902 0.2314
v -0.4409 0.3203 -0.4650 0.3059 0.2745 0.2196
v -0.5450 0.0000 -0.4650 0.2745 0.2471 0.1961
v -0.4409 -0.3203 -0.4650 0.2431 0.2157 0.1725
v -0.1684 -0.5183 -0.4650 0.2235 0.2000 0.1569
v 0.1684 -0.5183 -0.4650 0.2235 0.2000 0.1569
v 0.4409 -0.3203 -0.4650 0.2431 0.2157 0.1725
v 0.5450 0.0000 -0.3750 0.2745 0.2471 0.1961
v 0.4409 0.3203 -0.3750 0.3059 0.2745 0.2196
v 0.1684 0.5183 -0.3750 0.3255 0.2902 0.2314
v -0.1684 0.5183 -0.3750 0.3255 0.2902 0.2314
v -0.4409 0.3203 -0.3750 0.3059 0.2745 0.2196
v -0.5450 0.0000 -0.3750 0.2745 0.2471 0.1961
v -0.4409 -0.3203 -0.3750 0.2431 0.2157 0.1725
v -0.1684 -0.5183 -0.3750 0.2235 0.2000 0.1569
v 0.1684 -0.5183 -0.3750 0.2235 0.2000 0.1569
v 0.4409 -0.3203 -0.3750 0.2431 0.2157 0.1725
v 0.5450 0.0000 0.1150 0.2745 0.2471 0.1961
v 0.4409 0.3203 0.1150 0.3059 0.2745 0.2196
v 0.1684 0.5183 0.1150 0.3255 0.2902 0.2314
v -0.1684 0.5183 0.1150 0.3255 0.2902 0.2314
v -0.4409 0.3203 0.1150 0.3059 0.2745 0.2196
v -0.5450 0.0000 0.1150 0.2745 0.2471 0.1961
v -0.4409 -0.3203 0.1150 0.2431 0.2157 0.1725
v -0.1684 -0.5183 0.1150 0.2235 0.2000 0.1569
v 0.1684 -0.5183 0.1150 0.2235 0.2000 0.1569
v 0.4409 -0.3203 0.1150 0.2431 0.2157 0.1725
v 0.5450 0.0000 0.2050 0.2745 0.2471 0.1961
v 0.4409 0.3203 0.2050 0.3059 0.2745 0.2196
v 0.1684 0.5183 0.2050 0.3255 0.2902 0.2314
v -0.1684 0.5183 0.2050 0.3255 0.2902 0.2314
v -0.4409 0.3203 0.2050 0.3059 0.2745 0.2196
v -0.5450 0.0000 0.2050 0.2745 0.2471 0.1961
v -0.4409 -0.3203 0.2050 0.2431 0.2157 0.1725
v -0.1684 -0.5183 0.2050 0.2235 0.2000 0.1569
v 0.1684 -0.5183 0.2050 0.2235 0.2000 0.1569
v 0.4409 -0.3203 0.2050 0.2431 0.2157 0.1725
v 0.3400 0.0000 1.0000 0.1373 0.2353 0.2431
v 0.2751 0.1998 1.0000 0.1451 0.2510 0.2588
v 0.1051 0.3234 1.0000 0.1529 0.2627 0.2706
v -0.1051 0.3234 1.0000 0.1529 0.2627 0.2706
v -0.2751 0.1998 1.0000 0.1451 0.2510 0.2588
v -0.3400 0.0000 1.0000 0.1373 0.2353 0.2431
v -0.2751 -0.1998 1.0000 0.1255 0.2196 0.2235
v -0.1051 -0.3234 1.0000 0.1176 0.2078 0.2118
v 0.1051 -0.3234 1.0000 0.1176 0.2078 0.2118
v 0.2751 -0.1998 1.0000 0.1255 0.2196 0.2235
v 0.2500 0.0000 1.1400 0.2980 0.4314 0.4118
v 0.2023 0.1469 1.1400 0.3137 0.4510 0.4314
v 0.0773 0.2378 1.1400 0.3255 0.4667 0.4471
v -0.0773 0.2378 1.1400 0.3255 0.4667 0.4471
v -0.2023 0.1469 1.1400 0.3137 0.4510 0.4314
v -0.2500 0.0000 1.1400 0.2980 0.4314 0.4118
v -0.2023 -0.1469 1.1400 0.2824 0.4078 0.3882
v -0.0773 -0.2378 1.1400 0.2706 0.3922 0.3765
v 0.0773 -0.2378 1.1400 0.2706 0.3922 0.3765
v 0.2023 -0.1469 1.1400 0.2824 0.4078 0.3882
v 0.0000 0.0000 1.1400 0.2980 0.4314 0.4118
v 0.2402 0.3900 -0.1005 0.4196 0.2471 0.1569
v 0.0995 0.3900 0.0402 0.4196 0.2471 0.1569
v -0.0995 0.3900 0.0402 0.4196 0.2471 0.1569
v -0.2402 0.3900 -0.1005 0.4196 0.2471 0.1569
v -0.2402 0.3900 -0.2995 0.4196 0.2471 0.1569
v -0.0995 0.3900 -0.4402 0.4196 0.2471 0.1569
v 0.0995 0.3900 -0.4402 0.4196 0.2471 0.1569
v 0.2402 0.3900 -0.2995 0.4196 0.2471 0.1569
v 0.2402 0.6100 -0.1005 0.4471 0.2667 0.1647
v 0.0995 0.6100 0.0402 0.4471 0.2667 0.1647
v -0.0995 0.6100 0.0402 0.4471 0.2667 0.1647
v -0.2402 0.6100 -0.1005 0.4471 0.2667 0.1647
v -0.2402 0.6100 -0.2995 0.4471 0.2667 0.1647
v -0.0995 0.6100 -0.4402 0.4471 0.2667 0.1647
v 0.0995 0.6100 -0.4402 0.4471 0.2667 0.1647
v 0.2402 0.6100 -0.2995 0.4471 0.2667 0.1647
v 0.0000 0.6100 -0.2000 0.4471 0.2667 0.1647
v 0.1559 0.5250 -0.0441 0.5647 0.4667 0.2824
v 0.1559 0.5750 -0.0441 0.5725 0.4745 0.2863
v 0.2259 0.5750 -0.0441 0.5725 0.4745 0.2863
v 0.2259 0.5250 -0.0441 0.5647 0.4667 0.2824
v 0.1559 0.5250 0.0259 0.5647 0.4667 0.2824
v 0.2259 0.5250 0.0259 0.5647 0.4667 0.2824
v 0.2259 0.5750 0.0259 0.5725 0.4745 0.2863
v 0.1559 0.5750 0.0259 0.5725 0.4745 0.2863
v -0.2259 0.5250 -0.0441 0.5647 0.4667 0.2824
v -0.2259 0.5750 -0.0441 0.5725 0.4745 0.2863
v -0.1559 0.5750 -0.0441 0.5725 0.4745 0.2863
v -0.1559 0.5250 -0.0441 0.5647 0.4667 0.2824
v -0.2259 0.5250 0.0259 0.5647 0.4667 0.2824
v -0.1559 0.5250 0.0259 0.5647 0.4667 0.2824
v -0.1559 0.5750 0.0259 0.5725 0.4745 0.2863
v -0.2259 0.5750 0.0259 0.5725 0.4745 0.2863
v -0.2259 0.5250 -0.4259 0.5647 0.4667 0.2824
v -0.2259 0.5750 -0.4259 0.5725 0.4745 0.2863
v -0.1559 0.5750 -0.4259 0.5725 0.4745 0.2863
v -0.1559 0.5250 -0.4259 0.5647 0.4667 0.2824
v -0.2259 0.5250 -0.3559 0.5647 0.4667 0.2824
v -0.1559 0.5250 -0.3559 0.5647 0.4667 0.2824
v -0.1559 0.5750 -0.3559 0.5725 0.4745 0.2863
v -0.2259 0.5750 -0.3559 0.5725 0.4745 0.2863
v 0.1559 0.5250 -0.4259 0.5647 0.4667 0.2824
v 0.1559 0.5750 -0.4259 0.5725 0.4745 0.2863
v 0.2259 0.5750 -0.4259 0.5725 0.4745 0.2863
v 0.2259 0.5250 -0.4259 0.5647 0.4667 0.2824
v 0.1559 0.5250 -0.3559 0.5647 0.4667 0.2824
v 0.2259 0.5250 -0.3559 0.5647 0.4667 0.2824
v 0.2259 0.5750 -0.3559 0.5725 0.4745 0.2863
v 0.1559 0.5750 -0.3559 0.5725 0.4745 0.2863
v 0.2772 0.1148 -1.3000 0.2627 0.2549 0.2549
v 0.1148 0.2772 -1.3000 0.2784 0.2667 0.2706
v -0.1148 0.2772 -1.3000 0.2784 0.2667 0.2706
v -0.2772 0.1148 -1.3000 0.2627 0.2549 0.2549
v -0.2772 -0.1148 -1.3000 0.2431 0.2314 0.2353
v -0.1148 -0.2772 -1.3000 0.2275 0.2196 0.2196
v 0.1148 -0.2772 -1.3000 0.2275 0.2196 0.2196
v 0.2772 -0.1148 -1.3000 0.2431 0.2314 0.2353
v 0.2772 0.1148 -1.5600 0.2627 0.2549 0.2549
v 0.1148 0.2772 -1.5600 0.2784 0.2667 0.2706
v -0.1148 0.2772 -1.5600 0.2784 0.2667 0.2706
v -0.2772 0.1148 -1.5600 0.2627 0.2549 0.2549
v -0.2772 -0.1148 -1.5600 0.2431 0.2314 0.2353
v -0.1148 -0.2772 -1.5600 0.2275 0.2196 0.2196
v 0.1148 -0.2772 -1.5600 0.2275 0.2196 0.2196
v 0.2772 -0.1148 -1.5600 0.2431 0.2314 0.2353
v 0.2402 0.0995 -1.3200 0.1529 0.1608 0.1725
v 0.0995 0.2402 -1.3200 0.1608 0.1686 0.1804
v -0.0995 0.2402 -1.3200 0.1608 0.1686 0.1804
v -0.2402 0.0995 -1.3200 0.1529 0.1608 0.1725
v -0.2402 -0.0995 -1.3200 0.1412 0.1490 0.1608
v -0.0995 -0.2402 -1.3200 0.1333 0.1412 0.1529
v 0.0995 -0.2402 -1.3200 0.1333 0.1412 0.1529
v 0.2402 -0.0995 -1.3200 0.1412 0.1490 0.1608
v 0.2402 0.0995 -1.5400 0.1529 0.1608 0.1725
v 0.0995 0.2402 -1.5400 0.1608 0.1686 0.1804
v -0.0995 0.2402 -1.5400 0.1608 0.1686 0.1804
v -0.2402 0.0995 -1.5400 0.1529 0.1608 0.1725
v -0.2402 -0.0995 -1.5400 0.1412 0.1490 0.1608
v -0.0995 -0.2402 -1.5400 0.1333 0.1412 0.1529
v 0.0995 -0.2402 -1.5400 0.1333 0.1412 0.1529
v 0.2402 -0.0995 -1.5400 0.1412 0.1490 0.1608
v 0.0000 0.2600 -1.3400 0.2667 0.2706 0.2863
v 0.0000 0.0000 -1.3400 0.2431 0.2471 0.2588
v 0.0000 0.0000 -1.4600 0.2431 0.2471 0.2588
v 0.0000 0.2600 -1.4600 0.2667 0.2706 0.2863
v -0.2252 -0.1300 -1.3400 0.2314 0.2353 0.2471
v -0.2252 -0.1300 -1.4600 0.2314 0.2353 0.2471
v 0.2252 -0.1300 -1.3400 0.2314 0.2353 0.2471
v 0.2252 -0.1300 -1.4600 0.2314 0.2353 0.2471
v 0.0800 0.0000 -1.4900 0.1490 0.1529 0.1686
v 0.0400 0.0693 -1.4900 0.1529 0.1569 0.1725
v -0.0400 0.0693 -1.4900 0.1529 0.1569 0.1725
v -0.0800 0.0000 -1.4900 0.1490 0.1529 0.1686
v -0.0400 -0.0693 -1.4900 0.1451 0.1490 0.1608
v 0.0400 -0.0693 -1.4900 0.1451 0.1490 0.1608
v 0.0800 0.0000 -1.3500 0.1490 0.1529 0.1686
v 0.0400 0.0693 -1.3500 0.1529 0.1569 0.1725
v -0.0400 0.0693 -1.3500 0.1529 0.1569 0.1725
v -0.0800 0.0000 -1.3500 0.1490 0.1529 0.1686
v -0.0400 -0.0693 -1.3500 0.1451 0.1490 0.1608
v 0.0400 -0.0693 -1.3500 0.1451 0.1490 0.1608
v 0.0000 0.0000 -1.4900 0.1490 0.1529 0.1686
v 0.0000 0.0000 -1.3500 0.1490 0.1529 0.1686
v 0.0669 0.0207 -1.4000 0.4784 0.3961 0.2392
v 0.2293 0.0709 -1.4400 0.4863 0.4039 0.2431
v 0.1997 0.1665 -1.3800 0.5020 0.4157 0.2510
v 0.0373 0.1162 -1.3600 0.4941 0.4078 0.2471
v -0.0207 0.0669 -1.4000 0.4863 0.4000 0.2431
v -0.0709 0.2293 -1.4400 0.5137 0.4235 0.2549
v -0.1665 0.1997 -1.3800 0.5059 0.4196 0.2510
v -0.1162 0.0373 -1.3600 0.4784 0.3961 0.2392
v -0.0669 -0.0207 -1.4000 0.4706 0.3882 0.2353
v -0.2293 -0.0709 -1.4400 0.4627 0.3804 0.2314
v -0.1997 -0.1665 -1.3800 0.4431 0.3686 0.2196
v -0.0373 -0.1162 -1.3600 0.4549 0.3765 0.2275
v 0.0207 -0.0669 -1.4000 0.4627 0.3843 0.2314
v 0.0709 -0.2293 -1.4400 0.4353 0.3608 0.2157
v 0.1665 -0.1997 -1.3800 0.4392 0.3647 0.2196
v 0.1162 -0.0373 -1.3600 0.4667 0.3882 0.2314
v -0.3900 -0.6650 -1.0000 0.1843 0.1882 0.1961
v -0.3900 -0.5750 -1.0000 0.1922 0.1961 0.2039
v -0.2900 -0.5750 -1.0000 0.1922 0.1961 0.2039
v -0.2900 -0.6650 -1.0000 0.1843 0.1882 0.1961
v -0.3900 -0.6650 0.7000 0.1843 0.1882 0.1961
v -0.2900 -0.6650 0.7000 0.1843 0.1882 0.1961
v -0.2900 -0.5750 0.7000 0.1922 0.1961 0.2039
v -0.3900 -0.5750 0.7000 0.1922 0.1961 0.2039
v -0.3400 -0.5800 -0.8000 0.1922 0.1961 0.2039
v -0.3400 -0.5800 -0.7000 0.1922 0.1961 0.2039
v -0.3000 -0.3000 -0.7000 0.2157 0.2196 0.2314
v -0.3000 -0.3000 -0.8000 0.2157 0.2196 0.2314
v -0.3400 -0.5800 0.0000 0.1922 0.1961 0.2039
v -0.3400 -0.5800 0.1000 0.1922 0.1961 0.2039
v -0.3000 -0.3000 0.1000 0.2157 0.2196 0.2314
v -0.3000 -0.3000 0.0000 0.2157 0.2196 0.2314
v -0.3400 -0.5800 0.5000 0.1922 0.1961 0.2039
v -0.3400 -0.5800 0.6000 0.1922 0.1961 0.2039
v -0.3000 -0.3000 0.6000 0.2157 0.2196 0.2314
v -0.3000 -0.3000 0.5000 0.2157 0.2196 0.2314
v 0.2900 -0.6650 -1.0000 0.1843 0.1882 0.1961
v 0.2900 -0.5750 -1.0000 0.1922 0.1961 0.2039
v 0.3900 -0.5750 -1.0000 0.1922 0.1961 0.2039
v 0.3900 -0.6650 -1.0000 0.1843 0.1882 0.1961
v 0.2900 -0.6650 0.7000 0.1843 0.1882 0.1961
v 0.3900 -0.6650 0.7000 0.1843 0.1882 0.1961
v 0.3900 -0.5750 0.7000 0.1922 0.1961 0.2039
v 0.2900 -0.5750 0.7000 0.1922 0.1961 0.2039
v 0.3400 -0.5800 -0.8000 0.1922 0.1961 0.2039
v 0.3400 -0.5800 -0.7000 0.1922 0.1961 0.2039
v 0.3000 -0.3000 -0.7000 0.2157 0.2196 0.2314
v 0.3000 -0.3000 -0.8000 0.2157 0.2196 0.2314
v 0.3400 -0.5800 0.0000 0.1922 0.1961 0.2039
v 0.3400 -0.5800 0.1000 0.1922 0.1961 0.2039
v 0.3000 -0.3000 0.1000 0.2157 0.2196 0.2314
v 0.3000 -0.3000 0.0000 0.2157 0.2196 0.2314
v 0.3400 -0.5800 0.5000 0.1922 0.1961 0.2039
v 0.3400 -0.5800 0.6000 0.1922 0.1961 0.2039
v 0.3000 -0.3000 0.6000 0.2157 0.2196 0.2314
v 0.3000 -0.3000 0.5000 0.2157 0.2196 0.2314
v -0.4000 -0.2200 -0.7500 0.1765 0.1922 0.2235
v -0.4800 -0.0814 -0.7500 0.1843 0.2039 0.2353
v -0.6400 -0.0814 -0.7500 0.1843 0.2039 0.2353
v -0.7200 -0.2200 -0.7500 0.1765 0.1922 0.2235
v -0.6400 -0.3586 -0.7500 0.1647 0.1843 0.2118
v -0.4800 -0.3586 -0.7500 0.1647 0.1843 0.2118
v -0.4000 -0.2200 0.4300 0.1765 0.1922 0.2235
v -0.4800 -0.0814 0.4300 0.1843 0.2039 0.2353
v -0.6400 -0.0814 0.4300 0.1843 0.2039 0.2353
v -0.7200 -0.2200 0.4300 0.1765 0.1922 0.2235
v -0.6400 -0.3586 0.4300 0.1647 0.1843 0.2118
v -0.4800 -0.3586 0.4300 0.1647 0.1843 0.2118
v -0.5600 -0.2200 -0.7500 0.1765 0.1922 0.2235
v -0.5600 -0.2200 0.4300 0.1765 0.1922 0.2235
v 0.7000 -0.2000 -0.5300 0.2118 0.1882 0.1647
v 0.6300 -0.0788 -0.5300 0.2235 0.2000 0.1725
v 0.4900 -0.0788 -0.5300 0.2235 0.2000 0.1725
v 0.4200 -0.2000 -0.5300 0.2118 0.1882 0.1647
v 0.4900 -0.3212 -0.5300 0.2039 0.1804 0.1569
v 0.6300 -0.3212 -0.5300 0.2039 0.1804 0.1569
v 0.7000 -0.2000 0.4300 0.2118 0.1882 0.1647
v 0.6300 -0.0788 0.4300 0.2235 0.2000 0.1725
v 0.4900 -0.0788 0.4300 0.2235 0.2000 0.1725
v 0.4200 -0.2000 0.4300 0.2118 0.1882 0.1647
v 0.4900 -0.3212 0.4300 0.2039 0.1804 0.1569
v 0.6300 -0.3212 0.4300 0.2039 0.1804 0.1569
v 0.5600 -0.2000 -0.5300 0.2118 0.1882 0.1647
v 0.5600 -0.2000 0.4300 0.2118 0.1882 0.1647
v -0.6000 -0.1650 -0.5850 0.2275 0.2314 0.2431
v -0.6000 -0.1150 -0.5850 0.2314 0.2392 0.2510
v -0.4000 -0.1150 -0.5850 0.2314 0.2392 0.2510
v -0.4000 -0.1650 -0.5850 0.2275 0.2314 0.2431
v -0.6000 -0.1650 -0.5150 0.2275 0.2314 0.2431
v -0.4000 -0.1650 -0.5150 0.2275 0.2314 0.2431
v -0.4000 -0.1150 -0.5150 0.2314 0.2392 0.2510
v -0.6000 -0.1150 -0.5150 0.2314 0.2392 0.2510
v -0.6000 -0.1650 0.3150 0.2275 0.2314 0.2431
v -0.6000 -0.1150 0.3150 0.2314 0.2392 0.2510
v -0.4000 -0.1150 0.3150 0.2314 0.2392 0.2510
v -0.4000 -0.1650 0.3150 0.2275 0.2314 0.2431
v -0.6000 -0.1650 0.3850 0.2275 0.2314 0.2431
v -0.4000 -0.1650 0.3850 0.2275 0.2314 0.2431
v -0.4000 -0.1150 0.3850 0.2314 0.2392 0.2510
v -0.6000 -0.1150 0.3850 0.2314 0.2392 0.2510
v 0.4000 -0.1650 -0.5850 0.2275 0.2314 0.2431
v 0.4000 -0.1150 -0.5850 0.2314 0.2392 0.2510
v 0.6000 -0.1150 -0.5850 0.2314 0.2392 0.2510
v 0.6000 -0.1650 -0.5850 0.2275 0.2314 0.2431
v 0.4000 -0.1650 -0.5150 0.2275 0.2314 0.2431
v 0.6000 -0.1650 -0.5150 0.2275 0.2314 0.2431
v 0.6000 -0.1150 -0.5150 0.2314 0.2392 0.2510
v 0.4000 -0.1150 -0.5150 0.2314 0.2392 0.2510
v 0.4000 -0.1650 0.3150 0.2275 0.2314 0.2431
v 0.4000 -0.1150 0.3150 0.2314 0.2392 0.2510
v 0.6000 -0.1150 0.3150 0.2314 0.2392 0.2510
v 0.6000 -0.1650 0.3150 0.2275 0.2314 0.2431
v 0.4000 -0.1650 0.3850 0.2275 0.2314 0.2431
v 0.6000 -0.1650 0.3850 0.2275 0.2314 0.2431
v 0.6000 -0.1150 0.3850 0.2314 0.2392 0.2510
v 0.4000 -0.1150 0.3850 0.2314 0.2392 0.2510
v 0.4083 -0.3043 -0.2900 0.2667 0.2588 0.2353
v 0.5088 0.0206 -0.2900 0.3020 0.2941 0.2706
v 0.5088 0.0206 0.1900 0.3020 0.2941 0.2706
v 0.4083 -0.3043 0.1900 0.2667 0.2588 0.2353
v -0.4604 -0.1812 -0.8300 0.3020 0.2667 0.2157
v -0.3210 -0.3766 -0.8300 0.2784 0.2471 0.1961
v -0.3210 -0.3766 -0.5300 0.2784 0.2471 0.1961
v -0.4604 -0.1812 -0.5300 0.3020 0.2667 0.2157
v 0.2100 0.4100 0.2900 0.1686 0.1765 0.1922
v 0.2100 0.4700 0.2900 0.1725 0.1804 0.1961
v 0.2700 0.4700 0.2900 0.1725 0.1804 0.1961
v 0.2700 0.4100 0.2900 0.1686 0.1765 0.1922
v 0.2100 0.4100 0.5900 0.1686 0.1765 0.1922
v 0.2700 0.4100 0.5900 0.1686 0.1765 0.1922
v 0.2700 0.4700 0.5900 0.1725 0.1804 0.1961
v 0.2100 0.4700 0.5900 0.1725 0.1804 0.1961
v 0.2100 0.4100 0.8900 0.1686 0.1765 0.1922
v 0.2700 0.4100 0.8900 0.1686 0.1765 0.1922
v 0.2700 0.4700 0.8900 0.1725 0.1804 0.1961
v 0.2100 0.4700 0.8900 0.1725 0.1804 0.1961
v 0.1700 0.3700 -0.0300 0.3255 0.3020 0.2471
v 0.1700 0.5100 -0.0300 0.3373 0.3176 0.2588
v 0.3700 0.5100 -0.0300 0.3373 0.3176 0.2588
v 0.3700 0.3700 -0.0300 0.3255 0.3020 0.2471
v 0.1700 0.3700 0.2300 0.3255 0.3020 0.2471
v 0.3700 0.3700 0.2300 0.3255 0.3020 0.2471
v 0.3700 0.5100 0.2300 0.3373 0.3176 0.2588
v 0.1700 0.5100 0.2300 0.3373 0.3176 0.2588
v -0.4200 0.1600 0.8600 0.2549 0.2627 0.2745
v 0.4200 0.1600 0.8600 0.2549 0.2627 0.2745
v 0.4200 0.1000 0.9000 0.2510 0.2588 0.2706
v -0.4200 0.1000 0.9000 0.2510 0.2588 0.2706
v -0.4400 0.0600 0.8700 0.1529 0.1569 0.1686
v -0.4400 0.2000 0.8700 0.1608 0.1647 0.1804
v -0.2800 0.2000 0.8700 0.1608 0.1647 0.1804
v -0.2800 0.0600 0.8700 0.1529 0.1569 0.1686
v -0.4400 0.0600 1.0100 0.1529 0.1569 0.1686
v -0.2800 0.0600 1.0100 0.1529 0.1569 0.1686
v -0.2800 0.2000 1.0100 0.1608 0.1647 0.1804
v -0.4400 0.2000 1.0100 0.1608 0.1647 0.1804
v -0.4300 0.2000 1.0120 0.7765 0.7373 0.5608
v -0.2900 0.2000 1.0120 0.7765 0.7373 0.5608
v -0.2900 0.0600 1.0120 0.7373 0.7020 0.5333
v -0.4300 0.0600 1.0120 0.7373 0.7020 0.5333
v 0.2800 0.0600 0.8700 0.1529 0.1569 0.1686
v 0.2800 0.2000 0.8700 0.1608 0.1647 0.1804
v 0.4400 0.2000 0.8700 0.1608 0.1647 0.1804
v 0.4400 0.0600 0.8700 0.1529 0.1569 0.1686
v 0.2800 0.0600 1.0100 0.1529 0.1569 0.1686
v 0.4400 0.0600 1.0100 0.1529 0.1569 0.1686
v 0.4400 0.2000 1.0100 0.1608 0.1647 0.1804
v 0.2800 0.2000 1.0100 0.1608 0.1647 0.1804
v 0.2900 0.2000 1.0120 0.7765 0.7373 0.5608
v 0.4300 0.2000 1.0120 0.7765 0.7373 0.5608
v 0.4300 0.0600 1.0120 0.7373 0.7020 0.5333
v 0.2900 0.0600 1.0120 0.7373 0.7020 0.5333
v -0.3000 -0.4600 0.6200 0.2471 0.2471 0.2392
v 0.3000 -0.4600 0.6200 0.2471 0.2471 0.2392
v 0.3000 -0.4600 1.1600 0.2471 0.2471 0.2392
v -0.3000 -0.4600 1.1600 0.2471 0.2471 0.2392
v -0.3000 -0.3000 1.1600 0.2667 0.2667 0.2549
v -0.3000 -0.3000 0.6200 0.2667 0.2667 0.2549
v 0.3000 -0.3000 1.1600 0.2667 0.2667 0.2549
v 0.3000 -0.3000 0.6200 0.2667 0.2667 0.2549
v -0.0200 0.4400 -1.2800 0.2824 0.2863 0.3020
v 0.0200 0.4400 -1.2800 0.2824 0.2863 0.3020
v 0.0200 0.7200 -1.0500 0.3059 0.3137 0.3294
v -0.0200 0.7200 -1.0500 0.3059 0.3137 0.3294
v -0.3000 -0.3400 -1.2600 0.2118 0.2157 0.2275
v -0.3000 -0.3400 -1.0200 0.2118 0.2157 0.2275
v -0.6000 -0.5200 -1.0600 0.1961 0.2000 0.2118
v -0.6000 -0.5200 -1.2400 0.1961 0.2000 0.2118
v 0.3000 -0.3400 -1.2600 0.2118 0.2157 0.2275
v 0.3000 -0.3400 -1.0200 0.2118 0.2157 0.2275
v 0.6000 -0.5200 -1.0600 0.1961 0.2000 0.2118
v 0.6000 -0.5200 -1.2400 0.1961 0.2000 0.2118
vt 0.0000 0.0000
vt 0.7500 0.0000
vt 1.5000 0.0000
vt 2.2500 0.0000
vt 3.0000 0.0000
vt 3.7500 0.0000
vt 4.5000 0.0000
vt 5.2500 0.0000
vt 6.0000 0.0000
vt 6.7500 0.0000
vt 0.0000 0.9000
vt 0.7500 0.9000
vt 1.5000 0.9000
vt 2.2500 0.9000
vt 3.0000 0.9000
vt 3.7500 0.9000
vt 4.5000 0.9000
vt 5.2500 0.9000
vt 6.0000 0.9000
vt 6.7500 0.9000
vt 0.0000 1.8000
vt 0.7500 1.8000
vt 1.5000 1.8000
vt 2.2500 1.8000
vt 3.0000 1.8000
vt 3.7500 1.8000
vt 4.5000 1.8000
vt 5.2500 1.8000
vt 6.0000 1.8000
vt 6.7500 1.8000
vt 0.0000 2.7000
vt 0.7500 2.7000
vt 1.5000 2.7000
vt 2.2500 2.7000
vt 3.0000 2.7000
vt 3.7500 2.7000
vt 4.5000 2.7000
vt 5.2500 2.7000
vt 6.0000 2.7000
vt 6.7500 2.7000
vt 0.5000 0.5000
vt 0.0000 0.0000
vt 0.7500 0.0000
vt 1.5000 0.0000
vt 2.2500 0.0000
vt 3.0000 0.0000
vt 3.7500 0.0000
vt 4.5000 0.0000
vt 5.2500 0.0000
vt 6.0000 0.0000
vt 6.7500 0.0000
vt 0.0000 0.3500
vt 0.7500 0.3500
vt 1.5000 0.3500
vt 2.2500 0.3500
vt 3.0000 0.3500
vt 3.7500 0.3500
vt 4.5000 0.3500
vt 5.2500 0.3500
vt 6.0000 0.3500
vt 6.7500 0.3500
vt 0.0000 0.0000
vt 0.7500 0.0000
vt 1.5000 0.0000
vt 2.2500 0.0000
vt 3.0000 0.0000
vt 3.7500 0.0000
vt 4.5000 0.0000
vt 5.2500 0.0000
vt 6.0000 0.0000
vt 6.7500 0.0000
vt 0.0000 0.3500
vt 0.7500 0.3500
vt 1.5000 0.3500
vt 2.2500 0.3500
vt 3.0000 0.3500
vt 3.7500 0.3500
vt 4.5000 0.3500
vt 5.2500 0.3500
vt 6.0000 0.3500
vt 6.7500 0.3500
vt 0.0000 0.0000
vt 0.4000 0.0000
vt 0.8000 0.0000
vt 1.2000 0.0000
vt 1.6000 0.0000
vt 2.0000 0.0000
vt 2.4000 0.0000
vt 2.8000 0.0000
vt 3.2000 0.0000
vt 3.6000 0.0000
vt 0.0000 0.4000
vt 0.4000 0.4000
vt 0.8000 0.4000
vt 1.2000 0.4000
vt 1.6000 0.4000
vt 2.0000 0.4000
vt 2.4000 0.4000
vt 2.8000 0.4000
vt 3.2000 0.4000
vt 3.6000 0.4000
vt 0.5000 0.5000
vt 0.0000 0.0000
vt 0.3500 0.0000
vt 0.7000 0.0000
vt 1.0500 0.0000
vt 1.4000 0.0000
vt 1.7500 0.0000
vt 2.1000 0.0000
vt 2.4500 0.0000
vt 0.0000 0.6000
vt 0.3500 0.6000
vt 0.7000 0.6000
vt 1.0500 0.6000
vt 1.4000 0.6000
vt 1.7500 0.6000
vt 2.1000 0.6000
vt 2.4500 0.6000
vt 0.5000 0.5000
vt 0.1118 0.5113
vt 0.1118 0.5613
vt 0.1818 0.5613
vt 0.1818 0.5113
vt 0.1818 0.5330
vt 0.2518 0.5330
vt 0.2518 0.5830
vt 0.1818 0.5830
vt -0.2700 0.5113
vt -0.2700 0.5613
vt -0.2000 0.5613
vt -0.2000 0.5113
vt -0.2000 0.5330
vt -0.1300 0.5330
vt -0.1300 0.5830
vt -0.2000 0.5830
vt -0.6518 0.3930
vt -0.6518 0.4430
vt -0.5818 0.4430
vt -0.5818 0.3930
vt -0.5818 0.4147
vt -0.5118 0.4147
vt -0.5118 0.4647
vt -0.5818 0.4647
vt -0.2700 0.3930
vt -0.2700 0.4430
vt -0.2000 0.4430
vt -0.2000 0.3930
vt -0.2000 0.4147
vt -0.1300 0.4147
vt -0.1300 0.4647
vt -0.2000 0.4647
vt 0.0000 0.0000
vt 0.5000 0.0000
vt 1.0000 0.0000
vt 1.5000 0.0000
vt 2.0000 0.0000
vt 2.5000 0.0000
vt 3.0000 0.0000
vt 3.5000 0.0000
vt 0.0000 0.5000
vt 0.5000 0.5000
vt 1.0000 0.5000
vt 1.5000 0.5000
vt 2.0000 0.5000
vt 2.5000 0.5000
vt 3.0000 0.5000
vt 3.5000 0.5000
vt 0.0000 0.0000
vt 0.5000 0.0000
vt 1.0000 0.0000
vt 1.5000 0.0000
vt 2.0000 0.0000
vt 2.5000 0.0000
vt 3.0000 0.0000
vt 3.5000 0.0000
vt 0.0000 0.5000
vt 0.5000 0.5000
vt 1.0000 0.5000
vt 1.5000 0.5000
vt 2.0000 0.5000
vt 2.5000 0.5000
vt 3.0000 0.5000
vt 3.5000 0.5000
vt -0.6700 0.1300
vt -0.6700 0.0000
vt -0.7300 0.0000
vt -0.7300 0.1300
vt -0.7826 -0.0650
vt -0.8426 -0.0650
vt -0.5574 -0.0650
vt -0.6174 -0.0650
vt 0.0000 0.0000
vt 0.3500 0.0000
vt 0.7000 0.0000
vt 1.0500 0.0000
vt 1.4000 0.0000
vt 1.7500 0.0000
vt 0.0000 0.6000
vt 0.3500 0.6000
vt 0.7000 0.6000
vt 1.0500 0.6000
vt 1.4000 0.6000
vt 1.7500 0.6000
vt 0.5000 0.5000
vt 0.5000 0.5000
vt -0.6666 0.0103
vt -0.6054 0.0355
vt -0.5901 0.0832
vt -0.6613 0.0581
vt -0.7103 0.0334
vt -0.7555 0.1146
vt -0.7732 0.0999
vt -0.7381 0.0187
vt -0.7334 -0.0103
vt -0.8346 -0.0355
vt -0.7899 -0.0832
vt -0.6987 -0.0581
vt -0.6897 -0.0334
vt -0.6845 -0.1146
vt -0.6068 -0.0999
vt -0.6219 -0.0187
vt -1.3900 -0.9750
vt -1.3900 -0.8850
vt -1.2900 -0.8850
vt -1.2900 -0.9750
vt 0.3100 -0.4480
vt 0.4100 -0.4480
vt 0.4100 -0.3580
vt 0.3100 -0.3580
vt -0.5700 -0.2900
vt -0.5200 -0.2900
vt -0.5000 -0.1500
vt -0.5500 -0.1500
vt -0.1700 -0.2900
vt -0.1200 -0.2900
vt -0.1000 -0.1500
vt -0.1500 -0.1500
vt 0.0800 -0.2900
vt 0.1300 -0.2900
vt 0.1500 -0.1500
vt 0.1000 -0.1500
vt -0.7100 -0.9750
vt -0.7100 -0.8850
vt -0.6100 -0.8850
vt -0.6100 -0.9750
vt 0.9900 -0.4480
vt 1.0900 -0.4480
vt 1.0900 -0.3580
vt 0.9900 -0.3580
vt -0.2300 -0.2900
vt -0.1800 -0.2900
vt -0.2000 -0.1500
vt -0.2500 -0.1500
vt 0.1700 -0.2900
vt 0.2200 -0.2900
vt 0.2000 -0.1500
vt 0.1500 -0.1500
vt 0.4200 -0.2900
vt 0.4700 -0.2900
vt 0.4500 -0.1500
vt 0.4000 -0.1500
vt 0.0000 0.0000
vt 0.3500 0.0000
vt 0.7000 0.0000
vt 1.0500 0.0000
vt 1.4000 0.0000
vt 1.7500 0.0000
vt 0.0000 0.6000
vt 0.3500 0.6000
vt 0.7000 0.6000
vt 1.0500 0.6000
vt 1.4000 0.6000
vt 1.7500 0.6000
vt 0.5000 0.5000
vt 0.5000 0.5000
vt 0.0000 0.0000
vt 0.3500 0.0000
vt 0.7000 0.0000
vt 1.0500 0.0000
vt 1.4000 0.0000
vt 1.7500 0.0000
vt 0.0000 0.6000
vt 0.3500 0.6000
vt 0.7000 0.6000
vt 1.0500 0.6000
vt 1.4000 0.6000
vt 1.7500 0.6000
vt 0.5000 0.5000
vt 0.5000 0.5000
vt -1.1850 -0.3464
vt -1.1850 -0.2964
vt -0.9850 -0.2964
vt -0.9850 -0.3464
vt -1.1150 -0.3246
vt -0.9150 -0.3246
vt -0.9150 -0.2747
vt -1.1150 -0.2747
vt -0.2850 -0.0674
vt -0.2850 -0.0174
vt -0.0850 -0.0174
vt -0.0850 -0.0674
vt -0.2150 -0.0457
vt -0.0150 -0.0457
vt -0.0150 0.0043
vt -0.2150 0.0043
vt -0.1850 -0.3464
vt -0.1850 -0.2964
vt 0.0150 -0.2964
vt 0.0150 -0.3464
vt -0.1150 -0.3246
vt 0.0850 -0.3246
vt 0.0850 -0.2747
vt -0.1150 -0.2747
vt 0.7150 -0.0674
vt 0.7150 -0.0174
vt 0.9150 -0.0174
vt 0.9150 -0.0674
vt 0.7850 -0.0457
vt 0.9850 -0.0457
vt 0.9850 0.0043
vt 0.7850 0.0043
vt 0.0592 -0.1521
vt 0.1094 0.0103
vt 0.3494 0.0103
vt 0.2992 -0.1521
vt -0.6452 -0.0906
vt -0.5755 -0.1883
vt -0.4255 -0.1883
vt -0.4952 -0.0906
vt 0.5000 0.4999
vt 0.5000 0.5599
vt 0.5600 0.5599
vt 0.5600 0.4999
vt 0.8000 0.5929
vt 0.8600 0.5929
vt 0.8600 0.6529
vt 0.8000 0.6529
vt 1.1000 0.6859
vt 1.1600 0.6859
vt 1.1600 0.7459
vt 1.1000 0.7459
vt 0.1400 0.3607
vt 0.1400 0.5007
vt 0.3400 0.5007
vt 0.3400 0.3607
vt 0.4000 0.4413
vt 0.6000 0.4413
vt 0.6000 0.5813
vt 0.4000 0.5813
vt 0.2200 0.0800
vt 0.6400 0.0800
vt 0.6600 0.0500
vt 0.2400 0.0500
vt 0.4300 0.3297
vt 0.4300 0.4697
vt 0.5900 0.4697
vt 0.5900 0.3297
vt 0.5700 0.3731
vt 0.7300 0.3731
vt 0.7300 0.5131
vt 0.5700 0.5131
vt 0.2910 0.1000
vt 0.3610 0.1000
vt 0.3610 0.0300
vt 0.2910 0.0300
vt 1.1500 0.3297
vt 1.1500 0.4697
vt 1.3100 0.4697
vt 1.3100 0.3297
vt 1.2900 0.3731
vt 1.4500 0.3731
vt 1.4500 0.5131
vt 1.2900 0.5131
vt 0.6510 0.1000
vt 0.7210 0.1000
vt 0.7210 0.0300
vt 0.6510 0.0300
vt 0.1600 -0.2300
vt 0.4600 -0.2300
vt 0.7300 -0.2300
vt 0.4300 -0.2300
vt 0.4300 -0.1500
vt 0.1600 -0.1500
vt 0.7300 -0.1500
vt 0.4600 -0.1500
vt -0.6500 0.2200
vt -0.6300 0.2200
vt -0.5150 0.3600
vt -0.5350 0.3600
vt -0.7800 -0.1700
vt -0.6600 -0.1700
vt -0.8300 -0.2600
vt -0.9200 -0.2600
vt -0.4800 -0.1700
vt -0.3600 -0.1700
vt -0.2300 -0.2600
vt -0.3200 -0.2600
g hull
usemtl hull
f 1/1 2/2 12/12
f 1/1 12/12 11/11
f 2/2 3/3 13/13
f 2/2 13/13 12/12
f 3/3 4/4 14/14
f 3/3 14/14 13/13
f 4/4 5/5 15/15
f 4/4 15/15 14/14
f 5/5 6/6 16/16
f 5/5 16/16 15/15
f 6/6 7/7 17/17
f 6/6 17/17 16/16
f 7/7 8/8 18/18
f 7/7 18/18 17/17
f 8/8 9/9 19/19
f 8/8 19/19 18/18
f 9/9 10/10 20/20
f 9/9 20/20 19/19
f 10/10 1/1 11/11
f 10/10 11/11 20/20
f 11/11 12/12 22/22
f 11/11 22/22 21/21
f 12/12 13/13 23/23
f 12/12 23/23 22/22
f 13/13 14/14 24/24
f 13/13 24/24 23/23
f 14/14 15/15 25/25
f 14/14 25/25 24/24
f 15/15 16/16 26/26
f 15/15 26/26 25/25
f 16/16 17/17 27/27
f 16/16 27/27 26/26
f 17/17 18/18 28/28
f 17/17 28/28 27/27
f 18/18 19/19 29/29
f 18/18 29/29 28/28
f 19/19 20/20 30/30
f 19/19 30/30 29/29
f 20/20 11/11 21/21
f 20/20 21/21 30/30
f 21/21 22/22 32/32
f 21/21 32/32 31/31
f 22/22 23/23 33/33
f 22/22 33/33 32/32
f 23/23 24/24 34/34
f 23/23 34/34 33/33
f 24/24 25/25 35/35
f 24/24 35/35 34/34
f 25/25 26/26 36/36
f 25/25 36/36 35/35
f 26/26 27/27 37/37
f 26/26 37/37 36/36
f 27/27 28/28 38/38
f 27/27 38/38 37/37
f 28/28 29/29 39/39
f 28/28 39/39 38/38
f 29/29 30/30 40/40
f 29/29 40/40 39/39
f 30/30 21/21 31/31
f 30/30 31/31 40/40
f 41/41 2/2 1/1
f 41/41 3/3 2/2
f 41/41 4/4 3/3
f 41/41 5/5 4/4
f 41/41 6/6 5/5
f 41/41 7/7 6/6
f 41/41 8/8 7/7
f 41/41 9/9 8/8
f 41/41 10/10 9/9
f 41/41 1/1 10/10
f 322/322 323/323 324/324
f 322/322 324/324 325/325
f 326/326 327/327 328/328
f 326/326 328/328 329/329
f 330/330 331/331 332/332
f 330/330 332/332 333/333
f 334/334 335/335 336/336
f 334/334 336/336 337/337
f 330/330 333/333 335/335
f 330/330 335/335 334/334
f 332/332 331/331 337/337
f 332/332 337/337 336/336
f 333/333 332/332 336/336
f 333/333 336/336 335/335
f 330/330 334/334 337/337
f 330/330 337/337 331/331
f 334/334 337/337 336/336
f 334/334 336/336 335/335
f 338/338 339/339 340/340
f 338/338 340/340 341/341
f 334/334 335/335 339/339
f 334/334 339/339 338/338
f 336/336 337/337 341/341
f 336/336 341/341 340/340
f 335/335 336/336 340/340
f 335/335 340/340 339/339
f 334/334 338/338 341/341
f 334/334 341/341 337/337
f 342/342 343/343 344/344
f 342/342 344/344 345/345
f 346/346 347/347 348/348
f 346/346 348/348 349/349
f 342/342 345/345 347/347
f 342/342 347/347 346/346
f 344/344 343/343 349/349
f 344/344 349/349 348/348
f 345/345 344/344 348/348
f 345/345 348/348 347/347
f 342/342 346/346 349/349
f 342/342 349/349 343/343
g ribs
usemtl ribs
f 42/42 43/43 53/53
f 42/42 53/53 52/52
f 43/43 44/44 54/54
f 43/43 54/54 53/53
f 44/44 45/45 55/55
f 44/44 55/55 54/54
f 45/45 46/46 56/56
f 45/45 56/56 55/55
f 46/46 47/47 57/57
f 46/46 57/57 56/56
f 47/47 48/48 58/58
f 47/47 58/58 57/57
f 48/48 49/49 59/59
f 48/48 59/59 58/58
f 49/49 50/50 60/60
f 49/49 60/60 59/59
f 50/50 51/51 61/61
f 50/50 61/61 60/60
f 51/51 42/42 52/52
f 51/51 52/52 61/61
f 62/62 63/63 73/73
f 62/62 73/73 72/72
f 63/63 64/64 74/74
f 63/63 74/74 73/73
f 64/64 65/65 75/75
f 64/64 75/75 74/74
f 65/65 66/66 76/76
f 65/65 76/76 75/75
f 66/66 67/67 77/77
f 66/66 77/77 76/76
f 67/67 68/68 78/78
f 67/67 78/78 77/77
f 68/68 69/69 79/79
f 68/68 79/79 78/78
f 69/69 70/70 80/80
f 69/69 80/80 79/79
f 70/70 71/71 81/81
f 70/70 81/81 80/80
f 71/71 62/62 72/72
f 71/71 72/72 81/81
g dome
usemtl dome
f 82/82 83/83 93/93
f 82/82 93/93 92/92
f 83/83 84/84 94/94
f 83/83 94/94 93/93
f 84/84 85/85 95/95
f 84/84 95/95 94/94
f 85/85 86/86 96/96
f 85/85 96/96 95/95
f 86/86 87/87 97/97
f 86/86 97/97 96/96
f 87/87 88/88 98/98
f 87/87 98/98 97/97
f 88/88 89/89 99/99
f 88/88 99/99 98/98
f 89/89 90/90 100/100
f 89/89 100/100 99/99
f 90/90 91/91 101/101
f 90/90 101/101 100/100
f 91/91 82/82 92/92
f 91/91 92/92 101/101
f 102/102 92/92 93/93
f 102/102 93/93 94/94
f 102/102 94/94 95/95
f 102/102 95/95 96/96
f 102/102 96/96 97/97
f 102/102 97/97 98/98
f 102/102 98/98 99/99
f 102/102 99/99 100/100
f 102/102 100/100 101/101
f 102/102 101/101 92/92
g hatch
usemtl hatch
f 103/103 104/104 112/112
f 103/103 112/112 111/111
f 104/104 105/105 113/113
f 104/104 113/113 112/112
f 105/105 106/106 114/114
f 105/105 114/114 113/113
f 106/106 107/107 115/115
f 106/106 115/115 114/114
f 107/107 108/108 116/116
f 107/107 116/116 115/115
f 108/108 109/109 117/117
f 108/108 117/117 116/116
f 109/109 110/110 118/118
f 109/109 118/118 117/117
f 110/110 103/103 111/111
f 110/110 111/111 118/118
f 119/119 111/111 112/112
f 119/119 112/112 113/113
f 119/119 113/113 114/114
f 119/119 114/114 115/115
f 119/119 115/115 116/116
f 119/119 116/116 117/117
f 119/119 117/117 118/118
f 119/119 118/118 111/111
f 120/120 121/121 122/122
f 120/120 122/122 123/123
f 124/124 125/125 126/126
f 124/124 126/126 127/127
f 120/120 123/123 125/125
f 120/120 125/125 124/124
f 122/122 121/121 127/127
f 122/122 127/127 126/126
f 123/123 122/122 126/126
f 123/123 126/126 125/125
f 120/120 124/124 127/127
f 120/120 127/127 121/121
f 128/128 129/129 130/130
f 128/128 130/130 131/131
f 132/132 133/133 134/134
f 132/132 134/134 135/135
f 128/128 131/131 133/133
f 128/128 133/133 132/132
f 130/130 129/129 135/135
f 130/130 135/135 134/134
f 131/131 130/130 134/134
f 131/131 134/134 133/133
f 128/128 132/132 135/135
f 128/128 135/135 129/129
f 136/136 137/137 138/138
f 136/136 138/138 139/139
f 140/140 141/141 142/142
f 140/140 142/142 143/143
f 136/136 139/139 141/141
f 136/136 141/141 140/140
f 138/138 137/137 143/143
f 138/138 143/143 142/142
f 139/139 138/138 142/142
f 139/139 142/142 141/141
f 136/136 140/140 143/143
f 136/136 143/143 137/137
f 144/144 145/145 146/146
f 144/144 146/146 147/147
f 148/148 149/149 150/150
f 148/148 150/150 151/151
f 144/144 147/147 149/149
f 144/144 149/149 148/148
f 146/146 145/145 151/151
f 146/146 151/151 150/150
f 147/147 146/146 150/150
f 147/147 150/150 149/149
f 144/144 148/148 151/151
f 144/144 151/151 145/145
g shroud
usemtl shroud
f 152/152 153/153 161/161
f 152/152 161/161 160/160
f 153/153 154/154 162/162
f 153/153 162/162 161/161
f 154/154 155/155 163/163
f 154/154 163/163 162/162
f 155/155 156/156 164/164
f 155/155 164/164 163/163
f 156/156 157/157 165/165
f 156/156 165/165 164/164
f 157/157 158/158 166/166
f 157/157 166/166 165/165
f 158/158 159/159 167/167
f 158/158 167/167 166/166
f 159/159 152/152 160/160
f 159/159 160/160 167/167
f 168/168 169/169 177/177
f 168/168 177/177 176/176
f 169/169 170/170 178/178
f 169/169 178/178 177/177
f 170/170 171/171 179/179
f 170/170 179/179 178/178
f 171/171 172/172 180/180
f 171/171 180/180 179/179
f 172/172 173/173 181/181
f 172/172 181/181 180/180
f 173/173 174/174 182/182
f 173/173 182/182 181/181
f 174/174 175/175 183/183
f 174/174 183/183 182/182
f 175/175 168/168 176/176
f 175/175 176/176 183/183
f 184/184 185/185 186/186
f 184/184 186/186 187/187
f 187/187 186/186 185/185
f 187/187 185/185 184/184
f 188/188 185/185 186/186
f 188/188 186/186 189/189
f 189/189 186/186 185/185
f 189/189 185/185 188/188
f 190/190 185/185 186/186
f 190/190 186/186 191/191
f 191/191 186/186 185/185
f 191/191 185/185 190/190
g prop
usemtl prop
f 192/192 193/193 199/199
f 192/192 199/199 198/198
f 193/193 194/194 200/200
f 193/193 200/200 199/199
f 194/194 195/195 201/201
f 194/194 201/201 200/200
f 195/195 196/196 202/202
f 195/195 202/202 201/201
f 196/196 197/197 203/203
f 196/196 203/203 202/202
f 197/197 192/192 198/198
f 197/197 198/198 203/203
f 204/204 193/193 192/192
f 204/204 194/194 193/193
f 204/204 195/195 194/194
f 204/204 196/196 195/195
f 204/204 197/197 196/196
f 204/204 192/192 197/197
f 205/205 198/198 199/199
f 205/205 199/199 200/200
f 205/205 200/200 201/201
f 205/205 201/201 202/202
f 205/205 202/202 203/203
f 205/205 203/203 198/198
f 206/206 207/207 208/208
f 206/206 208/208 209/209
f 209/209 208/208 207/207
f 209/209 207/207 206/206
f 210/210 211/211 212/212
f 210/210 212/212 213/213
f 213/213 212/212 211/211
f 213/213 211/211 210/210
f 214/214 215/215 216/216
f 214/214 216/216 217/217
f 217/217 216/216 215/215
f 217/217 215/215 214/214
f 218/218 219/219 220/220
f 218/218 220/220 221/221
f 221/221 220/220 219/219
f 221/221 219/219 218/218
g skids
usemtl skids
f 222/222 223/223 224/224
f 222/222 224/224 225/225
f 226/226 227/227 228/228
f 226/226 228/228 229/229
f 222/222 225/225 227/227
f 222/222 227/227 226/226
f 224/224 223/223 229/229
f 224/224 229/229 228/228
f 225/225 224/224 228/228
f 225/225 228/228 227/227
f 222/222 226/226 229/229
f 222/222 229/229 223/223
f 230/230 231/231 232/232
f 230/230 232/232 233/233
f 233/233 232/232 231/231
f 233/233 231/231 230/230
f 234/234 235/235 236/236
f 234/234 236/236 237/237
f 237/237 236/236 235/235
f 237/237 235/235 234/234
f 238/238 239/239 240/240
f 238/238 240/240 241/241
f 241/241 240/240 239/239
f 241/241 239/239 238/238
f 242/242 243/243 244/244
f 242/242 244/244 245/245
f 246/246 247/247 248/248
f 246/246 248/248 249/249
f 242/242 245/245 247/247
f 242/242 247/247 246/246
f 244/244 243/243 249/249
f 244/244 249/249 248/248
f 245/245 244/244 248/248
f 245/245 248/248 247/247
f 242/242 246/246 249/249
f 242/242 249/249 243/243
f 250/250 251/251 252/252
f 250/250 252/252 253/253
f 253/253 252/252 251/251
f 253/253 251/251 250/250
f 254/254 255/255 256/256
f 254/254 256/256 257/257
f 257/257 256/256 255/255
f 257/257 255/255 254/254
f 258/258 259/259 260/260
f 258/258 260/260 261/261
f 261/261 260/260 259/259
f 261/261 259/259 258/258
g pods
usemtl pods
f 262/262 263/263 269/269
f 262/262 269/269 268/268
f 263/263 264/264 270/270
f 263/263 270/270 269/269
f 264/264 265/265 271/271
f 264/264 271/271 270/270
f 265/265 266/266 272/272
f 265/265 272/272 271/271
f 266/266 267/267 273/273
f 266/266 273/273 272/272
f 267/267 262/262 268/268
f 267/267 268/268 273/273
f 274/274 263/263 262/262
f 274/274 264/264 263/263
f 274/274 265/265 264/264
f 274/274 266/266 265/265
f 274/274 267/267 266/266
f 274/274 262/262 267/267
f 275/275 268/268 269/269
f 275/275 269/269 270/270
f 275/275 270/270 271/271
f 275/275 271/271 272/272
f 275/275 272/272 273/273
f 275/275 273/273 268/268
f 276/276 277/277 283/283
f 276/276 283/283 282/282
f 277/277 278/278 284/284
f 277/277 284/284 283/283
f 278/278 279/279 285/285
f 278/278 285/285 284/284
f 279/279 280/280 286/286
f 279/279 286/286 285/285
f 280/280 281/281 287/287
f 280/280 287/287 286/286
f 281/281 276/276 282/282
f 281/281 282/282 287/287
f 288/288 277/277 276/276
f 288/288 278/278 277/277
f 288/288 279/279 278/278
f 288/288 280/280 279/279
f 288/288 281/281 280/280
f 288/288 276/276 281/281
f 289/289 282/282 283/283
f 289/289 283/283 284/284
f 289/289 284/284 285/285
f 289/289 285/285 286/286
f 289/289 286/286 287/287
f 289/289 287/287 282/282
f 290/290 291/291 292/292
f 290/290 292/292 293/293
f 294/294 295/295 296/296
f 294/294 296/296 297/297
f 290/290 293/293 295/295
f 290/290 295/295 294/294
f 292/292 291/291 297/297
f 292/292 297/297 296/296
f 293/293 292/292 296/296
f 293/293 296/296 295/295
f 290/290 294/294 297/297
f 290/290 297/297 291/291
f 298/298 299/299 300/300
f 298/298 300/300 301/301
f 302/302 303/303 304/304
f 302/302 304/304 305/305
f 298/298 301/301 303/303
f 298/298 303/303 302/302
f 300/300 299/299 305/305
f 300/300 305/305 304/304
f 301/301 300/300 304/304
f 301/301 304/304 303/303
f 298/298 302/302 305/305
f 298/298 305/305 299/299
f 306/306 307/307 308/308
f 306/306 308/308 309/309
f 310/310 311/311 312/312
f 310/310 312/312 313/313
f 306/306 309/309 311/311
f 306/306 311/311 310/310
f 308/308 307/307 313/313
f 308/308 313/313 312/312
f 309/309 308/308 312/312
f 309/309 312/312 311/311
f 306/306 310/310 313/313
f 306/306 313/313 307/307
f 314/314 315/315 316/316
f 314/314 316/316 317/317
f 318/318 319/319 320/320
f 318/318 320/320 321/321
f 314/314 317/317 319/319
f 314/314 319/319 318/318
f 316/316 315/315 321/321
f 316/316 321/321 320/320
f 317/317 316/316 320/320
f 317/317 320/320 319/319
f 314/314 318/318 321/321
f 314/314 321/321 315/315
g lights
usemtl lights
f 350/350 351/351 352/352
f 350/350 352/352 353/353
f 353/353 352/352 351/351
f 353/353 351/351 350/350
f 354/354 355/355 356/356
f 354/354 356/356 357/357
f 358/358 359/359 360/360
f 358/358 360/360 361/361
f 354/354 357/357 359/359
f 354/354 359/359 358/358
f 356/356 355/355 361/361
f 356/356 361/361 360/360
f 357/357 356/356 360/360
f 357/357 360/360 359/359
f 354/354 358/358 361/361
f 354/354 361/361 355/355
f 362/362 363/363 364/364
f 362/362 364/364 365/365
f 366/366 367/367 368/368
f 366/366 368/368 369/369
f 370/370 371/371 372/372
f 370/370 372/372 373/373
f 366/366 369/369 371/371
f 366/366 371/371 370/370
f 368/368 367/367 373/373
f 368/368 373/373 372/372
f 369/369 368/368 372/372
f 369/369 372/372 371/371
f 366/366 370/370 373/373
f 366/366 373/373 367/367
f 374/374 375/375 376/376
f 374/374 376/376 377/377
g basket
usemtl basket
f 378/378 379/379 380/380
f 378/378 380/380 381/381
f 381/381 380/380 379/379
f 381/381 379/379 378/378
f 378/378 381/381 382/382
f 378/378 382/382 383/383
f 383/383 382/382 381/381
f 383/383 381/381 378/378
f 379/379 380/380 384/384
f 379/379 384/384 385/385
f 385/385 384/384 380/380
f 385/385 380/380 379/379
g fins
usemtl fins
f 386/386 387/387 388/388
f 386/386 388/388 389/389
f 389/389 388/388 387/387
f 389/389 387/387 386/386
f 390/390 391/391 392/392
f 390/390 392/392 393/393
f 393/393 392/392 391/391
f 393/393 391/391 390/390
f 394/394 395/395 396/396
f 394/394 396/396 397/397
f 397/397 396/396 395/395
f 397/397 395/395 394/394
