# machine_centaur.obj — generated by machine_centaur_gen.py
# 962 verts, 1218 tris
mtllib machine_centaur.mtl
v 12.472 118.659 -62.000 0.3137 0.3255 0.3412
v 5.166 128.076 -62.000 0.3137 0.3255 0.3412
v -5.166 128.076 -62.000 0.3137 0.3255 0.3412
v -12.472 118.659 -62.000 0.3137 0.3255 0.3412
v -12.472 105.341 -62.000 0.2196 0.2275 0.2392
v -5.166 95.924 -62.000 0.2196 0.2275 0.2392
v 5.166 95.924 -62.000 0.2196 0.2275 0.2392
v 12.472 105.341 -62.000 0.2196 0.2275 0.2392
v 23.097 123.251 -32.000 0.3882 0.4039 0.4275
v 9.567 139.162 -32.000 0.3882 0.4039 0.4275
v -9.567 139.162 -32.000 0.3882 0.4039 0.4275
v -23.097 123.251 -32.000 0.3882 0.4039 0.4275
v -23.097 100.749 -32.000 0.2745 0.2824 0.2980
v -9.567 84.838 -32.000 0.2980 0.1961 0.1294
v 9.567 84.838 -32.000 0.2980 0.1961 0.1294
v 23.097 100.749 -32.000 0.2745 0.2824 0.2980
v 23.097 123.481 22.000 0.4235 0.4392 0.4627
v 9.567 139.716 22.000 0.4235 0.4392 0.4627
v -9.567 139.716 22.000 0.4235 0.4392 0.4627
v -23.097 123.481 22.000 0.4235 0.4392 0.4627
v -23.097 100.519 22.000 0.2980 0.3059 0.3255
v -9.567 84.284 22.000 0.3255 0.2157 0.1412
v 9.567 84.284 22.000 0.3255 0.2157 0.1412
v 23.097 100.519 22.000 0.2980 0.3059 0.3255
v 15.244 120.266 52.000 0.3804 0.3961 0.4157
v 6.314 131.956 52.000 0.3804 0.3961 0.4157
v -6.314 131.956 52.000 0.3804 0.3961 0.4157
v -15.244 120.266 52.000 0.3804 0.3961 0.4157
v -15.244 103.734 52.000 0.2667 0.2784 0.2902
v -6.314 92.044 52.000 0.2667 0.2784 0.2902
v 6.314 92.044 52.000 0.2667 0.2784 0.2902
v 15.244 103.734 52.000 0.2667 0.2784 0.2902
v 0.000 112.000 -68.000 0.2667 0.2824 0.3059
v 0.000 112.000 60.000 0.2667 0.2824 0.3059
v -8.000 136.000 -48.000 0.4118 0.4235 0.4392
v 8.000 136.000 -48.000 0.4118 0.4235 0.4392
v 8.000 136.000 12.000 0.4118 0.4235 0.4392
v -8.000 136.000 12.000 0.4118 0.4235 0.4392
v -8.000 144.000 -48.000 0.5725 0.5882 0.6118
v 8.000 144.000 -48.000 0.5725 0.5882 0.6118
v 8.000 144.000 12.000 0.5725 0.5882 0.6118
v -8.000 144.000 12.000 0.5725 0.5882 0.6118
v 8.000 136.000 -40.000 0.1725 0.1725 0.1882
v 11.000 136.000 -34.804 0.1725 0.1725 0.1882
v 17.000 136.000 -34.804 0.1725 0.1725 0.1882
v 20.000 136.000 -40.000 0.1725 0.1725 0.1882
v 17.000 136.000 -45.196 0.1725 0.1725 0.1882
v 11.000 136.000 -45.196 0.1725 0.1725 0.1882
v 11.500 154.000 -44.000 0.1216 0.1216 0.1333
v 13.750 154.000 -40.103 0.1216 0.1216 0.1333
v 18.250 154.000 -40.103 0.1216 0.1216 0.1333
v 20.500 154.000 -44.000 0.1216 0.1216 0.1333
v 18.250 154.000 -47.897 0.1216 0.1216 0.1333
v 13.750 154.000 -47.897 0.1216 0.1216 0.1333
v 16.000 155.000 -44.000 0.0784 0.0706 0.0706
v 28.938 123.880 -8.808 0.2392 0.2549 0.2745
v 25.049 138.591 -1.227 0.2392 0.2549 0.2745
v 18.351 138.591 14.398 0.2392 0.2549 0.2745
v 15.542 123.880 22.442 0.2392 0.2549 0.2745
v 19.431 109.169 14.861 0.2392 0.2549 0.2745
v 26.129 109.169 -0.764 0.2392 0.2549 0.2745
v 76.516 126.000 14.853 0.4078 0.4235 0.4431
v 73.313 138.115 21.096 0.4078 0.4235 0.4431
v 67.797 138.115 33.963 0.4078 0.4235 0.4431
v 65.484 126.000 40.587 0.4078 0.4235 0.4431
v 68.687 113.885 34.344 0.4078 0.4235 0.4431
v 74.203 113.885 21.477 0.4078 0.4235 0.4431
v 23.000 124.000 8.000 0.1725 0.1725 0.1882
v 78.192 124.080 12.734 0.4078 0.4235 0.4431
v 65.054 133.977 14.267 0.4078 0.4235 0.4431
v 56.302 133.977 28.278 0.4078 0.4235 0.4431
v 60.688 124.080 40.757 0.4078 0.4235 0.4431
v 73.826 114.183 39.224 0.4078 0.4235 0.4431
v 82.578 114.183 25.213 0.4078 0.4235 0.4431
v 103.092 158.000 34.206 0.6078 0.6235 0.6471
v 93.946 164.890 35.273 0.6078 0.6235 0.6471
v 87.854 164.890 45.027 0.6078 0.6235 0.6471
v 90.908 158.000 53.714 0.6078 0.6235 0.6471
v 100.054 151.110 52.647 0.6078 0.6235 0.6471
v 106.146 151.110 42.893 0.6078 0.6235 0.6471
v 85.269 140.400 31.706 0.1725 0.1725 0.1882
v 84.680 143.773 36.559 0.1725 0.1725 0.1882
v 80.131 140.400 38.350 0.1725 0.1725 0.1882
v 80.720 137.027 33.497 0.1725 0.1725 0.1882
v 102.355 123.680 46.436 0.5137 0.5294 0.5490
v 101.934 126.089 49.903 0.5137 0.5294 0.5490
v 98.685 123.680 51.182 0.5137 0.5294 0.5490
v 99.106 121.271 47.715 0.5137 0.5294 0.5490
v 107.021 167.360 34.666 0.6078 0.6235 0.6471
v 108.332 169.381 48.020 0.6078 0.6235 0.6471
v 97.350 169.381 55.992 0.6078 0.6235 0.6471
v 85.059 167.360 50.610 0.6078 0.6235 0.6471
v 83.748 165.339 37.255 0.6078 0.6235 0.6471
v 94.730 165.339 29.283 0.6078 0.6235 0.6471
v 118.260 2.000 62.181 0.1255 0.1255 0.1373
v 118.888 2.968 68.578 0.1255 0.1255 0.1373
v 113.628 2.968 72.397 0.1255 0.1255 0.1373
v 107.740 2.000 69.819 0.1255 0.1255 0.1373
v 107.112 1.032 63.422 0.1255 0.1255 0.1373
v 112.372 1.032 59.603 0.1255 0.1255 0.1373
v 120.000 0.000 66.000 0.1765 0.1882 0.2000
v 109.500 0.000 72.062 0.1765 0.1882 0.2000
v 109.500 0.000 59.938 0.1765 0.1882 0.2000
v 120.000 0.000 78.124 0.4000 0.4078 0.4157
v 99.000 0.000 66.000 0.4000 0.4078 0.4157
v 120.000 0.000 53.876 0.4000 0.4078 0.4157
v 14.971 123.880 -76.062 0.2392 0.2549 0.2745
v 18.083 138.591 -68.131 0.2392 0.2549 0.2745
v 25.352 138.591 -52.763 0.2392 0.2549 0.2745
v 29.509 123.880 -45.327 0.2392 0.2549 0.2745
v 26.397 109.169 -53.258 0.2392 0.2549 0.2745
v 19.128 109.169 -68.625 0.2392 0.2549 0.2745
v 65.013 126.000 -96.415 0.4078 0.4235 0.4431
v 67.576 138.115 -89.884 0.4078 0.4235 0.4431
v 73.563 138.115 -77.229 0.4078 0.4235 0.4431
v 76.987 126.000 -71.105 0.4078 0.4235 0.4431
v 74.424 113.885 -77.636 0.4078 0.4235 0.4431
v 68.437 113.885 -90.291 0.4078 0.4235 0.4431
v 23.000 124.000 -62.000 0.1725 0.1725 0.1882
v 60.065 124.080 -96.287 0.4078 0.4235 0.4431
v 56.368 134.129 -83.707 0.4078 0.4235 0.4431
v 65.743 134.129 -70.105 0.4078 0.4235 0.4431
v 78.815 124.080 -69.083 0.4078 0.4235 0.4431
v 82.512 114.031 -81.663 0.4078 0.4235 0.4431
v 73.137 114.031 -95.265 0.4078 0.4235 0.4431
v 90.474 158.000 -111.149 0.6078 0.6235 0.6471
v 87.900 164.995 -102.391 0.6078 0.6235 0.6471
v 94.426 164.995 -92.923 0.6078 0.6235 0.6471
v 103.526 158.000 -92.211 0.6078 0.6235 0.6471
v 106.100 151.005 -100.969 0.6078 0.6235 0.6471
v 99.574 151.005 -110.437 0.6078 0.6235 0.6471
v 79.974 140.400 -95.019 0.1725 0.1725 0.1882
v 84.556 143.819 -93.408 0.1725 0.1725 0.1882
v 85.426 140.400 -88.629 0.1725 0.1725 0.1882
v 80.844 136.981 -90.240 0.1725 0.1725 0.1882
v 98.573 123.680 -109.312 0.5137 0.5294 0.5490
v 101.846 126.122 -108.162 0.5137 0.5294 0.5490
v 102.467 123.680 -104.748 0.5137 0.5294 0.5490
v 99.194 121.238 -105.899 0.5137 0.5294 0.5490
v 84.703 167.360 -107.679 0.6078 0.6235 0.6471
v 96.721 169.516 -113.601 0.6078 0.6235 0.6471
v 108.058 169.516 -106.143 0.6078 0.6235 0.6471
v 107.377 167.360 -92.763 0.6078 0.6235 0.6471
v 95.359 165.204 -86.840 0.6078 0.6235 0.6471
v 84.022 165.204 -94.299 0.6078 0.6235 0.6471
v 107.570 2.000 -129.573 0.1255 0.1255 0.1373
v 113.326 3.033 -132.409 0.1255 0.1255 0.1373
v 118.756 3.033 -128.837 0.1255 0.1255 0.1373
v 118.430 2.000 -122.427 0.1255 0.1255 0.1373
v 112.674 0.967 -119.591 0.1255 0.1255 0.1373
v 107.244 0.967 -123.163 0.1255 0.1255 0.1373
v 120.000 0.000 -126.000 0.1765 0.1882 0.2000
v 109.500 0.000 -119.938 0.1765 0.1882 0.2000
v 109.500 0.000 -132.062 0.1765 0.1882 0.2000
v 120.000 0.000 -113.876 0.4000 0.4078 0.4157
v 99.000 0.000 -126.000 0.4000 0.4078 0.4157
v 120.000 0.000 -138.124 0.4000 0.4078 0.4157
v -15.542 123.880 22.442 0.2392 0.2549 0.2745
v -18.351 138.591 14.398 0.2392 0.2549 0.2745
v -25.049 138.591 -1.227 0.2392 0.2549 0.2745
v -28.938 123.880 -8.808 0.2392 0.2549 0.2745
v -26.129 109.169 -0.764 0.2392 0.2549 0.2745
v -19.431 109.169 14.861 0.2392 0.2549 0.2745
v -65.484 126.000 40.587 0.4078 0.4235 0.4431
v -67.797 138.115 33.963 0.4078 0.4235 0.4431
v -73.313 138.115 21.096 0.4078 0.4235 0.4431
v -76.516 126.000 14.853 0.4078 0.4235 0.4431
v -74.203 113.885 21.477 0.4078 0.4235 0.4431
v -68.687 113.885 34.344 0.4078 0.4235 0.4431
v -23.000 124.000 8.000 0.1725 0.1725 0.1882
v -60.688 124.080 40.757 0.4078 0.4235 0.4431
v -56.302 133.977 28.278 0.4078 0.4235 0.4431
v -65.054 133.977 14.267 0.4078 0.4235 0.4431
v -78.192 124.080 12.734 0.4078 0.4235 0.4431
v -82.578 114.183 25.213 0.4078 0.4235 0.4431
v -73.826 114.183 39.224 0.4078 0.4235 0.4431
v -90.908 158.000 53.714 0.6078 0.6235 0.6471
v -87.854 164.890 45.027 0.6078 0.6235 0.6471
v -93.946 164.890 35.273 0.6078 0.6235 0.6471
v -103.092 158.000 34.206 0.6078 0.6235 0.6471
v -106.146 151.110 42.893 0.6078 0.6235 0.6471
v -100.054 151.110 52.647 0.6078 0.6235 0.6471
v -80.131 140.400 38.350 0.1725 0.1725 0.1882
v -84.680 143.773 36.559 0.1725 0.1725 0.1882
v -85.269 140.400 31.706 0.1725 0.1725 0.1882
v -80.720 137.027 33.497 0.1725 0.1725 0.1882
v -98.685 123.680 51.182 0.5137 0.5294 0.5490
v -101.934 126.089 49.903 0.5137 0.5294 0.5490
v -102.355 123.680 46.436 0.5137 0.5294 0.5490
v -99.106 121.271 47.715 0.5137 0.5294 0.5490
v -85.059 167.360 50.610 0.6078 0.6235 0.6471
v -97.350 169.381 55.992 0.6078 0.6235 0.6471
v -108.332 169.381 48.020 0.6078 0.6235 0.6471
v -107.021 167.360 34.666 0.6078 0.6235 0.6471
v -94.730 165.339 29.283 0.6078 0.6235 0.6471
v -83.748 165.339 37.255 0.6078 0.6235 0.6471
v -107.740 2.000 69.819 0.1255 0.1255 0.1373
v -113.628 2.968 72.397 0.1255 0.1255 0.1373
v -118.888 2.968 68.578 0.1255 0.1255 0.1373
v -118.260 2.000 62.181 0.1255 0.1255 0.1373
v -112.372 1.032 59.603 0.1255 0.1255 0.1373
v -107.112 1.032 63.422 0.1255 0.1255 0.1373
v -106.000 0.000 66.000 0.1765 0.1882 0.2000
v -116.500 0.000 72.062 0.1765 0.1882 0.2000
v -116.500 0.000 59.938 0.1765 0.1882 0.2000
v -106.000 0.000 78.124 0.4000 0.4078 0.4157
v -127.000 0.000 66.000 0.4000 0.4078 0.4157
v -106.000 0.000 53.876 0.4000 0.4078 0.4157
v -29.509 123.880 -45.327 0.2392 0.2549 0.2745
v -25.352 138.591 -52.763 0.2392 0.2549 0.2745
v -18.083 138.591 -68.131 0.2392 0.2549 0.2745
v -14.971 123.880 -76.062 0.2392 0.2549 0.2745
v -19.128 109.169 -68.625 0.2392 0.2549 0.2745
v -26.397 109.169 -53.258 0.2392 0.2549 0.2745
v -76.987 126.000 -71.105 0.4078 0.4235 0.4431
v -73.563 138.115 -77.229 0.4078 0.4235 0.4431
v -67.576 138.115 -89.884 0.4078 0.4235 0.4431
v -65.013 126.000 -96.415 0.4078 0.4235 0.4431
v -68.437 113.885 -90.291 0.4078 0.4235 0.4431
v -74.424 113.885 -77.636 0.4078 0.4235 0.4431
v -23.000 124.000 -62.000 0.1725 0.1725 0.1882
v -78.815 124.080 -69.083 0.4078 0.4235 0.4431
v -65.743 134.129 -70.105 0.4078 0.4235 0.4431
v -56.368 134.129 -83.707 0.4078 0.4235 0.4431
v -60.065 124.080 -96.287 0.4078 0.4235 0.4431
v -73.137 114.031 -95.265 0.4078 0.4235 0.4431
v -82.512 114.031 -81.663 0.4078 0.4235 0.4431
v -103.526 158.000 -92.211 0.6078 0.6235 0.6471
v -94.426 164.995 -92.923 0.6078 0.6235 0.6471
v -87.900 164.995 -102.391 0.6078 0.6235 0.6471
v -90.474 158.000 -111.149 0.6078 0.6235 0.6471
v -99.574 151.005 -110.437 0.6078 0.6235 0.6471
v -106.100 151.005 -100.969 0.6078 0.6235 0.6471
v -85.426 140.400 -88.629 0.1725 0.1725 0.1882
v -84.556 143.819 -93.408 0.1725 0.1725 0.1882
v -79.974 140.400 -95.019 0.1725 0.1725 0.1882
v -80.844 136.981 -90.240 0.1725 0.1725 0.1882
v -102.467 123.680 -104.748 0.5137 0.5294 0.5490
v -101.846 126.122 -108.162 0.5137 0.5294 0.5490
v -98.573 123.680 -109.312 0.5137 0.5294 0.5490
v -99.194 121.238 -105.899 0.5137 0.5294 0.5490
v -107.377 167.360 -92.763 0.6078 0.6235 0.6471
v -108.058 169.516 -106.143 0.6078 0.6235 0.6471
v -96.721 169.516 -113.601 0.6078 0.6235 0.6471
v -84.703 167.360 -107.679 0.6078 0.6235 0.6471
v -84.022 165.204 -94.299 0.6078 0.6235 0.6471
v -95.359 165.204 -86.840 0.6078 0.6235 0.6471
v -118.430 2.000 -122.427 0.1255 0.1255 0.1373
v -118.756 3.033 -128.837 0.1255 0.1255 0.1373
v -113.326 3.033 -132.409 0.1255 0.1255 0.1373
v -107.570 2.000 -129.573 0.1255 0.1255 0.1373
v -107.244 0.967 -123.163 0.1255 0.1255 0.1373
v -112.674 0.967 -119.591 0.1255 0.1255 0.1373
v -106.000 0.000 -126.000 0.1765 0.1882 0.2000
v -116.500 0.000 -119.938 0.1765 0.1882 0.2000
v -116.500 0.000 -132.062 0.1765 0.1882 0.2000
v -106.000 0.000 -113.876 0.4000 0.4078 0.4157
v -127.000 0.000 -126.000 0.4000 0.4078 0.4157
v -106.000 0.000 -138.124 0.4000 0.4078 0.4157
v 25.000 134.000 16.000 0.4941 0.5059 0.5255
v 17.678 134.000 30.142 0.4941 0.5059 0.5255
v 0.000 134.000 36.000 0.4941 0.5059 0.5255
v -17.678 134.000 30.142 0.4941 0.5059 0.5255
v -25.000 134.000 16.000 0.4941 0.5059 0.5255
v -17.678 134.000 1.858 0.4941 0.5059 0.5255
v -0.000 134.000 -4.000 0.4941 0.5059 0.5255
v 17.678 134.000 1.858 0.4941 0.5059 0.5255
v 22.000 145.000 16.012 0.4235 0.4392 0.4627
v 15.556 145.000 28.740 0.4235 0.4392 0.4627
v 0.000 145.000 34.012 0.4235 0.4392 0.4627
v -15.556 145.000 28.740 0.4235 0.4392 0.4627
v -22.000 145.000 16.012 0.4235 0.4392 0.4627
v -15.556 145.000 3.284 0.4235 0.4392 0.4627
v -0.000 145.000 -1.988 0.4235 0.4392 0.4627
v 15.556 145.000 3.284 0.4235 0.4392 0.4627
v 20.500 150.000 16.087 0.3451 0.1882 0.1961
v 14.496 150.000 27.754 0.3451 0.1882 0.1961
v 0.000 150.000 32.587 0.3451 0.1882 0.1961
v -14.496 150.000 27.754 0.3451 0.1882 0.1961
v -20.500 150.000 16.087 0.3451 0.1882 0.1961
v -14.496 150.000 4.420 0.3451 0.1882 0.1961
v -0.000 150.000 -0.413 0.3451 0.1882 0.1961
v 14.496 150.000 4.420 0.3451 0.1882 0.1961
v 20.782 143.000 20.481 0.5725 0.5882 0.6118
v 18.945 143.000 24.916 0.5725 0.5882 0.6118
v 18.945 148.500 24.972 0.4588 0.4706 0.4902
v 20.782 148.500 20.537 0.4588 0.4706 0.4902
v 10.445 143.000 31.251 0.5725 0.5882 0.6118
v 6.010 143.000 33.088 0.5725 0.5882 0.6118
v 6.010 148.500 33.144 0.4588 0.4706 0.4902
v 10.445 148.500 31.307 0.4588 0.4706 0.4902
v -6.010 143.000 33.088 0.5725 0.5882 0.6118
v -10.445 143.000 31.251 0.5725 0.5882 0.6118
v -10.445 148.500 31.307 0.4588 0.4706 0.4902
v -6.010 148.500 33.144 0.4588 0.4706 0.4902
v -18.945 143.000 24.916 0.5725 0.5882 0.6118
v -20.782 143.000 20.481 0.5725 0.5882 0.6118
v -20.782 148.500 20.537 0.4588 0.4706 0.4902
v -18.945 148.500 24.972 0.4588 0.4706 0.4902
v -20.782 143.000 11.522 0.5725 0.5882 0.6118
v -18.945 143.000 7.087 0.5725 0.5882 0.6118
v -18.945 148.500 7.143 0.4588 0.4706 0.4902
v -20.782 148.500 11.578 0.4588 0.4706 0.4902
v -10.445 143.000 0.752 0.5725 0.5882 0.6118
v -6.010 143.000 -1.085 0.5725 0.5882 0.6118
v -6.010 148.500 -1.029 0.4588 0.4706 0.4902
v -10.445 148.500 0.808 0.4588 0.4706 0.4902
v 6.010 143.000 -1.085 0.5725 0.5882 0.6118
v 10.445 143.000 0.752 0.5725 0.5882 0.6118
v 10.445 148.500 0.808 0.4588 0.4706 0.4902
v 6.010 148.500 -1.029 0.4588 0.4706 0.4902
v 18.945 143.000 7.087 0.5725 0.5882 0.6118
v 20.782 143.000 11.522 0.5725 0.5882 0.6118
v 20.782 148.500 11.578 0.4588 0.4706 0.4902
v 18.945 148.500 7.143 0.4588 0.4706 0.4902
v 21.000 160.000 16.440 0.4745 0.4863 0.4510
v 16.989 160.000 25.257 0.4745 0.4863 0.4510
v 6.489 160.000 30.706 0.4745 0.4863 0.4510
v -6.489 160.000 30.706 0.4745 0.4863 0.4510
v -16.989 160.000 25.257 0.4745 0.4863 0.4510
v -21.000 160.000 16.440 0.4745 0.4863 0.4510
v -16.989 160.000 7.623 0.4745 0.4863 0.4510
v -6.489 160.000 2.174 0.4745 0.4863 0.4510
v 6.489 160.000 2.174 0.4745 0.4863 0.4510
v 16.989 160.000 7.623 0.4745 0.4863 0.4510
v 27.000 186.000 19.629 0.6353 0.5961 0.5176
v 21.843 186.000 29.621 0.6353 0.5961 0.5176
v 8.343 186.000 35.797 0.6353 0.5961 0.5176
v -8.343 186.000 35.797 0.6353 0.5961 0.5176
v -21.843 186.000 29.621 0.6353 0.5961 0.5176
v -27.000 186.000 19.629 0.6353 0.5961 0.5176
v -21.843 186.000 9.637 0.6353 0.5961 0.5176
v -8.343 186.000 3.461 0.6353 0.5961 0.5176
v 8.343 186.000 3.461 0.6353 0.5961 0.5176
v 21.843 186.000 9.637 0.6353 0.5961 0.5176
v 25.000 202.000 20.889 0.4431 0.4118 0.3529
v 20.225 202.000 29.706 0.4431 0.4118 0.3529
v 7.725 202.000 35.155 0.4431 0.4118 0.3529
v -7.725 202.000 35.155 0.4431 0.4118 0.3529
v -20.225 202.000 29.706 0.4431 0.4118 0.3529
v -25.000 202.000 20.889 0.4431 0.4118 0.3529
v -20.225 202.000 12.072 0.4431 0.4118 0.3529
v -7.725 202.000 6.623 0.4431 0.4118 0.3529
v 7.725 202.000 6.623 0.4431 0.4118 0.3529
v 20.225 202.000 12.072 0.4431 0.4118 0.3529
v 0.000 206.000 21.562 0.4706 0.4392 0.3765
v 16.989 160.000 25.257 0.4314 0.2353 0.2431
v 12.572 160.000 22.259 0.2078 0.0549 0.0745
v 21.843 186.000 29.621 0.4314 0.2353 0.2431
v 16.164 186.000 25.884 0.2078 0.0549 0.0745
v 20.225 202.000 29.706 0.4314 0.2353 0.2431
v 14.967 202.000 26.708 0.2078 0.0549 0.0745
v 6.489 160.000 30.706 0.4314 0.2353 0.2431
v 4.802 160.000 25.855 0.2078 0.0549 0.0745
v 8.343 186.000 35.797 0.4314 0.2353 0.2431
v 6.174 186.000 29.960 0.2078 0.0549 0.0745
v 7.725 202.000 35.155 0.4314 0.2353 0.2431
v 5.717 202.000 30.304 0.2078 0.0549 0.0745
v -6.489 160.000 30.706 0.4314 0.2353 0.2431
v -4.802 160.000 25.855 0.2078 0.0549 0.0745
v -8.343 186.000 35.797 0.4314 0.2353 0.2431
v -6.174 186.000 29.960 0.2078 0.0549 0.0745
v -7.725 202.000 35.155 0.4314 0.2353 0.2431
v -5.717 202.000 30.304 0.2078 0.0549 0.0745
v 1.000 160.000 12.440 0.1020 0.0471 0.0471
v 3.000 160.000 26.440 0.2039 0.0941 0.0941
v 2.414 170.500 10.275 0.1020 0.0471 0.0471
v 15.021 170.500 28.517 0.2039 0.0941 0.0941
v 3.000 181.000 10.066 0.1020 0.0471 0.0471
v 20.000 181.000 30.066 0.2039 0.0941 0.0941
v 2.414 191.500 12.499 0.1020 0.0471 0.0471
v 15.021 191.500 30.742 0.2039 0.0941 0.0941
v 1.000 202.000 16.889 0.1020 0.0471 0.0471
v 3.000 202.000 30.889 0.2039 0.0941 0.0941
v 3.000 166.000 17.782 0.1882 0.0863 0.0863
v 6.455 166.000 22.538 0.1882 0.0863 0.0863
v 12.045 166.000 20.721 0.1882 0.0863 0.0863
v 12.045 166.000 14.843 0.1882 0.0863 0.0863
v 6.455 166.000 13.027 0.1882 0.0863 0.0863
v 0.229 175.333 18.509 0.2706 0.1255 0.1255
v 5.599 175.333 25.900 0.2706 0.1255 0.1255
v 14.287 175.333 23.077 0.2706 0.1255 0.1255
v 14.287 175.333 13.941 0.2706 0.1255 0.1255
v 5.599 175.333 11.118 0.2706 0.1255 0.1255
v 0.229 184.667 19.472 0.3686 0.1686 0.1686
v 5.599 184.667 26.863 0.3686 0.1686 0.1686
v 14.287 184.667 24.040 0.3686 0.1686 0.1686
v 14.287 184.667 14.904 0.3686 0.1686 0.1686
v 5.599 184.667 12.081 0.3686 0.1686 0.1686
v 3.000 194.000 20.672 0.4824 0.2235 0.2235
v 6.455 194.000 25.427 0.4824 0.2235 0.2235
v 12.045 194.000 23.611 0.4824 0.2235 0.2235
v 12.045 194.000 17.733 0.4824 0.2235 0.2235
v 6.455 194.000 15.917 0.4824 0.2235 0.2235
v 8.000 163.000 17.599 0.1725 0.0471 0.0627
v 8.000 195.000 20.815 0.4392 0.2039 0.2039
v 18.638 179.000 18.091 0.5020 0.4078 0.2314
v 16.791 182.931 20.022 0.5020 0.4078 0.2314
v 14.153 182.931 23.790 0.5020 0.4078 0.2314
v 13.362 179.000 25.628 0.5020 0.4078 0.2314
v 15.209 175.069 23.739 0.5020 0.4078 0.2314
v 17.847 175.069 19.970 0.5020 0.4078 0.2314
v 20.350 179.500 20.824 0.6000 0.6196 0.6431
v 18.985 182.406 22.251 0.6000 0.6196 0.6431
v 17.035 182.406 25.037 0.6000 0.6196 0.6431
v 16.450 179.500 26.395 0.6000 0.6196 0.6431
v 17.815 176.594 24.991 0.6000 0.6196 0.6431
v 19.765 176.594 22.206 0.6000 0.6196 0.6431
v 20.200 179.900 24.851 0.5725 0.5882 0.6118
v 13.891 163.189 21.610 0.1412 0.1373 0.1608
v 12.037 162.631 23.441 0.1412 0.1373 0.1608
v 10.109 162.811 21.588 0.1412 0.1373 0.1608
v 11.963 163.369 19.757 0.1412 0.1373 0.1608
v 14.993 149.149 19.069 0.1020 0.0275 0.0392
v 13.529 148.709 20.532 0.1020 0.0275 0.0392
v 12.007 148.851 19.064 0.1020 0.0275 0.0392
v 13.471 149.291 17.601 0.1020 0.0275 0.0392
v 18.391 163.189 21.610 0.1412 0.1373 0.1608
v 16.537 162.631 23.441 0.1412 0.1373 0.1608
v 14.609 162.811 21.588 0.1412 0.1373 0.1608
v 16.463 163.369 19.757 0.1412 0.1373 0.1608
v 19.493 149.149 19.069 0.1020 0.0275 0.0392
v 18.029 148.709 20.532 0.1020 0.0275 0.0392
v 16.507 148.851 19.064 0.1020 0.0275 0.0392
v 17.971 149.291 17.601 0.1020 0.0275 0.0392
v 17.540 167.880 14.910 0.3529 0.1843 0.1725
v 20.540 166.680 16.027 0.2706 0.1412 0.1333
v 19.040 163.880 14.200 0.2353 0.1294 0.1176
v 16.729 167.411 20.524 0.4667 0.3137 0.2902
v 19.729 166.286 21.648 0.3569 0.2431 0.2196
v 18.229 163.661 19.834 0.2784 0.1529 0.1412
v 14.506 166.255 25.906 0.5961 0.4745 0.4275
v 17.506 165.205 27.038 0.4588 0.3647 0.3294
v 16.006 162.755 25.242 0.3216 0.1725 0.1608
v 11.466 164.411 30.373 0.7373 0.6627 0.5961
v 14.466 163.436 31.515 0.5686 0.5098 0.4549
v 12.966 161.161 29.740 0.3608 0.1961 0.1804
v 8.500 161.880 33.477 0.8784 0.8431 0.7529
v 11.500 160.980 34.629 0.6745 0.6471 0.5765
v 10.000 158.880 32.877 0.4039 0.2196 0.2000
v 19.300 175.214 15.498 0.3529 0.1843 0.1725
v 22.300 174.014 16.592 0.2706 0.1412 0.1333
v 20.800 171.214 14.709 0.2353 0.1294 0.1176
v 18.355 174.783 21.627 0.4667 0.3137 0.2902
v 21.355 173.658 22.729 0.3569 0.2431 0.2196
v 19.855 171.033 20.862 0.2784 0.1529 0.1412
v 15.751 173.739 27.437 0.5961 0.4745 0.4275
v 18.751 172.689 28.548 0.4588 0.3647 0.3294
v 17.251 170.239 26.702 0.3216 0.1725 0.1608
v 12.140 172.083 32.177 0.7373 0.6627 0.5961
v 15.140 171.108 33.298 0.5686 0.5098 0.4549
v 13.640 168.833 31.476 0.3608 0.1961 0.1804
v 8.500 169.814 35.351 0.8784 0.8431 0.7529
v 11.500 168.914 36.484 0.6745 0.6471 0.5765
v 10.000 166.814 34.686 0.4039 0.2196 0.2000
v 21.060 181.123 16.079 0.3529 0.1843 0.1725
v 24.060 179.923 17.153 0.2706 0.1412 0.1333
v 22.560 177.123 15.225 0.2353 0.1294 0.1176
v 19.981 180.729 22.725 0.4667 0.3137 0.2902
v 22.981 179.604 23.808 0.3569 0.2431 0.2196
v 21.481 176.979 21.900 0.2784 0.1529 0.1412
v 16.995 179.798 28.971 0.5961 0.4745 0.4275
v 19.995 178.748 30.064 0.4588 0.3647 0.3294
v 18.495 176.298 28.178 0.3216 0.1725 0.1608
v 12.813 178.329 33.997 0.7373 0.6627 0.5961
v 15.813 177.354 35.102 0.5686 0.5098 0.4549
v 14.313 175.079 33.240 0.3608 0.1961 0.1804
v 8.500 176.323 37.260 0.8784 0.8431 0.7529
v 11.500 175.423 38.377 0.6745 0.6471 0.5765
v 10.000 173.323 36.542 0.4039 0.2196 0.2000
v 20.180 185.997 16.629 0.3529 0.1843 0.1725
v 23.180 184.797 17.687 0.2706 0.1412 0.1333
v 21.680 181.997 15.723 0.2353 0.1294 0.1176
v 19.168 185.641 23.014 0.4667 0.3137 0.2902
v 22.168 184.516 24.083 0.3569 0.2431 0.2196
v 20.668 181.891 22.139 0.2784 0.1529 0.1412
v 16.373 184.822 29.040 0.5961 0.4745 0.4275
v 19.373 183.772 30.119 0.4588 0.3647 0.3294
v 17.873 181.322 28.199 0.3216 0.1725 0.1608
v 12.476 183.541 33.920 0.7373 0.6627 0.5961
v 15.476 182.566 35.011 0.5686 0.5098 0.4549
v 13.976 180.291 33.117 0.3608 0.1961 0.1804
v 8.500 181.797 37.131 0.8784 0.8431 0.7529
v 11.500 180.897 38.235 0.6745 0.6471 0.5765
v 10.000 178.797 36.369 0.4039 0.2196 0.2000
v 18.420 191.549 17.334 0.3529 0.1843 0.1725
v 21.420 190.349 18.375 0.2706 0.1412 0.1333
v 19.920 187.549 16.367 0.2353 0.1294 0.1176
v 17.542 191.230 23.199 0.4667 0.3137 0.2902
v 20.542 190.105 24.250 0.3569 0.2431 0.2196
v 19.042 187.480 22.266 0.2784 0.1529 0.1412
v 15.128 190.524 28.785 0.5961 0.4745 0.4275
v 18.128 189.474 29.849 0.4588 0.3647 0.3294
v 16.628 187.024 27.891 0.3216 0.1725 0.1608
v 11.803 189.430 33.375 0.7373 0.6627 0.5961
v 14.803 188.455 34.450 0.5686 0.5098 0.4549
v 13.303 186.180 32.520 0.3608 0.1961 0.1804
v 16.660 198.625 18.354 0.3529 0.1843 0.1725
v 19.660 197.425 19.372 0.2706 0.1412 0.1333
v 18.160 194.625 17.311 0.2353 0.1294 0.1176
v 15.916 198.343 23.698 0.4667 0.3137 0.2902
v 18.916 197.218 24.728 0.3569 0.2431 0.2196
v 17.416 194.593 22.693 0.2784 0.1529 0.1412
v 13.884 197.750 28.847 0.5961 0.4745 0.4275
v 16.884 196.700 29.890 0.4588 0.3647 0.3294
v 15.384 194.250 27.884 0.3216 0.1725 0.1608
v 11.129 196.843 33.148 0.7373 0.6627 0.5961
v 14.129 195.868 34.204 0.5686 0.5098 0.4549
v 12.629 193.593 32.228 0.3608 0.1961 0.1804
v 8.500 195.625 36.165 0.8784 0.8431 0.7529
v 11.500 194.725 37.235 0.6745 0.6471 0.5765
v 10.000 192.625 35.290 0.4039 0.2196 0.2000
v 2.000 171.760 21.203 0.5725 0.5882 0.6118
v 17.000 172.560 30.268 0.5725 0.5882 0.6118
v 17.000 170.360 30.092 0.4000 0.4118 0.4275
v 2.000 169.560 21.031 0.4000 0.4118 0.4275
v 16.200 174.360 29.622 0.5725 0.5882 0.6118
v 19.400 173.760 31.170 0.4706 0.4824 0.5020
v 19.400 169.760 30.847 0.6902 0.7059 0.7216
v 16.200 169.160 29.202 0.8078 0.8235 0.8392
v 2.000 191.080 23.271 0.5725 0.5882 0.6118
v 17.000 191.880 32.379 0.5725 0.5882 0.6118
v 17.000 189.680 32.087 0.4000 0.4118 0.4275
v 2.000 188.880 22.985 0.4000 0.4118 0.4275
v 16.200 193.680 31.827 0.5725 0.5882 0.6118
v 19.400 193.080 33.343 0.4706 0.4824 0.5020
v 19.400 189.080 32.810 0.6902 0.7059 0.7216
v 16.200 188.480 31.134 0.8078 0.8235 0.8392
v 5.000 188.000 2.874 0.5137 0.5294 0.5490
v 0.000 185.000 6.511 0.5137 0.5294 0.5490
v -5.000 188.000 2.874 0.5137 0.5294 0.5490
v -0.000 191.000 -0.739 0.5137 0.5294 0.5490
v 4.250 178.400 -5.401 0.4118 0.4235 0.4392
v 0.000 175.850 -2.244 0.4118 0.4235 0.4392
v -4.250 178.400 -5.401 0.4118 0.4235 0.4392
v -0.000 180.950 -8.540 0.4118 0.4235 0.4392
v 4.760 174.873 -5.732 0.2392 0.2549 0.2745
v 0.000 171.235 -2.970 0.2392 0.2549 0.2745
v -4.760 174.873 -5.732 0.2392 0.2549 0.2745
v -0.000 178.512 -8.459 0.2392 0.2549 0.2745
v 4.046 168.800 -13.425 0.1922 0.2039 0.2196
v 0.000 165.707 -11.028 0.1922 0.2039 0.2196
v -4.046 168.800 -13.425 0.1922 0.2039 0.2196
v -0.000 171.893 -15.795 0.1922 0.2039 0.2196
v 4.520 163.094 -13.796 0.5137 0.5294 0.5490
v 0.000 159.118 -11.852 0.5137 0.5294 0.5490
v -4.520 163.094 -13.796 0.5137 0.5294 0.5490
v -0.000 167.070 -15.697 0.5137 0.5294 0.5490
v 3.842 159.200 -21.198 0.4118 0.4235 0.4392
v 0.000 155.821 -19.513 0.4118 0.4235 0.4392
v -3.842 159.200 -21.198 0.4118 0.4235 0.4392
v -0.000 162.579 -22.852 0.4118 0.4235 0.4392
v 4.280 153.494 -21.421 0.2392 0.2549 0.2745
v 0.000 149.729 -19.483 0.2392 0.2549 0.2745
v -4.280 153.494 -21.421 0.2392 0.2549 0.2745
v -0.000 157.258 -23.320 0.2392 0.2549 0.2745
v 3.638 149.600 -28.722 0.1922 0.2039 0.2196
v 0.000 146.400 -27.043 0.1922 0.2039 0.2196
v -3.638 149.600 -28.722 0.1922 0.2039 0.2196
v -0.000 152.800 -30.372 0.1922 0.2039 0.2196
v 4.040 146.073 -28.777 0.5137 0.5294 0.5490
v 0.000 142.985 -26.194 0.5137 0.5294 0.5490
v -4.040 146.073 -28.777 0.5137 0.5294 0.5490
v -0.000 149.161 -31.335 0.5137 0.5294 0.5490
v 3.434 140.000 -36.000 0.4118 0.4235 0.4392
v 0.000 137.375 -33.786 0.4118 0.4235 0.4392
v -3.434 140.000 -36.000 0.4118 0.4235 0.4392
v -0.000 142.625 -38.214 0.4118 0.4235 0.4392
v -9.147 206.000 10.636 0.2039 0.1961 0.2275
v -6.732 207.037 7.597 0.2039 0.1961 0.2275
v -5.121 204.963 10.458 0.2039 0.1961 0.2275
v -17.647 173.000 -10.622 0.1647 0.1569 0.1804
v -15.232 174.037 -13.754 0.1647 0.1569 0.1804
v -13.621 171.963 -10.707 0.1647 0.1569 0.1804
v -17.737 173.000 -12.565 0.2039 0.1961 0.2275
v -13.659 173.584 -13.070 0.2039 0.1961 0.2275
v -15.105 172.416 -9.450 0.2039 0.1961 0.2275
v -14.237 140.000 -22.870 0.1647 0.1569 0.1804
v -10.159 140.584 -23.424 0.1647 0.1569 0.1804
v -11.605 139.416 -19.706 0.1647 0.1569 0.1804
v 4.853 206.000 8.489 0.2039 0.1961 0.2275
v 8.879 207.037 8.670 0.2039 0.1961 0.2275
v 7.268 204.963 11.531 0.2039 0.1961 0.2275
v 13.353 173.000 -12.768 0.1647 0.1569 0.1804
v 17.379 174.037 -12.680 0.1647 0.1569 0.1804
v 15.768 171.963 -9.633 0.1647 0.1569 0.1804
v 13.263 173.000 -10.825 0.2039 0.1961 0.2275
v 15.895 173.584 -13.939 0.2039 0.1961 0.2275
v 17.341 172.416 -10.319 0.2039 0.1961 0.2275
v 9.763 140.000 -21.130 0.1647 0.1569 0.1804
v 12.395 140.584 -24.294 0.1647 0.1569 0.1804
v 13.841 139.416 -20.576 0.1647 0.1569 0.1804
v 6.475 204.693 18.917 0.1804 0.1882 0.2039
v 5.673 204.193 21.849 0.2039 0.2157 0.2353
v 3.428 203.725 23.978 0.3137 0.1686 0.1765
v 0.342 203.415 24.735 0.5451 0.5137 0.4471
v -2.760 203.346 23.915 0.5294 0.4980 0.4314
v -5.045 203.537 21.739 0.4863 0.4549 0.3961
v -5.902 203.936 18.789 0.4275 0.4000 0.3490
v -5.100 204.437 15.857 0.4275 0.4000 0.3490
v -2.855 204.905 13.729 0.4275 0.4000 0.3490
v 0.232 205.215 12.973 0.4275 0.4000 0.3490
v 3.333 205.284 13.794 0.2510 0.1373 0.1412
v 5.618 205.093 15.969 0.1804 0.1882 0.2039
v 5.460 211.464 21.859 0.1804 0.1882 0.2039
v 4.738 210.983 24.687 0.2039 0.2157 0.2353
v 2.711 210.539 26.739 0.3137 0.1686 0.1765
v -0.077 210.251 27.468 0.5451 0.5137 0.4471
v -2.878 210.197 26.676 0.5294 0.4980 0.4314
v -4.944 210.391 24.576 0.4863 0.4549 0.3961
v -5.719 210.780 21.731 0.4275 0.4000 0.3490
v -4.997 211.261 18.904 0.4275 0.4000 0.3490
v -2.971 211.705 16.851 0.4275 0.4000 0.3490
v -0.183 211.992 16.124 0.4275 0.4000 0.3490
v 2.619 212.047 16.916 0.2510 0.1373 0.1412
v 4.684 211.853 19.015 0.1804 0.1882 0.2039
v 5.536 216.766 25.407 0.2078 0.2196 0.2392
v 4.767 216.171 28.946 0.2392 0.2510 0.2706
v 2.600 215.637 31.518 0.2588 0.2745 0.2980
v -0.386 215.307 32.432 0.6353 0.5961 0.5176
v -3.389 215.271 31.445 0.6157 0.5804 0.5020
v -5.606 215.536 28.819 0.5647 0.5294 0.4588
v -6.441 216.033 25.259 0.4941 0.4667 0.4039
v -5.672 216.628 21.720 0.4941 0.4667 0.4039
v -3.505 217.162 19.149 0.4941 0.4667 0.4039
v -0.519 217.491 18.236 0.4941 0.4667 0.4039
v 2.484 217.528 19.224 0.2078 0.2196 0.2392
v 4.701 217.262 21.849 0.2078 0.2196 0.2392
v 6.403 222.243 26.864 0.3294 0.3412 0.3608
v 5.479 221.550 30.966 0.3765 0.3922 0.4118
v 2.877 220.925 33.945 0.2588 0.2745 0.2980
v -0.706 220.535 35.001 0.7686 0.7373 0.6588
v -4.309 220.485 33.851 0.6157 0.5804 0.5020
v -6.968 220.789 30.802 0.5647 0.5294 0.4588
v -7.970 221.364 26.673 0.6000 0.5765 0.5137
v -7.046 222.057 22.570 0.6000 0.5765 0.5137
v -4.444 222.683 19.594 0.4941 0.4667 0.4039
v -0.861 223.073 18.540 0.4941 0.4667 0.4039
v 2.743 223.122 19.690 0.2078 0.2196 0.2392
v 5.402 222.819 22.737 0.3294 0.3412 0.3608
v 7.094 227.329 28.153 0.3294 0.3412 0.3608
v 6.039 226.583 32.530 0.3765 0.3922 0.4118
v 3.074 225.903 35.705 0.2588 0.2745 0.2980
v -1.007 225.471 36.826 0.3765 0.2039 0.2118
v -5.111 225.402 35.591 0.7451 0.7137 0.6392
v -8.137 225.716 32.332 0.6824 0.6549 0.5882
v -9.275 226.327 27.922 0.6000 0.5765 0.5137
v -8.220 227.073 23.544 0.6000 0.5765 0.5137
v -5.255 227.753 20.371 0.6000 0.5765 0.5137
v -1.173 228.185 19.253 0.2941 0.1608 0.1647
v 2.930 228.254 20.488 0.2078 0.2196 0.2392
v 5.956 227.940 23.745 0.3294 0.3412 0.3608
v 6.462 232.744 29.554 0.3294 0.3412 0.3608
v 5.472 231.594 33.659 0.3373 0.3529 0.3686
v 2.590 231.353 36.922 0.4118 0.4275 0.4510
v -1.342 230.934 38.013 0.2667 0.2824 0.3059
v -5.295 230.871 36.805 0.7451 0.7137 0.6392
v -8.154 230.243 33.256 0.6157 0.5882 0.5294
v -9.308 231.780 29.317 0.6000 0.5765 0.5137
v -8.292 232.508 25.045 0.6000 0.5765 0.5137
v -5.436 233.171 21.950 0.6000 0.5765 0.5137
v -1.504 233.590 20.862 0.2078 0.2196 0.2392
v 2.450 233.653 22.070 0.3294 0.3412 0.3608
v 5.365 233.344 25.251 0.3294 0.3412 0.3608
v 4.187 238.827 30.818 0.3294 0.3412 0.3608
v 3.417 238.247 34.226 0.3765 0.3922 0.4118
v 1.249 237.724 36.696 0.4118 0.4275 0.4510
v -1.737 237.399 37.566 0.2667 0.2824 0.3059
v -4.740 237.358 36.601 0.3647 0.1961 0.2039
v -6.956 237.613 34.061 0.6824 0.6549 0.5882
v -7.791 238.095 30.626 0.6000 0.5765 0.5137
v -7.021 238.675 27.217 0.6000 0.5765 0.5137
v -4.853 239.198 24.749 0.2941 0.1608 0.1647
v -1.867 239.523 23.881 0.2078 0.2196 0.2392
v 1.136 239.564 24.845 0.3294 0.3412 0.3608
v 3.352 239.309 27.384 0.3294 0.3412 0.3608
v 6.835 222.270 26.869 0.3294 0.3412 0.3608
v 5.855 221.535 31.218 0.3765 0.3922 0.4118
v 3.097 220.872 34.375 0.2588 0.2745 0.2980
v -0.701 220.459 35.495 0.7686 0.7373 0.6588
v -4.521 220.406 34.276 0.6157 0.5804 0.5020
v -7.339 220.728 31.044 0.5647 0.5294 0.4588
v -8.401 221.338 26.667 0.6000 0.5765 0.5137
v -7.421 222.073 22.319 0.6000 0.5765 0.5137
v -4.663 222.735 19.163 0.4941 0.4667 0.4039
v -0.865 223.149 18.046 0.4941 0.4667 0.4039
v 2.955 223.201 19.266 0.2078 0.2196 0.2392
v 5.773 222.880 22.495 0.3294 0.3412 0.3608
v 5.536 216.766 25.407 0.2078 0.2196 0.2392
v 4.767 216.171 28.946 0.2392 0.2510 0.2706
v 2.600 215.637 31.518 0.2588 0.2745 0.2980
v -0.386 215.307 32.432 0.6353 0.5961 0.5176
v -3.389 215.271 31.445 0.6157 0.5804 0.5020
v -5.606 215.536 28.819 0.5647 0.5294 0.4588
v -6.441 216.033 25.259 0.4941 0.4667 0.4039
v -5.672 216.628 21.720 0.4941 0.4667 0.4039
v -3.505 217.162 19.149 0.4941 0.4667 0.4039
v -0.519 217.491 18.236 0.4941 0.4667 0.4039
v 2.484 217.528 19.224 0.2078 0.2196 0.2392
v 4.701 217.262 21.849 0.2078 0.2196 0.2392
v 5.795 211.484 21.863 0.1804 0.1882 0.2039
v 5.030 210.974 24.860 0.2039 0.2157 0.2353
v 2.882 210.504 27.036 0.2235 0.2353 0.2549
v -0.073 210.199 27.808 0.5451 0.5137 0.4471
v -3.043 210.142 26.969 0.5294 0.4980 0.4314
v -5.233 210.347 24.743 0.4863 0.4549 0.3961
v -6.055 210.759 21.727 0.4275 0.4000 0.3490
v -5.289 211.269 18.730 0.4275 0.4000 0.3490
v -3.141 211.740 16.555 0.4275 0.4000 0.3490
v -0.186 212.045 15.784 0.4275 0.4000 0.3490
v 2.784 212.102 16.624 0.1804 0.1882 0.2039
v 4.973 211.897 18.849 0.1804 0.1882 0.2039
v -1.963 241.091 30.702 0.5020 0.5176 0.5373
v -6.019 214.848 33.111 1.0000 1.0000 1.0000
v -2.384 214.831 34.704 1.0000 1.0000 1.0000
v 1.238 215.041 34.822 1.0000 1.0000 1.0000
v 4.985 215.491 33.437 1.0000 1.0000 1.0000
v -7.372 219.823 34.173 1.0000 1.0000 1.0000
v -3.055 219.668 36.944 1.0000 1.0000 1.0000
v 1.238 219.911 37.121 1.0000 1.0000 1.0000
v 5.672 220.564 34.709 1.0000 1.0000 1.0000
v -8.638 224.958 34.310 0.6196 0.6196 0.6196
v -3.711 224.817 37.236 0.6196 0.6196 0.6196
v 1.205 224.869 38.909 0.8196 0.8196 0.8196
v 6.258 225.765 35.189 0.8196 0.8196 0.8196
v -8.702 229.394 36.372 0.7412 0.7412 0.7412
v -3.849 228.302 40.458 0.7412 0.7412 0.7412
v 0.863 229.503 41.099 0.7412 0.7412 0.7412
v 5.754 230.782 37.428 0.7412 0.7412 0.7412
v -6.019 214.848 33.111 1.0000 1.0000 1.0000
v -2.384 214.831 34.704 1.0000 1.0000 1.0000
v -3.055 219.668 36.944 1.0000 1.0000 1.0000
v -7.372 219.823 34.173 1.0000 1.0000 1.0000
v -2.384 214.831 34.704 1.0000 1.0000 1.0000
v 1.238 215.041 34.822 1.0000 1.0000 1.0000
v 1.238 219.911 37.121 1.0000 1.0000 1.0000
v -3.055 219.668 36.944 1.0000 1.0000 1.0000
v 1.238 215.041 34.822 1.0000 1.0000 1.0000
v 4.985 215.491 33.437 1.0000 1.0000 1.0000
v 5.672 220.564 34.709 1.0000 1.0000 1.0000
v 1.238 219.911 37.121 1.0000 1.0000 1.0000
v 5.113 226.237 38.523 0.2118 0.2275 0.2431
v 4.381 227.755 38.990 0.2118 0.2275 0.2431
v 2.828 228.356 38.848 0.2118 0.2275 0.2431
v 1.365 227.690 38.176 0.2118 0.2275 0.2431
v 0.848 226.145 37.372 0.2118 0.2275 0.2431
v 1.580 224.628 36.911 0.2118 0.2275 0.2431
v 3.133 224.026 37.059 0.2118 0.2275 0.2431
v 4.597 224.693 37.724 0.2118 0.2275 0.2431
v 4.635 226.011 39.512 0.5725 0.5882 0.6118
v 3.969 227.391 39.935 0.5725 0.5882 0.6118
v 2.558 227.938 39.806 0.5725 0.5882 0.6118
v 1.227 227.332 39.195 0.5725 0.5882 0.6118
v 0.757 225.928 38.466 0.5725 0.5882 0.6118
v 1.423 224.548 38.047 0.5725 0.5882 0.6118
v 2.835 224.001 38.182 0.5725 0.5882 0.6118
v 4.165 224.607 38.787 0.5725 0.5882 0.6118
v 4.128 226.057 39.083 0.0863 0.0863 0.0941
v 3.661 227.022 39.379 0.0863 0.0863 0.0941
v 2.673 227.405 39.288 0.0863 0.0863 0.0941
v 1.742 226.981 38.861 0.0863 0.0863 0.0941
v 1.413 225.998 38.351 0.0863 0.0863 0.0941
v 1.879 225.032 38.057 0.0863 0.0863 0.0941
v 2.867 224.650 38.151 0.0863 0.0863 0.0941
v 3.799 225.074 38.575 0.0863 0.0863 0.0941
v 4.149 226.132 38.700 0.7765 0.1569 0.1333
v 3.709 227.043 38.979 0.7765 0.1569 0.1333
v 2.778 227.404 38.893 0.7765 0.1569 0.1333
v 1.900 227.004 38.491 0.7765 0.1569 0.1333
v 1.589 226.077 38.009 0.7765 0.1569 0.1333
v 2.029 225.166 37.732 0.7765 0.1569 0.1333
v 2.961 224.805 37.820 0.7765 0.1569 0.1333
v 3.839 225.205 38.221 0.7765 0.1569 0.1333
v 2.869 226.104 38.355 0.7765 0.1569 0.1333
v 6.224 221.214 35.626 0.2118 0.2275 0.2431
v 5.777 222.122 35.878 0.2118 0.2275 0.2431
v 4.893 222.505 35.649 0.2118 0.2275 0.2431
v 4.089 222.140 35.070 0.2118 0.2275 0.2431
v 3.838 221.240 34.483 0.2118 0.2275 0.2431
v 4.285 220.333 34.233 0.2118 0.2275 0.2431
v 5.170 219.949 34.465 0.2118 0.2275 0.2431
v 5.973 220.314 35.041 0.2118 0.2275 0.2431
v 5.632 220.915 36.508 0.5725 0.5882 0.6118
v 5.225 221.740 36.737 0.5725 0.5882 0.6118
v 4.421 222.089 36.528 0.5725 0.5882 0.6118
v 3.691 221.757 36.003 0.5725 0.5882 0.6118
v 3.462 220.939 35.470 0.5725 0.5882 0.6118
v 3.869 220.114 35.243 0.5725 0.5882 0.6118
v 4.673 219.765 35.454 0.5725 0.5882 0.6118
v 5.403 220.097 35.977 0.5725 0.5882 0.6118
v 5.433 220.997 36.109 0.0863 0.0863 0.0941
v 5.148 221.575 36.269 0.0863 0.0863 0.0941
v 4.585 221.819 36.122 0.0863 0.0863 0.0941
v 4.074 221.586 35.755 0.0863 0.0863 0.0941
v 3.914 221.014 35.382 0.0863 0.0863 0.0941
v 4.199 220.436 35.222 0.0863 0.0863 0.0941
v 4.762 220.192 35.370 0.0863 0.0863 0.0941
v 5.273 220.424 35.737 0.0863 0.0863 0.0941
v 5.558 221.102 35.763 0.7765 0.1569 0.1333
v 5.289 221.646 35.914 0.7765 0.1569 0.1333
v 4.759 221.877 35.776 0.7765 0.1569 0.1333
v 4.277 221.658 35.429 0.7765 0.1569 0.1333
v 4.126 221.118 35.077 0.7765 0.1569 0.1333
v 4.394 220.573 34.927 0.7765 0.1569 0.1333
v 4.925 220.343 35.066 0.7765 0.1569 0.1333
v 5.407 220.562 35.412 0.7765 0.1569 0.1333
v 4.842 221.110 35.420 0.7765 0.1569 0.1333
v -1.610 216.361 32.208 0.4863 0.5020 0.5216
v 4.180 216.716 32.280 0.5725 0.5882 0.6118
v 4.085 218.261 33.738 0.5725 0.5882 0.6118
v -1.704 217.907 33.665 0.4863 0.5020 0.5216
v -2.641 220.162 34.254 0.4863 0.5020 0.5216
v 3.149 220.516 34.329 0.5725 0.5882 0.6118
v 3.054 222.062 35.803 0.5725 0.5882 0.6118
v -2.735 221.707 35.726 0.4863 0.5020 0.5216
v -3.752 223.551 35.578 0.4863 0.5020 0.5216
v 2.037 223.905 35.657 0.5725 0.5882 0.6118
v 1.943 225.451 37.145 0.5725 0.5882 0.6118
v -3.846 225.097 37.065 0.4863 0.5020 0.5216
v -4.965 227.016 36.404 0.4863 0.5020 0.5216
v 0.824 227.370 36.486 0.5725 0.5882 0.6118
v 0.729 228.916 37.989 0.5725 0.5882 0.6118
v -5.060 228.562 37.905 0.4863 0.5020 0.5216
v -5.966 230.031 36.865 0.4863 0.5020 0.5216
v -0.176 230.385 36.950 0.5725 0.5882 0.6118
v -0.271 231.931 38.465 0.5725 0.5882 0.6118
v -6.060 231.577 38.379 0.4863 0.5020 0.5216
v -6.688 233.212 36.399 0.4863 0.5020 0.5216
v -0.899 233.566 36.487 0.5725 0.5882 0.6118
v -0.994 235.111 38.016 0.5725 0.5882 0.6118
v -6.783 234.757 37.927 0.4863 0.5020 0.5216
v -15.616 198.603 20.351 0.4235 0.3961 0.3373
v -19.676 200.092 27.900 0.4235 0.3961 0.3373
v -28.060 201.490 28.123 0.4235 0.3961 0.3373
v -32.384 201.397 20.791 0.4235 0.3961 0.3373
v -28.324 199.908 13.236 0.4235 0.3961 0.3373
v -19.940 198.510 13.019 0.4235 0.3961 0.3373
v -23.588 162.931 20.595 0.4980 0.5137 0.4784
v -26.693 164.071 26.257 0.4980 0.5137 0.4784
v -33.105 165.139 26.323 0.4980 0.5137 0.4784
v -36.412 165.069 20.723 0.4980 0.5137 0.4784
v -33.307 163.929 15.057 0.4980 0.5137 0.4784
v -26.895 162.861 14.995 0.4980 0.5137 0.4784
v -24.000 200.000 20.568 0.4706 0.4392 0.3765
v -23.113 163.570 20.632 0.4980 0.5137 0.4784
v -26.426 165.875 26.371 0.4980 0.5137 0.4784
v -33.313 166.306 26.399 0.4980 0.5137 0.4784
v -36.887 164.430 20.683 0.4980 0.5137 0.4784
v -33.574 162.125 14.954 0.4980 0.5137 0.4784
v -26.687 161.694 14.930 0.4980 0.5137 0.4784
v -26.010 147.688 26.044 0.3804 0.3961 0.4157
v -28.410 149.359 30.129 0.3804 0.3961 0.4157
v -33.400 149.671 30.135 0.3804 0.3961 0.4157
v -35.990 148.312 26.054 0.3804 0.3961 0.4157
v -33.590 146.641 21.974 0.3804 0.3961 0.4157
v -28.600 146.329 21.970 0.3804 0.3961 0.4157
v -35.900 135.000 22.800 0.4118 0.4235 0.4392
v -31.300 135.000 22.800 0.4118 0.4235 0.4392
v -31.300 135.000 29.200 0.4118 0.4235 0.4392
v -35.900 135.000 29.200 0.4118 0.4235 0.4392
v -35.900 147.000 22.834 0.5725 0.5882 0.6118
v -31.300 147.000 22.834 0.5725 0.5882 0.6118
v -31.300 147.000 29.234 0.5725 0.5882 0.6118
v -35.900 147.000 29.234 0.5725 0.5882 0.6118
v -30.700 135.000 22.800 0.3059 0.3176 0.3333
v -26.100 135.000 22.800 0.3059 0.3176 0.3333
v -26.100 135.000 29.200 0.3059 0.3176 0.3333
v -30.700 135.000 29.200 0.3059 0.3176 0.3333
v -30.700 147.000 22.834 0.4235 0.4392 0.4627
v -26.100 147.000 22.834 0.4235 0.4392 0.4627
v -26.100 147.000 29.234 0.4235 0.4392 0.4627
v -30.700 147.000 29.234 0.4235 0.4392 0.4627
v 32.274 201.947 20.880 0.4235 0.3961 0.3373
v 27.852 202.187 28.174 0.4235 0.3961 0.3373
v 19.578 200.240 27.861 0.4235 0.3961 0.3373
v 15.726 198.053 20.267 0.4235 0.3961 0.3373
v 20.148 197.813 12.975 0.4235 0.3961 0.3373
v 28.422 199.760 13.276 0.4235 0.3961 0.3373
v 37.841 167.374 22.874 0.4627 0.4745 0.4431
v 34.719 167.543 28.007 0.4627 0.4745 0.4431
v 28.878 166.169 27.914 0.4627 0.4745 0.4431
v 26.159 164.626 22.695 0.4627 0.4745 0.4431
v 29.281 164.457 17.564 0.4627 0.4745 0.4431
v 35.122 165.831 17.650 0.4627 0.4745 0.4431
v 24.000 200.000 20.568 0.4706 0.4392 0.3765
v 39.822 166.000 21.106 0.3373 0.1843 0.1922
v 36.993 170.620 27.323 0.3373 0.1843 0.1922
v 29.171 170.620 28.999 0.3373 0.1843 0.1922
v 24.178 166.000 24.458 0.3373 0.1843 0.1922
v 27.007 161.380 18.300 0.3373 0.1843 0.1922
v 34.829 161.380 16.624 0.3373 0.1843 0.1922
v 42.249 160.880 24.974 0.5569 0.4549 0.2588
v 38.889 166.366 32.286 0.5569 0.4549 0.2588
v 29.600 166.366 34.276 0.5569 0.4549 0.2588
v 23.671 160.880 28.955 0.5569 0.4549 0.2588
v 27.031 155.394 21.724 0.5569 0.4549 0.2588
v 36.320 155.394 19.734 0.5569 0.4549 0.2588
v 43.320 152.560 32.026 0.5216 0.4275 0.2431
v 40.137 157.758 38.834 0.5216 0.4275 0.2431
v 31.337 157.758 40.719 0.5216 0.4275 0.2431
v 25.720 152.560 35.797 0.5216 0.4275 0.2431
v 28.903 147.362 29.063 0.5216 0.4275 0.2431
v 37.703 147.362 27.177 0.5216 0.4275 0.2431
v 43.069 158.401 31.065 0.5725 0.5882 0.6118
v 43.019 154.164 30.671 0.5725 0.5882 0.6118
v 42.132 154.399 26.537 0.5725 0.5882 0.6118
v 42.181 158.636 26.934 0.5725 0.5882 0.6118
v 46.002 158.401 30.437 0.4588 0.4706 0.4902
v 45.953 154.164 30.043 0.4588 0.4706 0.4902
v 45.065 154.399 25.908 0.4588 0.4706 0.4902
v 45.114 158.636 26.305 0.4588 0.4706 0.4902
v 46.511 156.400 27.958 0.2667 0.2824 0.3059
v 34.324 152.560 33.953 0.2745 0.2824 0.3020
v 32.768 155.101 37.272 0.2745 0.2824 0.3020
v 28.466 155.101 38.194 0.2745 0.2824 0.3020
v 25.720 152.560 35.797 0.2745 0.2824 0.3020
v 27.276 150.019 32.496 0.2745 0.2824 0.3020
v 31.578 150.019 31.574 0.2745 0.2824 0.3020
v 37.609 134.000 50.084 0.3373 0.3451 0.3725
v 36.123 136.426 53.174 0.3373 0.3451 0.3725
v 32.017 136.426 54.054 0.3373 0.3451 0.3725
v 29.395 134.000 51.844 0.3373 0.3451 0.3725
v 30.881 131.574 48.754 0.3373 0.3451 0.3725
v 34.988 131.574 47.873 0.3373 0.3451 0.3725
v 33.558 133.702 51.225 0.0549 0.0471 0.0549
v 43.320 152.560 32.026 0.2745 0.2824 0.3020
v 41.764 155.101 35.345 0.2745 0.2824 0.3020
v 37.462 155.101 36.267 0.2745 0.2824 0.3020
v 34.716 152.560 33.870 0.2745 0.2824 0.3020
v 36.272 150.019 30.568 0.2745 0.2824 0.3020
v 40.574 150.019 29.646 0.2745 0.2824 0.3020
v 46.605 134.000 48.156 0.3373 0.3451 0.3725
v 45.119 136.426 51.246 0.3373 0.3451 0.3725
v 41.012 136.426 52.127 0.3373 0.3451 0.3725
v 38.391 134.000 49.916 0.3373 0.3451 0.3725
v 39.877 131.574 46.826 0.3373 0.3451 0.3725
v 43.983 131.574 45.946 0.3373 0.3451 0.3725
v 42.554 133.702 49.297 0.0549 0.0471 0.0549
v 41.953 143.394 52.224 0.2392 0.2549 0.2745
v 37.347 145.713 55.083 0.2392 0.2549 0.2745
v 36.586 141.076 51.515 0.2392 0.2549 0.2745
v 43.517 134.629 63.339 0.7686 0.7843 0.8000
v 40.147 135.400 66.225 0.7686 0.7843 0.8000
v 39.261 133.858 62.087 0.7686 0.7843 0.8000
v 42.134 119.450 69.292 0.8157 0.8314 0.8471
v 38.349 144.885 51.641 0.2667 0.2824 0.3059
v 32.798 134.505 44.820 0.2392 0.2549 0.2745
v 28.216 136.851 47.680 0.2392 0.2549 0.2745
v 27.306 133.320 43.056 0.2392 0.2549 0.2745
v 31.367 124.260 52.787 0.7686 0.7843 0.8000
v 28.099 125.078 55.775 0.7686 0.7843 0.8000
v 27.786 121.539 53.008 0.7686 0.7843 0.8000
v 36.729 114.448 64.735 0.8157 0.8314 0.8471
v 29.161 136.382 43.881 0.2667 0.2824 0.3059
v 47.048 135.279 41.058 0.2392 0.2549 0.2745
v 42.762 136.464 44.918 0.2392 0.2549 0.2745
v 41.697 132.933 40.326 0.2392 0.2549 0.2745
v 50.235 122.991 49.905 0.7686 0.7843 0.8000
v 46.877 125.713 51.171 0.7686 0.7843 0.8000
v 46.029 122.173 48.519 0.7686 0.7843 0.8000
v 45.197 114.448 62.920 0.8157 0.8314 0.8471
v 43.556 136.382 40.797 0.2667 0.2824 0.3059
vt 0.00000 0.75000
vt 0.12500 0.75000
vt 0.25000 0.75000
vt 0.37500 0.75000
vt 0.50000 0.75000
vt 0.62500 0.75000
vt 0.75000 0.75000
vt 0.87500 0.75000
vt 0.00000 0.50000
vt 0.12500 0.50000
vt 0.25000 0.50000
vt 0.37500 0.50000
vt 0.50000 0.50000
vt 0.62500 0.50000
vt 0.75000 0.50000
vt 0.87500 0.50000
vt 0.00000 0.25000
vt 0.12500 0.25000
vt 0.25000 0.25000
vt 0.37500 0.25000
vt 0.50000 0.25000
vt 0.62500 0.25000
vt 0.75000 0.25000
vt 0.87500 0.25000
vt 0.00000 0.00000
vt 0.12500 0.00000
vt 0.25000 0.00000
vt 0.37500 0.00000
vt 0.50000 0.00000
vt 0.62500 0.00000
vt 0.75000 0.00000
vt 0.87500 0.00000
vt 0.50000 0.50000
vt 0.50000 0.50000
vt 0.00000 1.00000
vt 0.00000 1.00000
vt 0.00000 1.00000
vt 0.00000 1.00000
vt 0.00000 1.00000
vt 0.00000 1.00000
vt 0.00000 1.00000
vt 0.00000 1.00000
vt 0.00000 1.00000
vt 0.16667 1.00000
vt 0.33333 1.00000
vt 0.50000 1.00000
vt 0.66667 1.00000
vt 0.83333 1.00000
vt 0.00000 1.00000
vt 0.16667 1.00000
vt 0.33333 1.00000
vt 0.50000 1.00000
vt 0.66667 1.00000
vt 0.83333 1.00000
vt 0.50000 0.50000
vt 0.00000 1.00000
vt 0.16667 1.00000
vt 0.33333 1.00000
vt 0.50000 1.00000
vt 0.66667 1.00000
vt 0.83333 1.00000
vt 0.00000 0.66667
vt 0.16667 0.66667
vt 0.33333 0.66667
vt 0.50000 0.66667
vt 0.66667 0.66667
vt 0.83333 0.66667
vt 0.50000 0.50000
vt 0.00000 0.66667
vt 0.16667 0.66667
vt 0.33333 0.66667
vt 0.50000 0.66667
vt 0.66667 0.66667
vt 0.83333 0.66667
vt 0.00000 0.33333
vt 0.16667 0.33333
vt 0.33333 0.33333
vt 0.50000 0.33333
vt 0.66667 0.33333
vt 0.83333 0.33333
vt 0.00000 1.00000
vt 0.25000 1.00000
vt 0.50000 1.00000
vt 0.75000 1.00000
vt 0.00000 1.00000
vt 0.25000 1.00000
vt 0.50000 1.00000
vt 0.75000 1.00000
vt 0.00000 0.33333
vt 0.16667 0.33333
vt 0.33333 0.33333
vt 0.50000 0.33333
vt 0.66667 0.33333
vt 0.83333 0.33333
vt 0.00000 0.00000
vt 0.16667 0.00000
vt 0.33333 0.00000
vt 0.50000 0.00000
vt 0.66667 0.00000
vt 0.83333 0.00000
vt 0.00000 1.00000
vt 0.33333 1.00000
vt 0.66667 1.00000
vt 0.50000 0.00000
vt 0.50000 0.00000
vt 0.50000 0.00000
vt 0.00000 1.00000
vt 0.16667 1.00000
vt 0.33333 1.00000
vt 0.50000 1.00000
vt 0.66667 1.00000
vt 0.83333 1.00000
vt 0.00000 0.66667
vt 0.16667 0.66667
vt 0.33333 0.66667
vt 0.50000 0.66667
vt 0.66667 0.66667
vt 0.83333 0.66667
vt 0.50000 0.50000
vt 0.00000 0.66667
vt 0.16667 0.66667
vt 0.33333 0.66667
vt 0.50000 0.66667
vt 0.66667 0.66667
vt 0.83333 0.66667
vt 0.00000 0.33333
vt 0.16667 0.33333
vt 0.33333 0.33333
vt 0.50000 0.33333
vt 0.66667 0.33333
vt 0.83333 0.33333
vt 0.00000 1.00000
vt 0.25000 1.00000
vt 0.50000 1.00000
vt 0.75000 1.00000
vt 0.00000 1.00000
vt 0.25000 1.00000
vt 0.50000 1.00000
vt 0.75000 1.00000
vt 0.00000 0.33333
vt 0.16667 0.33333
vt 0.33333 0.33333
vt 0.50000 0.33333
vt 0.66667 0.33333
vt 0.83333 0.33333
vt 0.00000 0.00000
vt 0.16667 0.00000
vt 0.33333 0.00000
vt 0.50000 0.00000
vt 0.66667 0.00000
vt 0.83333 0.00000
vt 0.00000 1.00000
vt 0.33333 1.00000
vt 0.66667 1.00000
vt 0.50000 0.00000
vt 0.50000 0.00000
vt 0.50000 0.00000
vt 0.00000 1.00000
vt 0.16667 1.00000
vt 0.33333 1.00000
vt 0.50000 1.00000
vt 0.66667 1.00000
vt 0.83333 1.00000
vt 0.00000 0.66667
vt 0.16667 0.66667
vt 0.33333 0.66667
vt 0.50000 0.66667
vt 0.66667 0.66667
vt 0.83333 0.66667
vt 0.50000 0.50000
vt 0.00000 0.66667
vt 0.16667 0.66667
vt 0.33333 0.66667
vt 0.50000 0.66667
vt 0.66667 0.66667
vt 0.83333 0.66667
vt 0.00000 0.33333
vt 0.16667 0.33333
vt 0.33333 0.33333
vt 0.50000 0.33333
vt 0.66667 0.33333
vt 0.83333 0.33333
vt 0.00000 1.00000
vt 0.25000 1.00000
vt 0.50000 1.00000
vt 0.75000 1.00000
vt 0.00000 1.00000
vt 0.25000 1.00000
vt 0.50000 1.00000
vt 0.75000 1.00000
vt 0.00000 0.33333
vt 0.16667 0.33333
vt 0.33333 0.33333
vt 0.50000 0.33333
vt 0.66667 0.33333
vt 0.83333 0.33333
vt 0.00000 0.00000
vt 0.16667 0.00000
vt 0.33333 0.00000
vt 0.50000 0.00000
vt 0.66667 0.00000
vt 0.83333 0.00000
vt 0.00000 1.00000
vt 0.33333 1.00000
vt 0.66667 1.00000
vt 0.50000 0.00000
vt 0.50000 0.00000
vt 0.50000 0.00000
vt 0.00000 1.00000
vt 0.16667 1.00000
vt 0.33333 1.00000
vt 0.50000 1.00000
vt 0.66667 1.00000
vt 0.83333 1.00000
vt 0.00000 0.66667
vt 0.16667 0.66667
vt 0.33333 0.66667
vt 0.50000 0.66667
vt 0.66667 0.66667
vt 0.83333 0.66667
vt 0.50000 0.50000
vt 0.00000 0.66667
vt 0.16667 0.66667
vt 0.33333 0.66667
vt 0.50000 0.66667
vt 0.66667 0.66667
vt 0.83333 0.66667
vt 0.00000 0.33333
vt 0.16667 0.33333
vt 0.33333 0.33333
vt 0.50000 0.33333
vt 0.66667 0.33333
vt 0.83333 0.33333
vt 0.00000 1.00000
vt 0.25000 1.00000
vt 0.50000 1.00000
vt 0.75000 1.00000
vt 0.00000 1.00000
vt 0.25000 1.00000
vt 0.50000 1.00000
vt 0.75000 1.00000
vt 0.00000 0.33333
vt 0.16667 0.33333
vt 0.33333 0.33333
vt 0.50000 0.33333
vt 0.66667 0.33333
vt 0.83333 0.33333
vt 0.00000 0.00000
vt 0.16667 0.00000
vt 0.33333 0.00000
vt 0.50000 0.00000
vt 0.66667 0.00000
vt 0.83333 0.00000
vt 0.00000 1.00000
vt 0.33333 1.00000
vt 0.66667 1.00000
vt 0.50000 0.00000
vt 0.50000 0.00000
vt 0.50000 0.00000
vt 0.00000 1.00000
vt 0.12500 1.00000
vt 0.25000 1.00000
vt 0.37500 1.00000
vt 0.50000 1.00000
vt 0.62500 1.00000
vt 0.75000 1.00000
vt 0.87500 1.00000
vt 0.00000 1.00000
vt 0.12500 1.00000
vt 0.25000 1.00000
vt 0.37500 1.00000
vt 0.50000 1.00000
vt 0.62500 1.00000
vt 0.75000 1.00000
vt 0.87500 1.00000
vt 0.00000 1.00000
vt 0.12500 1.00000
vt 0.25000 1.00000
vt 0.37500 1.00000
vt 0.50000 1.00000
vt 0.62500 1.00000
vt 0.75000 1.00000
vt 0.87500 1.00000
vt 0.00000 1.00000
vt 0.00000 1.00000
vt 0.00000 1.00000
vt 0.00000 1.00000
vt 0.00000 1.00000
vt 0.00000 1.00000
vt 0.00000 1.00000
vt 0.00000 1.00000
vt 0.00000 1.00000
vt 0.00000 1.00000
vt 0.00000 1.00000
vt 0.00000 1.00000
vt 0.00000 1.00000
vt 0.00000 1.00000
vt 0.00000 1.00000
vt 0.00000 1.00000
vt 0.00000 1.00000
vt 0.00000 1.00000
vt 0.00000 1.00000
vt 0.00000 1.00000
vt 0.00000 1.00000
vt 0.00000 1.00000
vt 0.00000 1.00000
vt 0.00000 1.00000
vt 0.00000 1.00000
vt 0.00000 1.00000
vt 0.00000 1.00000
vt 0.00000 1.00000
vt 0.00000 1.00000
vt 0.00000 1.00000
vt 0.00000 1.00000
vt 0.00000 1.00000
vt 0.00000 1.00000
vt 0.10000 1.00000
vt 0.20000 1.00000
vt 0.30000 1.00000
vt 0.40000 1.00000
vt 0.50000 1.00000
vt 0.60000 1.00000
vt 0.70000 1.00000
vt 0.80000 1.00000
vt 0.90000 1.00000
vt 0.00000 1.00000
vt 0.10000 1.00000
vt 0.20000 1.00000
vt 0.30000 1.00000
vt 0.40000 1.00000
vt 0.50000 1.00000
vt 0.60000 1.00000
vt 0.70000 1.00000
vt 0.80000 1.00000
vt 0.90000 1.00000
vt 0.00000 1.00000
vt 0.10000 1.00000
vt 0.20000 1.00000
vt 0.30000 1.00000
vt 0.40000 1.00000
vt 0.50000 1.00000
vt 0.60000 1.00000
vt 0.70000 1.00000
vt 0.80000 1.00000
vt 0.90000 1.00000
vt 0.50000 0.50000
vt 0.00000 1.00000
vt 0.00000 1.00000
vt 0.00000 1.00000
vt 0.00000 1.00000
vt 0.00000 1.00000
vt 0.00000 1.00000
vt 0.00000 1.00000
vt 0.00000 1.00000
vt 0.00000 1.00000
vt 0.00000 1.00000
vt 0.00000 1.00000
vt 0.00000 1.00000
vt 0.00000 1.00000
vt 0.00000 1.00000
vt 0.00000 1.00000
vt 0.00000 1.00000
vt 0.00000 1.00000
vt 0.00000 1.00000
vt 0.88000 1.00000
vt 0.06000 1.00000
vt 0.88000 0.75000
vt 0.06000 0.75000
vt 0.88000 0.50000
vt 0.06000 0.50000
vt 0.88000 0.25000
vt 0.06000 0.25000
vt 0.88000 0.00000
vt 0.06000 0.00000
vt 0.00000 1.00000
vt 0.20000 1.00000
vt 0.40000 1.00000
vt 0.60000 1.00000
vt 0.80000 1.00000
vt 0.00000 0.66667
vt 0.20000 0.66667
vt 0.40000 0.66667
vt 0.60000 0.66667
vt 0.80000 0.66667
vt 0.00000 0.33333
vt 0.20000 0.33333
vt 0.40000 0.33333
vt 0.60000 0.33333
vt 0.80000 0.33333
vt 0.00000 0.00000
vt 0.20000 0.00000
vt 0.40000 0.00000
vt 0.60000 0.00000
vt 0.80000 0.00000
vt 0.50000 0.50000
vt 0.50000 0.50000
vt 0.00000 1.00000
vt 0.16667 1.00000
vt 0.33333 1.00000
vt 0.50000 1.00000
vt 0.66667 1.00000
vt 0.83333 1.00000
vt 0.00000 1.00000
vt 0.16667 1.00000
vt 0.33333 1.00000
vt 0.50000 1.00000
vt 0.66667 1.00000
vt 0.83333 1.00000
vt 0.50000 0.50000
vt 0.00000 1.00000
vt 0.25000 1.00000
vt 0.50000 1.00000
vt 0.75000 1.00000
vt 0.00000 1.00000
vt 0.25000 1.00000
vt 0.50000 1.00000
vt 0.75000 1.00000
vt 0.00000 1.00000
vt 0.25000 1.00000
vt 0.50000 1.00000
vt 0.75000 1.00000
vt 0.00000 1.00000
vt 0.25000 1.00000
vt 0.50000 1.00000
vt 0.75000 1.00000
vt 0.50000 1.00000
vt 0.50000 1.00000
vt 0.50000 1.00000
vt 0.50000 0.75000
vt 0.50000 0.75000
vt 0.50000 0.75000
vt 0.50000 0.50000
vt 0.50000 0.50000
vt 0.50000 0.50000
vt 0.50000 0.25000
vt 0.50000 0.25000
vt 0.50000 0.25000
vt 0.50000 0.00000
vt 0.50000 0.00000
vt 0.50000 0.00000
vt 0.50000 1.00000
vt 0.50000 1.00000
vt 0.50000 1.00000
vt 0.50000 0.75000
vt 0.50000 0.75000
vt 0.50000 0.75000
vt 0.50000 0.50000
vt 0.50000 0.50000
vt 0.50000 0.50000
vt 0.50000 0.25000
vt 0.50000 0.25000
vt 0.50000 0.25000
vt 0.50000 0.00000
vt 0.50000 0.00000
vt 0.50000 0.00000
vt 0.50000 1.00000
vt 0.50000 1.00000
vt 0.50000 1.00000
vt 0.50000 0.75000
vt 0.50000 0.75000
vt 0.50000 0.75000
vt 0.50000 0.50000
vt 0.50000 0.50000
vt 0.50000 0.50000
vt 0.50000 0.25000
vt 0.50000 0.25000
vt 0.50000 0.25000
vt 0.50000 0.00000
vt 0.50000 0.00000
vt 0.50000 0.00000
vt 0.50000 1.00000
vt 0.50000 1.00000
vt 0.50000 1.00000
vt 0.50000 0.75000
vt 0.50000 0.75000
vt 0.50000 0.75000
vt 0.50000 0.50000
vt 0.50000 0.50000
vt 0.50000 0.50000
vt 0.50000 0.25000
vt 0.50000 0.25000
vt 0.50000 0.25000
vt 0.50000 0.00000
vt 0.50000 0.00000
vt 0.50000 0.00000
vt 0.50000 1.00000
vt 0.50000 1.00000
vt 0.50000 1.00000
vt 0.50000 0.75000
vt 0.50000 0.75000
vt 0.50000 0.75000
vt 0.50000 0.50000
vt 0.50000 0.50000
vt 0.50000 0.50000
vt 0.50000 0.25000
vt 0.50000 0.25000
vt 0.50000 0.25000
vt 0.50000 1.00000
vt 0.50000 1.00000
vt 0.50000 1.00000
vt 0.50000 0.75000
vt 0.50000 0.75000
vt 0.50000 0.75000
vt 0.50000 0.50000
vt 0.50000 0.50000
vt 0.50000 0.50000
vt 0.50000 0.25000
vt 0.50000 0.25000
vt 0.50000 0.25000
vt 0.50000 0.00000
vt 0.50000 0.00000
vt 0.50000 0.00000
vt 0.00000 1.00000
vt 0.00000 1.00000
vt 0.00000 1.00000
vt 0.00000 1.00000
vt 0.00000 1.00000
vt 0.00000 1.00000
vt 0.00000 1.00000
vt 0.00000 1.00000
vt 0.00000 1.00000
vt 0.00000 1.00000
vt 0.00000 1.00000
vt 0.00000 1.00000
vt 0.00000 1.00000
vt 0.00000 1.00000
vt 0.00000 1.00000
vt 0.00000 1.00000
vt 0.00000 1.00000
vt 0.25000 1.00000
vt 0.50000 1.00000
vt 0.75000 1.00000
vt 0.00000 1.00000
vt 0.25000 1.00000
vt 0.50000 1.00000
vt 0.75000 1.00000
vt 0.00000 1.00000
vt 0.25000 1.00000
vt 0.50000 1.00000
vt 0.75000 1.00000
vt 0.00000 1.00000
vt 0.25000 1.00000
vt 0.50000 1.00000
vt 0.75000 1.00000
vt 0.00000 1.00000
vt 0.25000 1.00000
vt 0.50000 1.00000
vt 0.75000 1.00000
vt 0.00000 1.00000
vt 0.25000 1.00000
vt 0.50000 1.00000
vt 0.75000 1.00000
vt 0.00000 1.00000
vt 0.25000 1.00000
vt 0.50000 1.00000
vt 0.75000 1.00000
vt 0.00000 1.00000
vt 0.25000 1.00000
vt 0.50000 1.00000
vt 0.75000 1.00000
vt 0.00000 1.00000
vt 0.25000 1.00000
vt 0.50000 1.00000
vt 0.75000 1.00000
vt 0.00000 1.00000
vt 0.25000 1.00000
vt 0.50000 1.00000
vt 0.75000 1.00000
vt 0.00000 1.00000
vt 0.33333 1.00000
vt 0.66667 1.00000
vt 0.00000 1.00000
vt 0.33333 1.00000
vt 0.66667 1.00000
vt 0.00000 1.00000
vt 0.33333 1.00000
vt 0.66667 1.00000
vt 0.00000 1.00000
vt 0.33333 1.00000
vt 0.66667 1.00000
vt 0.00000 1.00000
vt 0.33333 1.00000
vt 0.66667 1.00000
vt 0.00000 1.00000
vt 0.33333 1.00000
vt 0.66667 1.00000
vt 0.00000 1.00000
vt 0.33333 1.00000
vt 0.66667 1.00000
vt 0.00000 1.00000
vt 0.33333 1.00000
vt 0.66667 1.00000
vt 0.00000 1.00000
vt 0.08333 1.00000
vt 0.16667 1.00000
vt 0.25000 1.00000
vt 0.33333 1.00000
vt 0.41667 1.00000
vt 0.50000 1.00000
vt 0.58333 1.00000
vt 0.66667 1.00000
vt 0.75000 1.00000
vt 0.83333 1.00000
vt 0.91667 1.00000
vt 0.00000 1.00000
vt 0.08333 1.00000
vt 0.16667 1.00000
vt 0.25000 1.00000
vt 0.33333 1.00000
vt 0.41667 1.00000
vt 0.50000 1.00000
vt 0.58333 1.00000
vt 0.66667 1.00000
vt 0.75000 1.00000
vt 0.83333 1.00000
vt 0.91667 1.00000
vt 0.00000 1.00000
vt 0.08333 1.00000
vt 0.16667 1.00000
vt 0.25000 1.00000
vt 0.33333 1.00000
vt 0.41667 1.00000
vt 0.50000 1.00000
vt 0.58333 1.00000
vt 0.66667 1.00000
vt 0.75000 1.00000
vt 0.83333 1.00000
vt 0.91667 1.00000
vt 0.00000 1.00000
vt 0.08333 1.00000
vt 0.16667 1.00000
vt 0.25000 1.00000
vt 0.33333 1.00000
vt 0.41667 1.00000
vt 0.50000 1.00000
vt 0.58333 1.00000
vt 0.66667 1.00000
vt 0.75000 1.00000
vt 0.83333 1.00000
vt 0.91667 1.00000
vt 0.00000 1.00000
vt 0.08333 1.00000
vt 0.16667 1.00000
vt 0.25000 1.00000
vt 0.33333 1.00000
vt 0.41667 1.00000
vt 0.50000 1.00000
vt 0.58333 1.00000
vt 0.66667 1.00000
vt 0.75000 1.00000
vt 0.83333 1.00000
vt 0.91667 1.00000
vt 0.00000 1.00000
vt 0.08333 1.00000
vt 0.16667 1.00000
vt 0.25000 1.00000
vt 0.33333 1.00000
vt 0.41667 1.00000
vt 0.50000 1.00000
vt 0.58333 1.00000
vt 0.66667 1.00000
vt 0.75000 1.00000
vt 0.83333 1.00000
vt 0.91667 1.00000
vt 0.00000 1.00000
vt 0.08333 1.00000
vt 0.16667 1.00000
vt 0.25000 1.00000
vt 0.33333 1.00000
vt 0.41667 1.00000
vt 0.50000 1.00000
vt 0.58333 1.00000
vt 0.66667 1.00000
vt 0.75000 1.00000
vt 0.83333 1.00000
vt 0.91667 1.00000
vt 0.00000 1.00000
vt 0.08333 1.00000
vt 0.16667 1.00000
vt 0.25000 1.00000
vt 0.33333 1.00000
vt 0.41667 1.00000
vt 0.50000 1.00000
vt 0.58333 1.00000
vt 0.66667 1.00000
vt 0.75000 1.00000
vt 0.83333 1.00000
vt 0.91667 1.00000
vt 0.00000 1.00000
vt 0.08333 1.00000
vt 0.16667 1.00000
vt 0.25000 1.00000
vt 0.33333 1.00000
vt 0.41667 1.00000
vt 0.50000 1.00000
vt 0.58333 1.00000
vt 0.66667 1.00000
vt 0.75000 1.00000
vt 0.83333 1.00000
vt 0.91667 1.00000
vt 0.00000 1.00000
vt 0.08333 1.00000
vt 0.16667 1.00000
vt 0.25000 1.00000
vt 0.33333 1.00000
vt 0.41667 1.00000
vt 0.50000 1.00000
vt 0.58333 1.00000
vt 0.66667 1.00000
vt 0.75000 1.00000
vt 0.83333 1.00000
vt 0.91667 1.00000
vt 0.50000 0.50000
vt 0.02000 0.02000
vt 0.34000 0.02000
vt 0.66000 0.02000
vt 0.98000 0.02000
vt 0.02000 0.34000
vt 0.34000 0.34000
vt 0.66000 0.34000
vt 0.98000 0.34000
vt 0.02000 0.66000
vt 0.34000 0.66000
vt 0.66000 0.66000
vt 0.98000 0.66000
vt 0.02000 0.98000
vt 0.34000 0.98000
vt 0.66000 0.98000
vt 0.98000 0.98000
vt 0.02000 0.02000
vt 0.34000 0.02000
vt 0.34000 0.34000
vt 0.02000 0.34000
vt 0.34000 0.02000
vt 0.66000 0.02000
vt 0.66000 0.34000
vt 0.34000 0.34000
vt 0.66000 0.02000
vt 0.98000 0.02000
vt 0.98000 0.34000
vt 0.66000 0.34000
vt 0.00000 1.00000
vt 0.12500 1.00000
vt 0.25000 1.00000
vt 0.37500 1.00000
vt 0.50000 1.00000
vt 0.62500 1.00000
vt 0.75000 1.00000
vt 0.87500 1.00000
vt 0.00000 1.00000
vt 0.12500 1.00000
vt 0.25000 1.00000
vt 0.37500 1.00000
vt 0.50000 1.00000
vt 0.62500 1.00000
vt 0.75000 1.00000
vt 0.87500 1.00000
vt 0.00000 1.00000
vt 0.12500 1.00000
vt 0.25000 1.00000
vt 0.37500 1.00000
vt 0.50000 1.00000
vt 0.62500 1.00000
vt 0.75000 1.00000
vt 0.87500 1.00000
vt 0.00000 1.00000
vt 0.12500 1.00000
vt 0.25000 1.00000
vt 0.37500 1.00000
vt 0.50000 1.00000
vt 0.62500 1.00000
vt 0.75000 1.00000
vt 0.87500 1.00000
vt 0.50000 0.50000
vt 0.00000 1.00000
vt 0.12500 1.00000
vt 0.25000 1.00000
vt 0.37500 1.00000
vt 0.50000 1.00000
vt 0.62500 1.00000
vt 0.75000 1.00000
vt 0.87500 1.00000
vt 0.00000 1.00000
vt 0.12500 1.00000
vt 0.25000 1.00000
vt 0.37500 1.00000
vt 0.50000 1.00000
vt 0.62500 1.00000
vt 0.75000 1.00000
vt 0.87500 1.00000
vt 0.00000 1.00000
vt 0.12500 1.00000
vt 0.25000 1.00000
vt 0.37500 1.00000
vt 0.50000 1.00000
vt 0.62500 1.00000
vt 0.75000 1.00000
vt 0.87500 1.00000
vt 0.00000 1.00000
vt 0.12500 1.00000
vt 0.25000 1.00000
vt 0.37500 1.00000
vt 0.50000 1.00000
vt 0.62500 1.00000
vt 0.75000 1.00000
vt 0.87500 1.00000
vt 0.50000 0.50000
vt 0.00000 1.00000
vt 0.00000 1.00000
vt 0.00000 1.00000
vt 0.00000 1.00000
vt 0.00000 1.00000
vt 0.00000 1.00000
vt 0.00000 1.00000
vt 0.00000 1.00000
vt 0.00000 1.00000
vt 0.00000 1.00000
vt 0.00000 1.00000
vt 0.00000 1.00000
vt 0.00000 1.00000
vt 0.00000 1.00000
vt 0.00000 1.00000
vt 0.00000 1.00000
vt 0.00000 1.00000
vt 0.00000 1.00000
vt 0.00000 1.00000
vt 0.00000 1.00000
vt 0.00000 1.00000
vt 0.00000 1.00000
vt 0.00000 1.00000
vt 0.00000 1.00000
vt 0.00000 1.00000
vt 0.16667 1.00000
vt 0.33333 1.00000
vt 0.50000 1.00000
vt 0.66667 1.00000
vt 0.83333 1.00000
vt 0.00000 1.00000
vt 0.16667 1.00000
vt 0.33333 1.00000
vt 0.50000 1.00000
vt 0.66667 1.00000
vt 0.83333 1.00000
vt 0.50000 0.50000
vt 0.00000 1.00000
vt 0.16667 1.00000
vt 0.33333 1.00000
vt 0.50000 1.00000
vt 0.66667 1.00000
vt 0.83333 1.00000
vt 0.00000 1.00000
vt 0.16667 1.00000
vt 0.33333 1.00000
vt 0.50000 1.00000
vt 0.66667 1.00000
vt 0.83333 1.00000
vt 0.00000 1.00000
vt 0.00000 1.00000
vt 0.00000 1.00000
vt 0.00000 1.00000
vt 0.00000 1.00000
vt 0.00000 1.00000
vt 0.00000 1.00000
vt 0.00000 1.00000
vt 0.00000 1.00000
vt 0.00000 1.00000
vt 0.00000 1.00000
vt 0.00000 1.00000
vt 0.00000 1.00000
vt 0.00000 1.00000
vt 0.00000 1.00000
vt 0.00000 1.00000
vt 0.00000 1.00000
vt 0.16667 1.00000
vt 0.33333 1.00000
vt 0.50000 1.00000
vt 0.66667 1.00000
vt 0.83333 1.00000
vt 0.00000 1.00000
vt 0.16667 1.00000
vt 0.33333 1.00000
vt 0.50000 1.00000
vt 0.66667 1.00000
vt 0.83333 1.00000
vt 0.50000 0.50000
vt 0.00000 1.00000
vt 0.16667 1.00000
vt 0.33333 1.00000
vt 0.50000 1.00000
vt 0.66667 1.00000
vt 0.83333 1.00000
vt 0.00000 1.00000
vt 0.16667 1.00000
vt 0.33333 1.00000
vt 0.50000 1.00000
vt 0.66667 1.00000
vt 0.83333 1.00000
vt 0.00000 1.00000
vt 0.16667 1.00000
vt 0.33333 1.00000
vt 0.50000 1.00000
vt 0.66667 1.00000
vt 0.83333 1.00000
vt 0.00000 1.00000
vt 0.25000 1.00000
vt 0.50000 1.00000
vt 0.75000 1.00000
vt 0.00000 1.00000
vt 0.25000 1.00000
vt 0.50000 1.00000
vt 0.75000 1.00000
vt 0.50000 0.50000
vt 0.00000 1.00000
vt 0.16667 1.00000
vt 0.33333 1.00000
vt 0.50000 1.00000
vt 0.66667 1.00000
vt 0.83333 1.00000
vt 0.00000 1.00000
vt 0.16667 1.00000
vt 0.33333 1.00000
vt 0.50000 1.00000
vt 0.66667 1.00000
vt 0.83333 1.00000
vt 0.50000 0.50000
vt 0.00000 1.00000
vt 0.16667 1.00000
vt 0.33333 1.00000
vt 0.50000 1.00000
vt 0.66667 1.00000
vt 0.83333 1.00000
vt 0.00000 1.00000
vt 0.16667 1.00000
vt 0.33333 1.00000
vt 0.50000 1.00000
vt 0.66667 1.00000
vt 0.83333 1.00000
vt 0.50000 0.50000
vt 0.00000 1.00000
vt 0.33333 1.00000
vt 0.66667 1.00000
vt 0.00000 1.00000
vt 0.33333 1.00000
vt 0.66667 1.00000
vt 0.50000 0.00000
vt 0.50000 0.50000
vt 0.00000 1.00000
vt 0.33333 1.00000
vt 0.66667 1.00000
vt 0.00000 1.00000
vt 0.33333 1.00000
vt 0.66667 1.00000
vt 0.50000 0.00000
vt 0.50000 0.50000
vt 0.00000 1.00000
vt 0.33333 1.00000
vt 0.66667 1.00000
vt 0.00000 1.00000
vt 0.33333 1.00000
vt 0.66667 1.00000
vt 0.50000 0.00000
vt 0.50000 0.50000
g hull__hull
usemtl mat_hull
f 1/1 2/2 10/10
f 1/1 10/10 9/9
f 2/2 3/3 11/11
f 2/2 11/11 10/10
f 3/3 4/4 12/12
f 3/3 12/12 11/11
f 4/4 5/5 13/13
f 4/4 13/13 12/12
f 5/5 6/6 14/14
f 5/5 14/14 13/13
f 6/6 7/7 15/15
f 6/6 15/15 14/14
f 7/7 8/8 16/16
f 7/7 16/16 15/15
f 8/8 1/1 9/9
f 8/8 9/9 16/16
f 9/9 10/10 18/18
f 9/9 18/18 17/17
f 10/10 11/11 19/19
f 10/10 19/19 18/18
f 11/11 12/12 20/20
f 11/11 20/20 19/19
f 12/12 13/13 21/21
f 12/12 21/21 20/20
f 13/13 14/14 22/22
f 13/13 22/22 21/21
f 14/14 15/15 23/23
f 14/14 23/23 22/22
f 15/15 16/16 24/24
f 15/15 24/24 23/23
f 16/16 9/9 17/17
f 16/16 17/17 24/24
f 17/17 18/18 26/26
f 17/17 26/26 25/25
f 18/18 19/19 27/27
f 18/18 27/27 26/26
f 19/19 20/20 28/28
f 19/19 28/28 27/27
f 20/20 21/21 29/29
f 20/20 29/29 28/28
f 21/21 22/22 30/30
f 21/21 30/30 29/29
f 22/22 23/23 31/31
f 22/22 31/31 30/30
f 23/23 24/24 32/32
f 23/23 32/32 31/31
f 24/24 17/17 25/25
f 24/24 25/25 32/32
f 33/33 2/2 1/1
f 33/33 3/3 2/2
f 33/33 4/4 3/3
f 33/33 5/5 4/4
f 33/33 6/6 5/5
f 33/33 7/7 6/6
f 33/33 8/8 7/7
f 33/33 1/1 8/8
f 34/34 25/25 26/26
f 34/34 26/26 27/27
f 34/34 27/27 28/28
f 34/34 28/28 29/29
f 34/34 29/29 30/30
f 34/34 30/30 31/31
f 34/34 31/31 32/32
f 34/34 32/32 25/25
f 39/39 40/40 41/41
f 39/39 41/41 42/42
f 38/38 37/37 36/36
f 38/38 36/36 35/35
f 35/35 36/36 40/40
f 35/35 40/40 39/39
f 36/36 37/37 41/41
f 36/36 41/41 40/40
f 37/37 38/38 42/42
f 37/37 42/42 41/41
f 38/38 35/35 39/39
f 38/38 39/39 42/42
f 43/43 44/44 50/50
f 43/43 50/50 49/49
f 44/44 45/45 51/51
f 44/44 51/51 50/50
f 45/45 46/46 52/52
f 45/45 52/52 51/51
f 46/46 47/47 53/53
f 46/46 53/53 52/52
f 47/47 48/48 54/54
f 47/47 54/54 53/53
f 48/48 43/43 49/49
f 48/48 49/49 54/54
f 55/55 49/49 50/50
f 55/55 50/50 51/51
f 55/55 51/51 52/52
f 55/55 52/52 53/53
f 55/55 53/53 54/54
f 55/55 54/54 49/49
g LF_hip__legs
usemtl mat_legs
f 56/56 57/57 63/63
f 56/56 63/63 62/62
f 57/57 58/58 64/64
f 57/57 64/64 63/63
f 58/58 59/59 65/65
f 58/58 65/65 64/64
f 59/59 60/60 66/66
f 59/59 66/66 65/65
f 60/60 61/61 67/67
f 60/60 67/67 66/66
f 61/61 56/56 62/62
f 61/61 62/62 67/67
f 68/68 57/57 56/56
f 68/68 58/58 57/57
f 68/68 59/59 58/58
f 68/68 60/60 59/59
f 68/68 61/61 60/60
f 68/68 56/56 61/61
g LF_boom__legs
usemtl mat_legs
f 69/69 70/70 76/76
f 69/69 76/76 75/75
f 70/70 71/71 77/77
f 70/70 77/77 76/76
f 71/71 72/72 78/78
f 71/71 78/78 77/77
f 72/72 73/73 79/79
f 72/72 79/79 78/78
f 73/73 74/74 80/80
f 73/73 80/80 79/79
f 74/74 69/69 75/75
f 74/74 75/75 80/80
f 81/81 82/82 86/86
f 81/81 86/86 85/85
f 82/82 83/83 87/87
f 82/82 87/87 86/86
f 83/83 84/84 88/88
f 83/83 88/88 87/87
f 84/84 81/81 85/85
f 84/84 85/85 88/88
g LF_shin__legs
usemtl mat_legs
f 89/89 90/90 96/96
f 89/89 96/96 95/95
f 90/90 91/91 97/97
f 90/90 97/97 96/96
f 91/91 92/92 98/98
f 91/91 98/98 97/97
f 92/92 93/93 99/99
f 92/92 99/99 98/98
f 93/93 94/94 100/100
f 93/93 100/100 99/99
f 94/94 89/89 95/95
f 94/94 95/95 100/100
f 101/101 102/102 104/104
f 102/102 105/105 104/104
f 102/102 103/103 105/105
f 103/103 106/106 105/105
f 103/103 101/101 106/106
f 101/101 104/104 106/106
g LB_hip__legs
usemtl mat_legs
f 107/107 108/108 114/114
f 107/107 114/114 113/113
f 108/108 109/109 115/115
f 108/108 115/115 114/114
f 109/109 110/110 116/116
f 109/109 116/116 115/115
f 110/110 111/111 117/117
f 110/110 117/117 116/116
f 111/111 112/112 118/118
f 111/111 118/118 117/117
f 112/112 107/107 113/113
f 112/112 113/113 118/118
f 119/119 108/108 107/107
f 119/119 109/109 108/108
f 119/119 110/110 109/109
f 119/119 111/111 110/110
f 119/119 112/112 111/111
f 119/119 107/107 112/112
g LB_boom__legs
usemtl mat_legs
f 120/120 121/121 127/127
f 120/120 127/127 126/126
f 121/121 122/122 128/128
f 121/121 128/128 127/127
f 122/122 123/123 129/129
f 122/122 129/129 128/128
f 123/123 124/124 130/130
f 123/123 130/130 129/129
f 124/124 125/125 131/131
f 124/124 131/131 130/130
f 125/125 120/120 126/126
f 125/125 126/126 131/131
f 132/132 133/133 137/137
f 132/132 137/137 136/136
f 133/133 134/134 138/138
f 133/133 138/138 137/137
f 134/134 135/135 139/139
f 134/134 139/139 138/138
f 135/135 132/132 136/136
f 135/135 136/136 139/139
g LB_shin__legs
usemtl mat_legs
f 140/140 141/141 147/147
f 140/140 147/147 146/146
f 141/141 142/142 148/148
f 141/141 148/148 147/147
f 142/142 143/143 149/149
f 142/142 149/149 148/148
f 143/143 144/144 150/150
f 143/143 150/150 149/149
f 144/144 145/145 151/151
f 144/144 151/151 150/150
f 145/145 140/140 146/146
f 145/145 146/146 151/151
f 152/152 153/153 155/155
f 153/153 156/156 155/155
f 153/153 154/154 156/156
f 154/154 157/157 156/156
f 154/154 152/152 157/157
f 152/152 155/155 157/157
g RF_hip__legs
usemtl mat_legs
f 158/158 164/164 165/165
f 158/158 165/165 159/159
f 159/159 165/165 166/166
f 159/159 166/166 160/160
f 160/160 166/166 167/167
f 160/160 167/167 161/161
f 161/161 167/167 168/168
f 161/161 168/168 162/162
f 162/162 168/168 169/169
f 162/162 169/169 163/163
f 163/163 169/169 164/164
f 163/163 164/164 158/158
f 170/170 158/158 159/159
f 170/170 159/159 160/160
f 170/170 160/160 161/161
f 170/170 161/161 162/162
f 170/170 162/162 163/163
f 170/170 163/163 158/158
g RF_boom__legs
usemtl mat_legs
f 171/171 177/177 178/178
f 171/171 178/178 172/172
f 172/172 178/178 179/179
f 172/172 179/179 173/173
f 173/173 179/179 180/180
f 173/173 180/180 174/174
f 174/174 180/180 181/181
f 174/174 181/181 175/175
f 175/175 181/181 182/182
f 175/175 182/182 176/176
f 176/176 182/182 177/177
f 176/176 177/177 171/171
f 183/183 187/187 188/188
f 183/183 188/188 184/184
f 184/184 188/188 189/189
f 184/184 189/189 185/185
f 185/185 189/189 190/190
f 185/185 190/190 186/186
f 186/186 190/190 187/187
f 186/186 187/187 183/183
g RF_shin__legs
usemtl mat_legs
f 191/191 197/197 198/198
f 191/191 198/198 192/192
f 192/192 198/198 199/199
f 192/192 199/199 193/193
f 193/193 199/199 200/200
f 193/193 200/200 194/194
f 194/194 200/200 201/201
f 194/194 201/201 195/195
f 195/195 201/201 202/202
f 195/195 202/202 196/196
f 196/196 202/202 197/197
f 196/196 197/197 191/191
f 204/204 203/203 206/206
f 207/207 204/204 206/206
f 205/205 204/204 207/207
f 208/208 205/205 207/207
f 203/203 205/205 208/208
f 206/206 203/203 208/208
g RB_hip__legs
usemtl mat_legs
f 209/209 215/215 216/216
f 209/209 216/216 210/210
f 210/210 216/216 217/217
f 210/210 217/217 211/211
f 211/211 217/217 218/218
f 211/211 218/218 212/212
f 212/212 218/218 219/219
f 212/212 219/219 213/213
f 213/213 219/219 220/220
f 213/213 220/220 214/214
f 214/214 220/220 215/215
f 214/214 215/215 209/209
f 221/221 209/209 210/210
f 221/221 210/210 211/211
f 221/221 211/211 212/212
f 221/221 212/212 213/213
f 221/221 213/213 214/214
f 221/221 214/214 209/209
g RB_boom__legs
usemtl mat_legs
f 222/222 228/228 229/229
f 222/222 229/229 223/223
f 223/223 229/229 230/230
f 223/223 230/230 224/224
f 224/224 230/230 231/231
f 224/224 231/231 225/225
f 225/225 231/231 232/232
f 225/225 232/232 226/226
f 226/226 232/232 233/233
f 226/226 233/233 227/227
f 227/227 233/233 228/228
f 227/227 228/228 222/222
f 234/234 238/238 239/239
f 234/234 239/239 235/235
f 235/235 239/239 240/240
f 235/235 240/240 236/236
f 236/236 240/240 241/241
f 236/236 241/241 237/237
f 237/237 241/241 238/238
f 237/237 238/238 234/234
g RB_shin__legs
usemtl mat_legs
f 242/242 248/248 249/249
f 242/242 249/249 243/243
f 243/243 249/249 250/250
f 243/243 250/250 244/244
f 244/244 250/250 251/251
f 244/244 251/251 245/245
f 245/245 251/251 252/252
f 245/245 252/252 246/246
f 246/246 252/252 253/253
f 246/246 253/253 247/247
f 247/247 253/253 248/248
f 247/247 248/248 242/242
f 255/255 254/254 257/257
f 258/258 255/255 257/257
f 256/256 255/255 258/258
f 259/259 256/256 258/258
f 254/254 256/256 259/259
f 257/257 254/254 259/259
g torso__graft
usemtl mat_graft
f 260/260 261/261 269/269
f 260/260 269/269 268/268
f 261/261 262/262 270/270
f 261/261 270/270 269/269
f 262/262 263/263 271/271
f 262/262 271/271 270/270
f 263/263 264/264 272/272
f 263/263 272/272 271/271
f 264/264 265/265 273/273
f 264/264 273/273 272/272
f 265/265 266/266 274/274
f 265/265 274/274 273/273
f 266/266 267/267 275/275
f 266/266 275/275 274/274
f 267/267 260/260 268/268
f 267/267 268/268 275/275
f 268/268 269/269 277/277
f 268/268 277/277 276/276
f 269/269 270/270 278/278
f 269/269 278/278 277/277
f 270/270 271/271 279/279
f 270/270 279/279 278/278
f 271/271 272/272 280/280
f 271/271 280/280 279/279
f 272/272 273/273 281/281
f 272/272 281/281 280/280
f 273/273 274/274 282/282
f 273/273 282/282 281/281
f 274/274 275/275 283/283
f 274/274 283/283 282/282
f 275/275 268/268 276/276
f 275/275 276/276 283/283
f 284/284 285/285 286/286
f 284/284 286/286 287/287
f 288/288 289/289 290/290
f 288/288 290/290 291/291
f 292/292 293/293 294/294
f 292/292 294/294 295/295
f 296/296 297/297 298/298
f 296/296 298/298 299/299
f 300/300 301/301 302/302
f 300/300 302/302 303/303
f 304/304 305/305 306/306
f 304/304 306/306 307/307
f 308/308 309/309 310/310
f 308/308 310/310 311/311
f 312/312 313/313 314/314
f 312/312 314/314 315/315
g torso__body
usemtl mat_body
f 276/276 277/277 317/317
f 276/276 317/317 316/316
f 277/277 278/278 318/318
f 277/277 318/318 317/317
f 278/278 279/279 319/319
f 278/278 319/319 318/318
f 279/279 280/280 320/320
f 279/279 320/320 319/319
f 280/280 281/281 321/321
f 280/280 321/321 320/320
f 281/281 282/282 322/322
f 281/281 322/322 321/321
f 282/282 283/283 323/323
f 282/282 323/323 322/322
f 283/283 276/276 316/316
f 283/283 316/316 323/323
f 316/316 317/317 327/327
f 316/316 327/327 326/326
f 319/319 320/320 330/330
f 319/319 330/330 329/329
f 320/320 321/321 331/331
f 320/320 331/331 330/330
f 321/321 322/322 332/332
f 321/321 332/332 331/331
f 322/322 323/323 333/333
f 322/322 333/333 332/332
f 323/323 324/324 334/334
f 323/323 334/334 333/333
f 324/324 325/325 335/335
f 324/324 335/335 334/334
f 325/325 316/316 326/326
f 325/325 326/326 335/335
f 326/326 327/327 337/337
f 326/326 337/337 336/336
f 329/329 330/330 340/340
f 329/329 340/340 339/339
f 330/330 331/331 341/341
f 330/330 341/341 340/340
f 331/331 332/332 342/342
f 331/331 342/342 341/341
f 332/332 333/333 343/343
f 332/332 343/343 342/342
f 333/333 334/334 344/344
f 333/333 344/344 343/343
f 334/334 335/335 345/345
f 334/334 345/345 344/344
f 335/335 326/326 336/336
f 335/335 336/336 345/345
f 346/346 336/336 337/337
f 346/346 337/337 338/338
f 346/346 338/338 339/339
f 346/346 339/339 340/340
f 346/346 340/340 341/341
f 346/346 341/341 342/342
f 346/346 342/342 343/343
f 346/346 343/343 344/344
f 346/346 344/344 345/345
f 346/346 345/345 336/336
f 397/397 398/398 404/404
f 397/397 404/404 403/403
f 398/398 399/399 405/405
f 398/398 405/405 404/404
f 399/399 400/400 406/406
f 399/399 406/406 405/405
f 400/400 401/401 407/407
f 400/400 407/407 406/406
f 401/401 402/402 408/408
f 401/401 408/408 407/407
f 402/402 397/397 403/403
f 402/402 403/403 408/408
f 409/409 403/403 404/404
f 409/409 404/404 405/405
f 409/409 405/405 406/406
f 409/409 406/406 407/407
f 409/409 407/407 408/408
f 409/409 408/408 403/403
f 410/410 411/411 415/415
f 410/410 415/415 414/414
f 411/411 412/412 416/416
f 411/411 416/416 415/415
f 412/412 413/413 417/417
f 412/412 417/417 416/416
f 413/413 410/410 414/414
f 413/413 414/414 417/417
f 418/418 419/419 423/423
f 418/418 423/423 422/422
f 419/419 420/420 424/424
f 419/419 424/424 423/423
f 420/420 421/421 425/425
f 420/420 425/425 424/424
f 421/421 418/418 422/422
f 421/421 422/422 425/425
f 513/513 514/514 515/515
f 513/513 515/515 516/516
f 517/517 518/518 519/519
f 517/517 519/519 520/520
f 520/520 519/519 518/518
f 520/520 518/518 517/517
f 521/521 522/522 523/523
f 521/521 523/523 524/524
f 525/525 526/526 527/527
f 525/525 527/527 528/528
f 528/528 527/527 526/526
f 528/528 526/526 525/525
f 529/529 530/530 534/534
f 529/529 534/534 533/533
f 530/530 531/531 535/535
f 530/530 535/535 534/534
f 531/531 532/532 536/536
f 531/531 536/536 535/535
f 532/532 529/529 533/533
f 532/532 533/533 536/536
f 537/537 538/538 542/542
f 537/537 542/542 541/541
f 538/538 539/539 543/543
f 538/538 543/543 542/542
f 539/539 540/540 544/544
f 539/539 544/544 543/543
f 540/540 537/537 541/541
f 540/540 541/541 544/544
f 545/545 546/546 550/550
f 545/545 550/550 549/549
f 546/546 547/547 551/551
f 546/546 551/551 550/550
f 547/547 548/548 552/552
f 547/547 552/552 551/551
f 548/548 545/545 549/549
f 548/548 549/549 552/552
f 553/553 554/554 558/558
f 553/553 558/558 557/557
f 554/554 555/555 559/559
f 554/554 559/559 558/558
f 555/555 556/556 560/560
f 555/555 560/560 559/559
f 556/556 553/553 557/557
f 556/556 557/557 560/560
f 561/561 562/562 566/566
f 561/561 566/566 565/565
f 562/562 563/563 567/567
f 562/562 567/567 566/566
f 563/563 564/564 568/568
f 563/563 568/568 567/567
f 564/564 561/561 565/565
f 564/564 565/565 568/568
f 569/569 570/570 573/573
f 569/569 573/573 572/572
f 570/570 571/571 574/574
f 570/570 574/574 573/573
f 571/571 569/569 572/572
f 571/571 572/572 574/574
f 575/575 576/576 579/579
f 575/575 579/579 578/578
f 576/576 577/577 580/580
f 576/576 580/580 579/579
f 577/577 575/575 578/578
f 577/577 578/578 580/580
f 581/581 582/582 585/585
f 581/581 585/585 584/584
f 582/582 583/583 586/586
f 582/582 586/586 585/585
f 583/583 581/581 584/584
f 583/583 584/584 586/586
f 587/587 588/588 591/591
f 587/587 591/591 590/590
f 588/588 589/589 592/592
f 588/588 592/592 591/591
f 589/589 587/587 590/590
f 589/589 590/590 592/592
g torso__gore
usemtl mat_gore
f 347/347 348/348 350/350
f 347/347 350/350 349/349
f 349/349 350/350 352/352
f 349/349 352/352 351/351
f 353/353 354/354 356/356
f 353/353 356/356 355/355
f 355/355 356/356 358/358
f 355/355 358/358 357/357
f 359/359 360/360 362/362
f 359/359 362/362 361/361
f 361/361 362/362 364/364
f 361/361 364/364 363/363
f 365/365 366/366 368/368
f 365/365 368/368 367/367
f 367/367 368/368 370/370
f 367/367 370/370 369/369
f 369/369 370/370 372/372
f 369/369 372/372 371/371
f 371/371 372/372 374/374
f 371/371 374/374 373/373
f 365/365 366/366 367/367
f 371/371 374/374 373/373
f 375/375 376/376 381/381
f 375/375 381/381 380/380
f 376/376 377/377 382/382
f 376/376 382/382 381/381
f 377/377 378/378 383/383
f 377/377 383/383 382/382
f 378/378 379/379 384/384
f 378/378 384/384 383/383
f 379/379 375/375 380/380
f 379/379 380/380 384/384
f 380/380 381/381 386/386
f 380/380 386/386 385/385
f 381/381 382/382 387/387
f 381/381 387/387 386/386
f 382/382 383/383 388/388
f 382/382 388/388 387/387
f 383/383 384/384 389/389
f 383/383 389/389 388/388
f 384/384 380/380 385/385
f 384/384 385/385 389/389
f 385/385 386/386 391/391
f 385/385 391/391 390/390
f 386/386 387/387 392/392
f 386/386 392/392 391/391
f 387/387 388/388 393/393
f 387/387 393/393 392/392
f 388/388 389/389 394/394
f 388/388 394/394 393/393
f 389/389 385/385 390/390
f 389/389 390/390 394/394
f 395/395 375/375 376/376
f 395/395 376/376 377/377
f 395/395 377/377 378/378
f 395/395 378/378 379/379
f 395/395 379/379 375/375
f 396/396 391/391 390/390
f 396/396 392/392 391/391
f 396/396 393/393 392/392
f 396/396 394/394 393/393
f 396/396 390/390 394/394
g torso__ribs
usemtl mat_ribs
f 426/426 429/429 430/430
f 426/426 430/430 427/427
f 427/427 430/430 431/431
f 427/427 431/431 428/428
f 428/428 431/431 429/429
f 428/428 429/429 426/426
f 429/429 432/432 433/433
f 429/429 433/433 430/430
f 430/430 433/433 434/434
f 430/430 434/434 431/431
f 431/431 434/434 432/432
f 431/431 432/432 429/429
f 432/432 435/435 436/436
f 432/432 436/436 433/433
f 433/433 436/436 437/437
f 433/433 437/437 434/434
f 434/434 437/437 435/435
f 434/434 435/435 432/432
f 435/435 438/438 439/439
f 435/435 439/439 436/436
f 436/436 439/439 440/440
f 436/436 440/440 437/437
f 437/437 440/440 438/438
f 437/437 438/438 435/435
f 438/438 439/439 440/440
f 441/441 444/444 445/445
f 441/441 445/445 442/442
f 442/442 445/445 446/446
f 442/442 446/446 443/443
f 443/443 446/446 444/444
f 443/443 444/444 441/441
f 444/444 447/447 448/448
f 444/444 448/448 445/445
f 445/445 448/448 449/449
f 445/445 449/449 446/446
f 446/446 449/449 447/447
f 446/446 447/447 444/444
f 447/447 450/450 451/451
f 447/447 451/451 448/448
f 448/448 451/451 452/452
f 448/448 452/452 449/449
f 449/449 452/452 450/450
f 449/449 450/450 447/447
f 450/450 453/453 454/454
f 450/450 454/454 451/451
f 451/451 454/454 455/455
f 451/451 455/455 452/452
f 452/452 455/455 453/453
f 452/452 453/453 450/450
f 453/453 454/454 455/455
f 456/456 459/459 460/460
f 456/456 460/460 457/457
f 457/457 460/460 461/461
f 457/457 461/461 458/458
f 458/458 461/461 459/459
f 458/458 459/459 456/456
f 459/459 462/462 463/463
f 459/459 463/463 460/460
f 460/460 463/463 464/464
f 460/460 464/464 461/461
f 461/461 464/464 462/462
f 461/461 462/462 459/459
f 462/462 465/465 466/466
f 462/462 466/466 463/463
f 463/463 466/466 467/467
f 463/463 467/467 464/464
f 464/464 467/467 465/465
f 464/464 465/465 462/462
f 465/465 468/468 469/469
f 465/465 469/469 466/466
f 466/466 469/469 470/470
f 466/466 470/470 467/467
f 467/467 470/470 468/468
f 467/467 468/468 465/465
f 468/468 469/469 470/470
f 471/471 474/474 475/475
f 471/471 475/475 472/472
f 472/472 475/475 476/476
f 472/472 476/476 473/473
f 473/473 476/476 474/474
f 473/473 474/474 471/471
f 474/474 477/477 478/478
f 474/474 478/478 475/475
f 475/475 478/478 479/479
f 475/475 479/479 476/476
f 476/476 479/479 477/477
f 476/476 477/477 474/474
f 477/477 480/480 481/481
f 477/477 481/481 478/478
f 478/478 481/481 482/482
f 478/478 482/482 479/479
f 479/479 482/482 480/480
f 479/479 480/480 477/477
f 480/480 483/483 484/484
f 480/480 484/484 481/481
f 481/481 484/484 485/485
f 481/481 485/485 482/482
f 482/482 485/485 483/483
f 482/482 483/483 480/480
f 483/483 484/484 485/485
f 486/486 489/489 490/490
f 486/486 490/490 487/487
f 487/487 490/490 491/491
f 487/487 491/491 488/488
f 488/488 491/491 489/489
f 488/488 489/489 486/486
f 489/489 492/492 493/493
f 489/489 493/493 490/490
f 490/490 493/493 494/494
f 490/490 494/494 491/491
f 491/491 494/494 492/492
f 491/491 492/492 489/489
f 492/492 495/495 496/496
f 492/492 496/496 493/493
f 493/493 496/496 497/497
f 493/493 497/497 494/494
f 494/494 497/497 495/495
f 494/494 495/495 492/492
f 495/495 496/496 497/497
f 498/498 501/501 502/502
f 498/498 502/502 499/499
f 499/499 502/502 503/503
f 499/499 503/503 500/500
f 500/500 503/503 501/501
f 500/500 501/501 498/498
f 501/501 504/504 505/505
f 501/501 505/505 502/502
f 502/502 505/505 506/506
f 502/502 506/506 503/503
f 503/503 506/506 504/504
f 503/503 504/504 501/501
f 504/504 507/507 508/508
f 504/504 508/508 505/505
f 505/505 508/508 509/509
f 505/505 509/509 506/506
f 506/506 509/509 507/507
f 506/506 507/507 504/504
f 507/507 510/510 511/511
f 507/507 511/511 508/508
f 508/508 511/511 512/512
f 508/508 512/512 509/509
f 509/509 512/512 510/510
f 509/509 510/510 507/507
f 510/510 511/511 512/512
g head__head
usemtl mat_head
f 593/593 594/594 606/606
f 593/593 606/606 605/605
f 594/594 595/595 607/607
f 594/594 607/607 606/606
f 595/595 596/596 608/608
f 595/595 608/608 607/607
f 596/596 597/597 609/609
f 596/596 609/609 608/608
f 597/597 598/598 610/610
f 597/597 610/610 609/609
f 598/598 599/599 611/611
f 598/598 611/611 610/610
f 599/599 600/600 612/612
f 599/599 612/612 611/611
f 600/600 601/601 613/613
f 600/600 613/613 612/612
f 601/601 602/602 614/614
f 601/601 614/614 613/613
f 602/602 603/603 615/615
f 602/602 615/615 614/614
f 603/603 604/604 616/616
f 603/603 616/616 615/615
f 604/604 593/593 605/605
f 604/604 605/605 616/616
f 629/629 630/630 642/642
f 629/629 642/642 641/641
f 630/630 631/631 643/643
f 630/630 643/643 642/642
f 631/631 632/632 644/644
f 631/631 644/644 643/643
f 632/632 633/633 645/645
f 632/632 645/645 644/644
f 633/633 634/634 646/646
f 633/633 646/646 645/645
f 634/634 635/635 647/647
f 634/634 647/647 646/646
f 635/635 636/636 648/648
f 635/635 648/648 647/647
f 636/636 637/637 649/649
f 636/636 649/649 648/648
f 637/637 638/638 650/650
f 637/637 650/650 649/649
f 638/638 639/639 651/651
f 638/638 651/651 650/650
f 639/639 640/640 652/652
f 639/639 652/652 651/651
f 640/640 629/629 641/641
f 640/640 641/641 652/652
f 641/641 642/642 654/654
f 641/641 654/654 653/653
f 642/642 643/643 655/655
f 642/642 655/655 654/654
f 643/643 644/644 656/656
f 643/643 656/656 655/655
f 644/644 645/645 657/657
f 644/644 657/657 656/656
f 645/645 646/646 658/658
f 645/645 658/658 657/657
f 646/646 647/647 659/659
f 646/646 659/659 658/658
f 647/647 648/648 660/660
f 647/647 660/660 659/659
f 648/648 649/649 661/661
f 648/648 661/661 660/660
f 649/649 650/650 662/662
f 649/649 662/662 661/661
f 650/650 651/651 663/663
f 650/650 663/663 662/662
f 651/651 652/652 664/664
f 651/651 664/664 663/663
f 652/652 641/641 653/653
f 652/652 653/653 664/664
f 653/653 654/654 666/666
f 653/653 666/666 665/665
f 654/654 655/655 667/667
f 654/654 667/667 666/666
f 655/655 656/656 668/668
f 655/655 668/668 667/667
f 656/656 657/657 669/669
f 656/656 669/669 668/668
f 657/657 658/658 670/670
f 657/657 670/670 669/669
f 658/658 659/659 671/671
f 658/658 671/671 670/670
f 659/659 660/660 672/672
f 659/659 672/672 671/671
f 660/660 661/661 673/673
f 660/660 673/673 672/672
f 661/661 662/662 674/674
f 661/661 674/674 673/673
f 662/662 663/663 675/675
f 662/662 675/675 674/674
f 663/663 664/664 676/676
f 663/663 676/676 675/675
f 664/664 653/653 665/665
f 664/664 665/665 676/676
f 713/713 665/665 666/666
f 713/713 666/666 667/667
f 713/713 667/667 668/668
f 713/713 668/668 669/669
f 713/713 669/669 670/670
f 713/713 670/670 671/671
f 713/713 671/671 672/672
f 713/713 672/672 673/673
f 713/713 673/673 674/674
f 713/713 674/674 675/675
f 713/713 675/675 676/676
f 713/713 676/676 665/665
f 742/742 743/743 751/751
f 742/742 751/751 750/750
f 743/743 744/744 752/752
f 743/743 752/752 751/751
f 744/744 745/745 753/753
f 744/744 753/753 752/752
f 745/745 746/746 754/754
f 745/745 754/754 753/753
f 746/746 747/747 755/755
f 746/746 755/755 754/754
f 747/747 748/748 756/756
f 747/747 756/756 755/755
f 748/748 749/749 757/757
f 748/748 757/757 756/756
f 749/749 742/742 750/750
f 749/749 750/750 757/757
f 750/750 758/758 759/759
f 750/750 759/759 751/751
f 751/751 759/759 760/760
f 751/751 760/760 752/752
f 752/752 760/760 761/761
f 752/752 761/761 753/753
f 753/753 761/761 762/762
f 753/753 762/762 754/754
f 754/754 762/762 763/763
f 754/754 763/763 755/755
f 755/755 763/763 764/764
f 755/755 764/764 756/756
f 756/756 764/764 765/765
f 756/756 765/765 757/757
f 757/757 765/765 758/758
f 757/757 758/758 750/750
f 775/775 776/776 784/784
f 775/775 784/784 783/783
f 776/776 777/777 785/785
f 776/776 785/785 784/784
f 777/777 778/778 786/786
f 777/777 786/786 785/785
f 778/778 779/779 787/787
f 778/778 787/787 786/786
f 779/779 780/780 788/788
f 779/779 788/788 787/787
f 780/780 781/781 789/789
f 780/780 789/789 788/788
f 781/781 782/782 790/790
f 781/781 790/790 789/789
f 782/782 775/775 783/783
f 782/782 783/783 790/790
f 783/783 791/791 792/792
f 783/783 792/792 784/784
f 784/784 792/792 793/793
f 784/784 793/793 785/785
f 785/785 793/793 794/794
f 785/785 794/794 786/786
f 786/786 794/794 795/795
f 786/786 795/795 787/787
f 787/787 795/795 796/796
f 787/787 796/796 788/788
f 788/788 796/796 797/797
f 788/788 797/797 789/789
f 789/789 797/797 798/798
f 789/789 798/798 790/790
f 790/790 798/798 791/791
f 790/790 791/791 783/783
f 808/808 809/809 810/810
f 808/808 810/810 811/811
f 812/812 813/813 814/814
f 812/812 814/814 815/815
f 816/816 817/817 818/818
f 816/816 818/818 819/819
f 820/820 821/821 822/822
f 820/820 822/822 823/823
f 824/824 825/825 826/826
f 824/824 826/826 827/827
f 828/828 829/829 830/830
f 828/828 830/830 831/831
g jaw__head
usemtl mat_head
f 677/677 678/678 690/690
f 677/677 690/690 689/689
f 678/678 679/679 691/691
f 678/678 691/691 690/690
f 679/679 680/680 692/692
f 679/679 692/692 691/691
f 680/680 681/681 693/693
f 680/680 693/693 692/692
f 681/681 682/682 694/694
f 681/681 694/694 693/693
f 682/682 683/683 695/695
f 682/682 695/695 694/694
f 683/683 684/684 696/696
f 683/683 696/696 695/695
f 684/684 685/685 697/697
f 684/684 697/697 696/696
f 685/685 686/686 698/698
f 685/685 698/698 697/697
f 686/686 687/687 699/699
f 686/686 699/699 698/698
f 687/687 688/688 700/700
f 687/687 700/700 699/699
f 688/688 677/677 689/689
f 688/688 689/689 700/700
f 689/689 690/690 702/702
f 689/689 702/702 701/701
f 690/690 691/691 703/703
f 690/690 703/703 702/702
f 691/691 692/692 704/704
f 691/691 704/704 703/703
f 692/692 693/693 705/705
f 692/692 705/705 704/704
f 693/693 694/694 706/706
f 693/693 706/706 705/705
f 694/694 695/695 707/707
f 694/694 707/707 706/706
f 695/695 696/696 708/708
f 695/695 708/708 707/707
f 696/696 697/697 709/709
f 696/696 709/709 708/708
f 697/697 698/698 710/710
f 697/697 710/710 709/709
f 698/698 699/699 711/711
f 698/698 711/711 710/710
f 699/699 700/700 712/712
f 699/699 712/712 711/711
f 700/700 689/689 701/701
f 700/700 701/701 712/712
g jaw__face
usemtl mat_face
f 730/730 731/731 732/732
f 730/730 732/732 733/733
f 734/734 735/735 736/736
f 734/734 736/736 737/737
f 738/738 739/739 740/740
f 738/738 740/740 741/741
g head__face
usemtl mat_face
f 718/718 719/719 723/723
f 718/718 723/723 722/722
f 719/719 720/720 724/724
f 719/719 724/724 723/723
f 720/720 721/721 725/725
f 720/720 725/725 724/724
f 722/722 723/723 727/727
f 722/722 727/727 726/726
f 723/723 724/724 728/728
f 723/723 728/728 727/727
f 724/724 725/725 729/729
f 724/724 729/729 728/728
g head__optic
usemtl mat_optic
f 758/758 766/766 767/767
f 758/758 767/767 759/759
f 759/759 767/767 768/768
f 759/759 768/768 760/760
f 760/760 768/768 769/769
f 760/760 769/769 761/761
f 761/761 769/769 770/770
f 761/761 770/770 762/762
f 762/762 770/770 771/771
f 762/762 771/771 763/763
f 763/763 771/771 772/772
f 763/763 772/772 764/764
f 764/764 772/772 773/773
f 764/764 773/773 765/765
f 765/765 773/773 766/766
f 765/765 766/766 758/758
f 774/774 766/766 767/767
f 774/774 767/767 768/768
f 774/774 768/768 769/769
f 774/774 769/769 770/770
f 774/774 770/770 771/771
f 774/774 771/771 772/772
f 774/774 772/772 773/773
f 774/774 773/773 766/766
f 791/791 799/799 800/800
f 791/791 800/800 792/792
f 792/792 800/800 801/801
f 792/792 801/801 793/793
f 793/793 801/801 802/802
f 793/793 802/802 794/794
f 794/794 802/802 803/803
f 794/794 803/803 795/795
f 795/795 803/803 804/804
f 795/795 804/804 796/796
f 796/796 804/804 805/805
f 796/796 805/805 797/797
f 797/797 805/805 806/806
f 797/797 806/806 798/798
f 798/798 806/806 799/799
f 798/798 799/799 791/791
f 807/807 799/799 800/800
f 807/807 800/800 801/801
f 807/807 801/801 802/802
f 807/807 802/802 803/803
f 807/807 803/803 804/804
f 807/807 804/804 805/805
f 807/807 805/805 806/806
f 807/807 806/806 799/799
g armR__body
usemtl mat_body
f 832/832 838/838 839/839
f 832/832 839/839 833/833
f 833/833 839/839 840/840
f 833/833 840/840 834/834
f 834/834 840/840 841/841
f 834/834 841/841 835/835
f 835/835 841/841 842/842
f 835/835 842/842 836/836
f 836/836 842/842 843/843
f 836/836 843/843 837/837
f 837/837 843/843 838/838
f 837/837 838/838 832/832
f 844/844 833/833 832/832
f 844/844 834/834 833/833
f 844/844 835/835 834/834
f 844/844 836/836 835/835
f 844/844 837/837 836/836
f 844/844 832/832 837/837
f 845/845 851/851 852/852
f 845/845 852/852 846/846
f 846/846 852/852 853/853
f 846/846 853/853 847/847
f 847/847 853/853 854/854
f 847/847 854/854 848/848
f 848/848 854/854 855/855
f 848/848 855/855 849/849
f 849/849 855/855 856/856
f 849/849 856/856 850/850
f 850/850 856/856 851/851
f 850/850 851/851 845/845
f 861/861 862/862 863/863
f 861/861 863/863 864/864
f 860/860 859/859 858/858
f 860/860 858/858 857/857
f 857/857 858/858 862/862
f 857/857 862/862 861/861
f 858/858 859/859 863/863
f 858/858 863/863 862/862
f 859/859 860/860 864/864
f 859/859 864/864 863/863
f 860/860 857/857 861/861
f 860/860 861/861 864/864
f 869/869 870/870 871/871
f 869/869 871/871 872/872
f 868/868 867/867 866/866
f 868/868 866/866 865/865
f 865/865 866/866 870/870
f 865/865 870/870 869/869
f 866/866 867/867 871/871
f 866/866 871/871 870/870
f 867/867 868/868 872/872
f 867/867 872/872 871/871
f 868/868 865/865 869/869
f 868/868 869/869 872/872
g armL__gun
usemtl mat_gun
f 873/873 874/874 880/880
f 873/873 880/880 879/879
f 874/874 875/875 881/881
f 874/874 881/881 880/880
f 875/875 876/876 882/882
f 875/875 882/882 881/881
f 876/876 877/877 883/883
f 876/876 883/883 882/882
f 877/877 878/878 884/884
f 877/877 884/884 883/883
f 878/878 873/873 879/879
f 878/878 879/879 884/884
f 885/885 873/873 874/874
f 885/885 874/874 875/875
f 885/885 875/875 876/876
f 885/885 876/876 877/877
f 885/885 877/877 878/878
f 885/885 878/878 873/873
g gun__gun
usemtl mat_gun
f 886/886 887/887 893/893
f 886/886 893/893 892/892
f 887/887 888/888 894/894
f 887/887 894/894 893/893
f 888/888 889/889 895/895
f 888/888 895/895 894/894
f 889/889 890/890 896/896
f 889/889 896/896 895/895
f 890/890 891/891 897/897
f 890/890 897/897 896/896
f 891/891 886/886 892/892
f 891/891 892/892 897/897
f 892/892 893/893 899/899
f 892/892 899/899 898/898
f 893/893 894/894 900/900
f 893/893 900/900 899/899
f 894/894 895/895 901/901
f 894/894 901/901 900/900
f 895/895 896/896 902/902
f 895/895 902/902 901/901
f 896/896 897/897 903/903
f 896/896 903/903 902/902
f 897/897 892/892 898/898
f 897/897 898/898 903/903
f 904/904 905/905 909/909
f 904/904 909/909 908/908
f 905/905 906/906 910/910
f 905/905 910/910 909/909
f 906/906 907/907 911/911
f 906/906 911/911 910/910
f 907/907 904/904 908/908
f 907/907 908/908 911/911
f 912/912 908/908 909/909
f 912/912 909/909 910/910
f 912/912 910/910 911/911
f 912/912 911/911 908/908
f 913/913 914/914 920/920
f 913/913 920/920 919/919
f 914/914 915/915 921/921
f 914/914 921/921 920/920
f 915/915 916/916 922/922
f 915/915 922/922 921/921
f 916/916 917/917 923/923
f 916/916 923/923 922/922
f 917/917 918/918 924/924
f 917/917 924/924 923/923
f 918/918 913/913 919/919
f 918/918 919/919 924/924
f 925/925 919/919 920/920
f 925/925 920/920 921/921
f 925/925 921/921 922/922
f 925/925 922/922 923/923
f 925/925 923/923 924/924
f 925/925 924/924 919/919
f 926/926 927/927 933/933
f 926/926 933/933 932/932
f 927/927 928/928 934/934
f 927/927 934/934 933/933
f 928/928 929/929 935/935
f 928/928 935/935 934/934
f 929/929 930/930 936/936
f 929/929 936/936 935/935
f 930/930 931/931 937/937
f 930/930 937/937 936/936
f 931/931 926/926 932/932
f 931/931 932/932 937/937
f 938/938 932/932 933/933
f 938/938 933/933 934/934
f 938/938 934/934 935/935
f 938/938 935/935 936/936
f 938/938 936/936 937/937
f 938/938 937/937 932/932
g claw0__gun
usemtl mat_gun
f 939/939 940/940 943/943
f 939/939 943/943 942/942
f 940/940 941/941 944/944
f 940/940 944/944 943/943
f 941/941 939/939 942/942
f 941/941 942/942 944/944
f 942/942 943/943 945/945
f 943/943 944/944 945/945
f 944/944 942/942 945/945
f 946/946 940/940 939/939
f 946/946 941/941 940/940
f 946/946 939/939 941/941
g claw1__gun
usemtl mat_gun
f 947/947 948/948 951/951
f 947/947 951/951 950/950
f 948/948 949/949 952/952
f 948/948 952/952 951/951
f 949/949 947/947 950/950
f 949/949 950/950 952/952
f 950/950 951/951 953/953
f 951/951 952/952 953/953
f 952/952 950/950 953/953
f 954/954 948/948 947/947
f 954/954 949/949 948/948
f 954/954 947/947 949/949
g claw2__gun
usemtl mat_gun
f 955/955 956/956 959/959
f 955/955 959/959 958/958
f 956/956 957/957 960/960
f 956/956 960/960 959/959
f 957/957 955/955 958/958
f 957/957 958/958 960/960
f 958/958 959/959 961/961
f 959/959 960/960 961/961
f 960/960 958/958 961/961
f 962/962 956/956 955/955
f 962/962 957/957 956/956
f 962/962 955/955 957/957
