# N64-ready low-poly drone enemy
# Optimized ~180 tris | Y-up | Forward -Z | Centered origin
# Materials: Body (dark metal), Accent (red enemy), Prop (black), Eye (glow red)
# Perfect for Godot, Unity, or N64-style retro engines. Scale as needed.
mtllib n64_drone_enemy.mtl

v -0.32500 -0.11000 -0.45000
v 0.32500 -0.11000 -0.45000
v 0.32500 0.11000 -0.45000
v -0.32500 0.11000 -0.45000
v -0.32500 -0.11000 0.45000
v 0.32500 -0.11000 0.45000
v 0.32500 0.11000 0.45000
v -0.32500 0.11000 0.45000
v -0.20000 0.09000 -0.30000
v 0.20000 0.09000 -0.30000
v 0.20000 0.21000 -0.30000
v -0.20000 0.21000 -0.30000
v -0.20000 0.09000 0.20000
v 0.20000 0.09000 0.20000
v 0.20000 0.21000 0.20000
v -0.20000 0.21000 0.20000
v -0.14000 -0.06000 -0.57500
v 0.14000 -0.06000 -0.57500
v 0.14000 0.10000 -0.57500
v -0.14000 0.10000 -0.57500
v -0.14000 -0.06000 -0.42500
v 0.14000 -0.06000 -0.42500
v 0.14000 0.10000 -0.42500
v -0.14000 0.10000 -0.42500
v -0.07000 -0.03000 -0.61000
v 0.07000 -0.03000 -0.61000
v 0.07000 0.07000 -0.61000
v -0.07000 0.07000 -0.61000
v -0.07000 -0.03000 -0.55000
v 0.07000 -0.03000 -0.55000
v 0.07000 0.07000 -0.55000
v -0.07000 0.07000 -0.55000
v -0.43000 -0.07000 -0.10000
v -0.33000 -0.07000 -0.10000
v -0.33000 0.03000 -0.10000
v -0.43000 0.03000 -0.10000
v -0.43000 -0.07000 0.20000
v -0.33000 -0.07000 0.20000
v -0.33000 0.03000 0.20000
v -0.43000 0.03000 0.20000
v 0.33000 -0.07000 -0.10000
v 0.43000 -0.07000 -0.10000
v 0.43000 0.03000 -0.10000
v 0.33000 0.03000 -0.10000
v 0.33000 -0.07000 0.20000
v 0.43000 -0.07000 0.20000
v 0.43000 0.03000 0.20000
v 0.33000 0.03000 0.20000
v 0.06514 -0.03000 0.11937
v 0.12916 -0.03000 0.04255
v 0.12916 0.03000 0.04255
v 0.06514 0.03000 0.11937
v 0.41084 -0.03000 0.40745
v 0.47486 -0.03000 0.33063
v 0.47486 0.03000 0.33063
v 0.41084 0.03000 0.40745
v 0.52000 -0.01000 0.42000
v 0.68000 -0.01000 0.42000
v 0.68000 0.07000 0.42000
v 0.52000 0.07000 0.42000
v 0.52000 -0.01000 0.58000
v 0.68000 -0.01000 0.58000
v 0.68000 0.07000 0.58000
v 0.52000 0.07000 0.58000
v 0.35000 0.07750 0.46500
v 0.85000 0.07750 0.46500
v 0.85000 0.10250 0.46500
v 0.35000 0.10250 0.46500
v 0.35000 0.07750 0.53500
v 0.85000 0.07750 0.53500
v 0.85000 0.10250 0.53500
v 0.35000 0.10250 0.53500
v 0.56500 0.07750 0.25000
v 0.63500 0.07750 0.25000
v 0.63500 0.10250 0.25000
v 0.56500 0.10250 0.25000
v 0.56500 0.07750 0.75000
v 0.63500 0.07750 0.75000
v 0.63500 0.10250 0.75000
v 0.56500 0.10250 0.75000
v -0.12916 -0.03000 0.04255
v -0.06514 -0.03000 0.11937
v -0.06514 0.03000 0.11937
v -0.12916 0.03000 0.04255
v -0.47486 -0.03000 0.33063
v -0.41084 -0.03000 0.40745
v -0.41084 0.03000 0.40745
v -0.47486 0.03000 0.33063
v -0.68000 -0.01000 0.42000
v -0.52000 -0.01000 0.42000
v -0.52000 0.07000 0.42000
v -0.68000 0.07000 0.42000
v -0.68000 -0.01000 0.58000
v -0.52000 -0.01000 0.58000
v -0.52000 0.07000 0.58000
v -0.68000 0.07000 0.58000
v -0.85000 0.07750 0.46500
v -0.35000 0.07750 0.46500
v -0.35000 0.10250 0.46500
v -0.85000 0.10250 0.46500
v -0.85000 0.07750 0.53500
v -0.35000 0.07750 0.53500
v -0.35000 0.10250 0.53500
v -0.85000 0.10250 0.53500
v -0.63500 0.07750 0.25000
v -0.56500 0.07750 0.25000
v -0.56500 0.10250 0.25000
v -0.63500 0.10250 0.25000
v -0.63500 0.07750 0.75000
v -0.56500 0.07750 0.75000
v -0.56500 0.10250 0.75000
v -0.63500 0.10250 0.75000
v 0.12916 -0.03000 -0.04255
v 0.06514 -0.03000 -0.11937
v 0.06514 0.03000 -0.11937
v 0.12916 0.03000 -0.04255
v 0.47486 -0.03000 -0.33063
v 0.41084 -0.03000 -0.40745
v 0.41084 0.03000 -0.40745
v 0.47486 0.03000 -0.33063
v 0.52000 -0.01000 -0.58000
v 0.68000 -0.01000 -0.58000
v 0.68000 0.07000 -0.58000
v 0.52000 0.07000 -0.58000
v 0.52000 -0.01000 -0.42000
v 0.68000 -0.01000 -0.42000
v 0.68000 0.07000 -0.42000
v 0.52000 0.07000 -0.42000
v 0.35000 0.07750 -0.53500
v 0.85000 0.07750 -0.53500
v 0.85000 0.10250 -0.53500
v 0.35000 0.10250 -0.53500
v 0.35000 0.07750 -0.46500
v 0.85000 0.07750 -0.46500
v 0.85000 0.10250 -0.46500
v 0.35000 0.10250 -0.46500
v 0.56500 0.07750 -0.75000
v 0.63500 0.07750 -0.75000
v 0.63500 0.10250 -0.75000
v 0.56500 0.10250 -0.75000
v 0.56500 0.07750 -0.25000
v 0.63500 0.07750 -0.25000
v 0.63500 0.10250 -0.25000
v 0.56500 0.10250 -0.25000
v -0.06514 -0.03000 -0.11937
v -0.12916 -0.03000 -0.04255
v -0.12916 0.03000 -0.04255
v -0.06514 0.03000 -0.11937
v -0.41084 -0.03000 -0.40745
v -0.47486 -0.03000 -0.33063
v -0.47486 0.03000 -0.33063
v -0.41084 0.03000 -0.40745
v -0.68000 -0.01000 -0.58000
v -0.52000 -0.01000 -0.58000
v -0.52000 0.07000 -0.58000
v -0.68000 0.07000 -0.58000
v -0.68000 -0.01000 -0.42000
v -0.52000 -0.01000 -0.42000
v -0.52000 0.07000 -0.42000
v -0.68000 0.07000 -0.42000
v -0.85000 0.07750 -0.53500
v -0.35000 0.07750 -0.53500
v -0.35000 0.10250 -0.53500
v -0.85000 0.10250 -0.53500
v -0.85000 0.07750 -0.46500
v -0.35000 0.07750 -0.46500
v -0.35000 0.10250 -0.46500
v -0.85000 0.10250 -0.46500
v -0.63500 0.07750 -0.75000
v -0.56500 0.07750 -0.75000
v -0.56500 0.10250 -0.75000
v -0.63500 0.10250 -0.75000
v -0.63500 0.07750 -0.25000
v -0.56500 0.07750 -0.25000
v -0.56500 0.10250 -0.25000
v -0.63500 0.10250 -0.25000
v -0.25000 -0.20000 -0.30000
v -0.19000 -0.20000 -0.30000
v -0.19000 -0.16000 -0.30000
v -0.25000 -0.16000 -0.30000
v -0.25000 -0.20000 0.30000
v -0.19000 -0.20000 0.30000
v -0.19000 -0.16000 0.30000
v -0.25000 -0.16000 0.30000
v 0.19000 -0.20000 -0.30000
v 0.25000 -0.20000 -0.30000
v 0.25000 -0.16000 -0.30000
v 0.19000 -0.16000 -0.30000
v 0.19000 -0.20000 0.30000
v 0.25000 -0.20000 0.30000
v 0.25000 -0.16000 0.30000
v 0.19000 -0.16000 0.30000

usemtl Body
f 1 2 3
f 1 3 4
f 6 5 8
f 6 8 7
f 1 5 6
f 1 6 2
f 4 3 7
f 4 7 8
f 1 4 8
f 1 8 5
f 2 6 7
f 2 7 3
f 9 10 11
f 9 11 12
f 14 13 16
f 14 16 15
f 9 13 14
f 9 14 10
f 12 11 15
f 12 15 16
f 9 12 16
f 9 16 13
f 10 14 15
f 10 15 11
usemtl Accent
f 17 18 19
f 17 19 20
f 22 21 24
f 22 24 23
f 17 21 22
f 17 22 18
f 20 19 23
f 20 23 24
f 17 20 24
f 17 24 21
f 18 22 23
f 18 23 19
usemtl Eye
f 25 26 27
f 25 27 28
f 30 29 32
f 30 32 31
f 25 29 30
f 25 30 26
f 28 27 31
f 28 31 32
f 25 28 32
f 25 32 29
f 26 30 31
f 26 31 27
usemtl Accent
f 33 34 35
f 33 35 36
f 38 37 40
f 38 40 39
f 33 37 38
f 33 38 34
f 36 35 39
f 36 39 40
f 33 36 40
f 33 40 37
f 34 38 39
f 34 39 35
f 41 42 43
f 41 43 44
f 46 45 48
f 46 48 47
f 41 45 46
f 41 46 42
f 44 43 47
f 44 47 48
f 41 44 48
f 41 48 45
f 42 46 47
f 42 47 43
usemtl Body
f 49 50 51
f 49 51 52
f 54 53 56
f 54 56 55
f 49 53 54
f 49 54 50
f 52 51 55
f 52 55 56
f 49 52 56
f 49 56 53
f 50 54 55
f 50 55 51
f 57 58 59
f 57 59 60
f 62 61 64
f 62 64 63
f 57 61 62
f 57 62 58
f 60 59 63
f 60 63 64
f 57 60 64
f 57 64 61
f 58 62 63
f 58 63 59
usemtl Prop
f 65 66 67
f 65 67 68
f 70 69 72
f 70 72 71
f 65 69 70
f 65 70 66
f 68 67 71
f 68 71 72
f 65 68 72
f 65 72 69
f 66 70 71
f 66 71 67
f 73 74 75
f 73 75 76
f 78 77 80
f 78 80 79
f 73 77 78
f 73 78 74
f 76 75 79
f 76 79 80
f 73 76 80
f 73 80 77
f 74 78 79
f 74 79 75
usemtl Body
f 81 82 83
f 81 83 84
f 86 85 88
f 86 88 87
f 81 85 86
f 81 86 82
f 84 83 87
f 84 87 88
f 81 84 88
f 81 88 85
f 82 86 87
f 82 87 83
f 89 90 91
f 89 91 92
f 94 93 96
f 94 96 95
f 89 93 94
f 89 94 90
f 92 91 95
f 92 95 96
f 89 92 96
f 89 96 93
f 90 94 95
f 90 95 91
usemtl Prop
f 97 98 99
f 97 99 100
f 102 101 104
f 102 104 103
f 97 101 102
f 97 102 98
f 100 99 103
f 100 103 104
f 97 100 104
f 97 104 101
f 98 102 103
f 98 103 99
f 105 106 107
f 105 107 108
f 110 109 112
f 110 112 111
f 105 109 110
f 105 110 106
f 108 107 111
f 108 111 112
f 105 108 112
f 105 112 109
f 106 110 111
f 106 111 107
usemtl Body
f 113 114 115
f 113 115 116
f 118 117 120
f 118 120 119
f 113 117 118
f 113 118 114
f 116 115 119
f 116 119 120
f 113 116 120
f 113 120 117
f 114 118 119
f 114 119 115
f 121 122 123
f 121 123 124
f 126 125 128
f 126 128 127
f 121 125 126
f 121 126 122
f 124 123 127
f 124 127 128
f 121 124 128
f 121 128 125
f 122 126 127
f 122 127 123
usemtl Prop
f 129 130 131
f 129 131 132
f 134 133 136
f 134 136 135
f 129 133 134
f 129 134 130
f 132 131 135
f 132 135 136
f 129 132 136
f 129 136 133
f 130 134 135
f 130 135 131
f 137 138 139
f 137 139 140
f 142 141 144
f 142 144 143
f 137 141 142
f 137 142 138
f 140 139 143
f 140 143 144
f 137 140 144
f 137 144 141
f 138 142 143
f 138 143 139
usemtl Body
f 145 146 147
f 145 147 148
f 150 149 152
f 150 152 151
f 145 149 150
f 145 150 146
f 148 147 151
f 148 151 152
f 145 148 152
f 145 152 149
f 146 150 151
f 146 151 147
f 153 154 155
f 153 155 156
f 158 157 160
f 158 160 159
f 153 157 158
f 153 158 154
f 156 155 159
f 156 159 160
f 153 156 160
f 153 160 157
f 154 158 159
f 154 159 155
usemtl Prop
f 161 162 163
f 161 163 164
f 166 165 168
f 166 168 167
f 161 165 166
f 161 166 162
f 164 163 167
f 164 167 168
f 161 164 168
f 161 168 165
f 162 166 167
f 162 167 163
f 169 170 171
f 169 171 172
f 174 173 176
f 174 176 175
f 169 173 174
f 169 174 170
f 172 171 175
f 172 175 176
f 169 172 176
f 169 176 173
f 170 174 175
f 170 175 171
usemtl Body
f 177 178 179
f 177 179 180
f 182 181 184
f 182 184 183
f 177 181 182
f 177 182 178
f 180 179 183
f 180 183 184
f 177 180 184
f 177 184 181
f 178 182 183
f 178 183 179
f 185 186 187
f 185 187 188
f 190 189 192
f 190 192 191
f 185 189 190
f 185 190 186
f 188 187 191
f 188 191 192
f 185 188 192
f 185 192 189
f 186 190 191
f 186 191 187
