# Dr. Patrick Horner - N64 budget character model
# 277 verts / 396 tris
mtllib patrick_horner.mtl
o patrick_horner
v 6.600 166.000 1.000 0.4863 0.3843 0.3216
v 4.667 166.000 6.091 0.4863 0.3843 0.3216
v 0.000 166.000 8.200 0.4863 0.3843 0.3216
v -4.667 166.000 6.091 0.4863 0.3843 0.3216
v -6.600 166.000 1.000 0.4863 0.3843 0.3216
v -4.667 166.000 -4.091 0.0941 0.0863 0.1098
v -0.000 166.000 -6.200 0.0941 0.0863 0.1098
v 4.667 166.000 -4.091 0.0941 0.0863 0.1098
v 8.300 173.000 0.600 0.0941 0.0863 0.1098
v 5.869 173.000 7.035 0.7686 0.6118 0.5020
v 0.000 173.000 9.700 0.7686 0.6118 0.5020
v -5.869 173.000 7.035 0.7686 0.6118 0.5020
v -8.300 173.000 0.600 0.0941 0.0863 0.1098
v -5.869 173.000 -5.835 0.0941 0.0863 0.1098
v -0.000 173.000 -8.500 0.0941 0.0863 0.1098
v 5.869 173.000 -5.835 0.0941 0.0863 0.1098
v 8.700 179.000 0.000 0.0941 0.0863 0.1098
v 6.152 179.000 6.647 0.7686 0.6118 0.5020
v 0.000 179.000 9.400 0.7686 0.6118 0.5020
v -6.152 179.000 6.647 0.7686 0.6118 0.5020
v -8.700 179.000 0.000 0.0941 0.0863 0.1098
v -6.152 179.000 -6.647 0.0941 0.0863 0.1098
v -0.000 179.000 -9.400 0.0941 0.0863 0.1098
v 6.152 179.000 -6.647 0.0941 0.0863 0.1098
v 7.600 185.500 -0.500 0.0941 0.0863 0.1098
v 5.374 185.500 5.440 0.1725 0.1647 0.2039
v 0.000 185.500 7.900 0.1725 0.1647 0.2039
v -5.374 185.500 5.440 0.1725 0.1647 0.2039
v -7.600 185.500 -0.500 0.0941 0.0863 0.1098
v -5.374 185.500 -6.440 0.0941 0.0863 0.1098
v -0.000 185.500 -8.900 0.0941 0.0863 0.1098
v 5.374 185.500 -6.440 0.0941 0.0863 0.1098
v 0.000 190.500 -0.600 0.1725 0.1647 0.2039
v 0.000 174.200 10.700 0.7686 0.6118 0.5020
v -6.400 183.200 6.600 0.0941 0.0863 0.1098
v -4.200 183.200 6.400 0.0941 0.0863 0.1098
v -5.300 178.800 8.600 0.0941 0.0863 0.1098
v 0.400 183.200 6.600 0.0941 0.0863 0.1098
v 2.600 183.200 6.400 0.0941 0.0863 0.1098
v 1.500 177.800 8.600 0.0941 0.0863 0.1098
v 6.400 161.500 0.600 0.0941 0.0863 0.1098
v 4.525 161.500 5.408 0.5961 0.4549 0.3608
v 0.000 161.500 7.400 0.5961 0.4549 0.3608
v -4.525 161.500 5.408 0.5961 0.4549 0.3608
v -6.400 161.500 0.600 0.0941 0.0863 0.1098
v -4.525 161.500 -4.208 0.0941 0.0863 0.1098
v -0.000 161.500 -6.200 0.0941 0.0863 0.1098
v 4.525 161.500 -4.208 0.0941 0.0863 0.1098
v -8.400 178.500 4.600 0.5020 0.6588 0.6902
v -8.400 181.300 4.232 0.5020 0.6588 0.6902
v -3.200 179.900 9.600 0.5020 0.6588 0.6902
v -3.200 182.700 8.832 0.5020 0.6588 0.6902
v 3.200 181.300 9.600 0.5020 0.6588 0.6902
v 3.200 184.100 8.832 0.5020 0.6588 0.6902
v 8.400 182.700 4.600 0.5020 0.6588 0.6902
v 8.400 185.500 4.232 0.5020 0.6588 0.6902
v 5.200 165.000 0.400 0.7686 0.6118 0.5020
v 2.600 165.000 5.077 0.7686 0.6118 0.5020
v -2.600 165.000 5.077 0.7686 0.6118 0.5020
v -5.200 165.000 0.400 0.7686 0.6118 0.5020
v -2.600 165.000 -4.277 0.7686 0.6118 0.5020
v 2.600 165.000 -4.277 0.7686 0.6118 0.5020
v 6.100 155.000 0.000 0.5961 0.4549 0.3608
v 3.050 155.000 5.283 0.5961 0.4549 0.3608
v -3.050 155.000 5.283 0.5961 0.4549 0.3608
v -6.100 155.000 0.000 0.5961 0.4549 0.3608
v -3.050 155.000 -5.283 0.5961 0.4549 0.3608
v 3.050 155.000 -5.283 0.5961 0.4549 0.3608
v 23.000 155.000 0.000 0.7373 0.7451 0.6980
v 16.263 155.000 7.778 0.7373 0.7451 0.6980
v 0.000 155.000 11.000 0.7373 0.7451 0.6980
v -16.263 155.000 7.778 0.7373 0.7451 0.6980
v -23.000 155.000 0.000 0.7373 0.7451 0.6980
v -16.263 155.000 -7.778 0.5725 0.5804 0.5412
v -0.000 155.000 -11.000 0.5725 0.5804 0.5412
v 16.263 155.000 -7.778 0.5725 0.5804 0.5412
v 20.200 140.000 0.000 0.7373 0.7451 0.6980
v 14.284 140.000 8.910 0.7373 0.7451 0.6980
v 0.000 140.000 12.600 0.7373 0.7451 0.6980
v -14.284 140.000 8.910 0.7373 0.7451 0.6980
v -20.200 140.000 0.000 0.7373 0.7451 0.6980
v -14.284 140.000 -8.910 0.5725 0.5804 0.5412
v -0.000 140.000 -12.600 0.5725 0.5804 0.5412
v 14.284 140.000 -8.910 0.5725 0.5804 0.5412
v 16.600 115.000 0.000 0.7373 0.7451 0.6980
v 11.738 115.000 7.495 0.7373 0.7451 0.6980
v 0.000 115.000 10.600 0.7373 0.7451 0.6980
v -11.738 115.000 7.495 0.7373 0.7451 0.6980
v -16.600 115.000 0.000 0.7373 0.7451 0.6980
v -11.738 115.000 -7.495 0.5725 0.5804 0.5412
v -0.000 115.000 -10.600 0.5725 0.5804 0.5412
v 11.738 115.000 -7.495 0.5725 0.5804 0.5412
v 18.000 96.000 0.000 0.7373 0.7451 0.6980
v 12.728 96.000 7.778 0.7373 0.7451 0.6980
v 0.000 96.000 11.000 0.7373 0.7451 0.6980
v -12.728 96.000 7.778 0.7373 0.7451 0.6980
v -18.000 96.000 0.000 0.7373 0.7451 0.6980
v -12.728 96.000 -7.778 0.5725 0.5804 0.5412
v -0.000 96.000 -11.000 0.5725 0.5804 0.5412
v 12.728 96.000 -7.778 0.5725 0.5804 0.5412
v 9.600 161.000 0.000 0.7373 0.7451 0.6980
v 6.788 161.000 6.081 0.7373 0.7451 0.6980
v 0.000 161.000 8.600 0.7373 0.7451 0.6980
v -6.788 161.000 6.081 0.7373 0.7451 0.6980
v -9.600 161.000 0.000 0.7373 0.7451 0.6980
v -6.788 161.000 -6.081 0.7373 0.7451 0.6980
v -0.000 161.000 -8.600 0.7373 0.7451 0.6980
v 6.788 161.000 -6.081 0.7373 0.7451 0.6980
v 0.000 162.500 0.000 0.5725 0.5804 0.5412
v -5.600 157.500 12.000 0.1882 0.2275 0.2745
v 5.600 157.500 12.000 0.1882 0.2275 0.2745
v 0.000 126.000 12.280 0.1882 0.2275 0.2745
v -9.000 133.000 10.800 0.5020 0.4549 0.3373
v -2.000 131.500 12.499 0.5020 0.4549 0.3373
v -3.400 122.000 11.367 0.5020 0.4549 0.3373
v -10.000 125.300 9.906 0.5020 0.4549 0.3373
v 6.500 121.000 10.471 0.5020 0.4549 0.3373
v 11.500 119.500 9.032 0.5020 0.4549 0.3373
v 10.500 114.000 12.000 0.5020 0.4549 0.3373
v 5.500 116.100 10.334 0.5020 0.4549 0.3373
v 17.600 115.000 0.000 0.7373 0.7451 0.6980
v 12.445 115.000 8.202 0.7373 0.7451 0.6980
v 0.000 115.000 11.600 0.7373 0.7451 0.6980
v -12.445 115.000 8.202 0.7373 0.7451 0.6980
v -17.600 115.000 0.000 0.7373 0.7451 0.6980
v -12.445 115.000 -8.202 0.5725 0.5804 0.5412
v -0.000 115.000 -11.600 0.5725 0.5804 0.5412
v 12.445 115.000 -8.202 0.5725 0.5804 0.5412
v 21.000 78.000 0.000 0.5020 0.4549 0.3373
v 14.849 78.000 9.899 0.5020 0.4549 0.3373
v 0.000 78.000 14.000 0.5020 0.4549 0.3373
v -14.849 78.000 9.899 0.5020 0.4549 0.3373
v -21.000 78.000 0.000 0.5020 0.4549 0.3373
v -14.849 78.000 -9.899 0.5725 0.5804 0.5412
v -0.000 78.000 -14.000 0.5725 0.5804 0.5412
v 14.849 78.000 -9.899 0.5725 0.5804 0.5412
v 0.000 77.500 0.000 0.5725 0.5804 0.5412
v 29.200 153.000 0.000 0.7373 0.7451 0.6980
v 25.400 153.000 6.582 0.7373 0.7451 0.6980
v 17.800 153.000 6.582 0.7373 0.7451 0.6980
v 14.000 153.000 0.000 0.7373 0.7451 0.6980
v 17.800 153.000 -6.582 0.7373 0.7451 0.6980
v 25.400 153.000 -6.582 0.7373 0.7451 0.6980
v 29.400 118.000 0.000 0.7373 0.7451 0.6980
v 26.400 118.000 5.196 0.7373 0.7451 0.6980
v 20.400 118.000 5.196 0.7373 0.7451 0.6980
v 17.400 118.000 0.000 0.7373 0.7451 0.6980
v 20.400 118.000 -5.196 0.7373 0.7451 0.6980
v 26.400 118.000 -5.196 0.7373 0.7451 0.6980
v 29.500 92.000 0.000 0.5725 0.5804 0.5412
v 27.050 92.000 4.244 0.5725 0.5804 0.5412
v 22.150 92.000 4.244 0.5725 0.5804 0.5412
v 19.700 92.000 0.000 0.5725 0.5804 0.5412
v 22.150 92.000 -4.244 0.5725 0.5804 0.5412
v 27.050 92.000 -4.244 0.5725 0.5804 0.5412
v 29.200 88.000 0.000 0.5020 0.1725 0.1725
v 27.000 88.000 3.811 0.5020 0.1725 0.1725
v 22.600 88.000 3.811 0.5020 0.1725 0.1725
v 20.400 88.000 0.000 0.5020 0.1725 0.1725
v 22.600 88.000 -3.811 0.5020 0.1725 0.1725
v 27.000 88.000 -3.811 0.5020 0.1725 0.1725
v 29.700 118.000 0.000 0.7373 0.7451 0.6980
v 17.100 118.000 0.000 0.7373 0.7451 0.6980
v 23.400 118.000 6.300 0.7373 0.7451 0.6980
v 23.400 118.000 -6.300 0.7373 0.7451 0.6980
v 23.400 124.300 0.000 0.7373 0.7451 0.6980
v 23.400 111.700 0.000 0.7373 0.7451 0.6980
v 20.400 72.000 -4.200 0.7686 0.6118 0.5020
v 20.400 72.000 4.200 0.7686 0.6118 0.5020
v 20.400 88.000 -4.200 0.7686 0.6118 0.5020
v 20.400 88.000 4.200 0.7686 0.6118 0.5020
v 29.200 72.000 -4.200 0.7686 0.6118 0.5020
v 29.200 72.000 4.200 0.7686 0.6118 0.5020
v 29.200 88.000 -4.200 0.7686 0.6118 0.5020
v 29.200 88.000 4.200 0.7686 0.6118 0.5020
v 20.000 92.000 0.000 0.2039 0.1961 0.2275
v 15.200 92.000 8.314 0.2039 0.1961 0.2275
v 5.600 92.000 8.314 0.2039 0.1961 0.2275
v 0.800 92.000 0.000 0.2039 0.1961 0.2275
v 5.600 92.000 -8.314 0.2039 0.1961 0.2275
v 15.200 92.000 -8.314 0.2039 0.1961 0.2275
v 17.100 52.000 0.000 0.2039 0.1961 0.2275
v 13.550 52.000 6.409 0.2039 0.1961 0.2275
v 6.450 52.000 6.409 0.2039 0.1961 0.2275
v 2.900 52.000 0.000 0.2039 0.1961 0.2275
v 6.450 52.000 -6.409 0.2039 0.1961 0.2275
v 13.550 52.000 -6.409 0.2039 0.1961 0.2275
v 14.800 10.000 0.000 0.2039 0.1961 0.2275
v 12.300 10.000 4.677 0.2039 0.1961 0.2275
v 7.300 10.000 4.677 0.2039 0.1961 0.2275
v 4.800 10.000 0.000 0.2039 0.1961 0.2275
v 7.300 10.000 -4.677 0.2039 0.1961 0.2275
v 12.300 10.000 -4.677 0.2039 0.1961 0.2275
v 17.300 52.000 0.000 0.2039 0.1961 0.2275
v 2.700 52.000 0.000 0.2039 0.1961 0.2275
v 10.000 52.000 7.300 0.2039 0.1961 0.2275
v 10.000 52.000 -7.300 0.2039 0.1961 0.2275
v 10.000 59.300 0.000 0.2039 0.1961 0.2275
v 10.000 44.700 0.000 0.2039 0.1961 0.2275
v 4.200 0.000 -8.000 0.1176 0.1098 0.1176
v 4.200 0.000 19.000 0.1176 0.1098 0.1176
v 4.200 8.400 -8.000 0.1176 0.1098 0.1176
v 4.200 8.400 19.000 0.1176 0.1098 0.1176
v 15.400 0.000 -8.000 0.1176 0.1098 0.1176
v 15.400 0.000 19.000 0.1176 0.1098 0.1176
v 15.400 8.400 -8.000 0.1176 0.1098 0.1176
v 15.400 8.400 19.000 0.1176 0.1098 0.1176
v -14.000 153.000 0.000 0.7373 0.7451 0.6980
v -17.800 153.000 6.582 0.7373 0.7451 0.6980
v -25.400 153.000 6.582 0.7373 0.7451 0.6980
v -29.200 153.000 0.000 0.7373 0.7451 0.6980
v -25.400 153.000 -6.582 0.7373 0.7451 0.6980
v -17.800 153.000 -6.582 0.7373 0.7451 0.6980
v -17.400 118.000 0.000 0.7373 0.7451 0.6980
v -20.400 118.000 5.196 0.7373 0.7451 0.6980
v -26.400 118.000 5.196 0.7373 0.7451 0.6980
v -29.400 118.000 0.000 0.7373 0.7451 0.6980
v -26.400 118.000 -5.196 0.7373 0.7451 0.6980
v -20.400 118.000 -5.196 0.7373 0.7451 0.6980
v -19.700 92.000 0.000 0.5725 0.5804 0.5412
v -22.150 92.000 4.244 0.5725 0.5804 0.5412
v -27.050 92.000 4.244 0.5725 0.5804 0.5412
v -29.500 92.000 0.000 0.5725 0.5804 0.5412
v -27.050 92.000 -4.244 0.5725 0.5804 0.5412
v -22.150 92.000 -4.244 0.5725 0.5804 0.5412
v -20.400 88.000 0.000 0.5725 0.5804 0.5412
v -22.600 88.000 3.811 0.5725 0.5804 0.5412
v -27.000 88.000 3.811 0.5725 0.5804 0.5412
v -29.200 88.000 0.000 0.5725 0.5804 0.5412
v -27.000 88.000 -3.811 0.5725 0.5804 0.5412
v -22.600 88.000 -3.811 0.5725 0.5804 0.5412
v -17.100 118.000 0.000 0.7373 0.7451 0.6980
v -29.700 118.000 0.000 0.7373 0.7451 0.6980
v -23.400 118.000 6.300 0.7373 0.7451 0.6980
v -23.400 118.000 -6.300 0.7373 0.7451 0.6980
v -23.400 124.300 0.000 0.7373 0.7451 0.6980
v -23.400 111.700 0.000 0.7373 0.7451 0.6980
v -29.200 72.000 -4.200 0.7686 0.6118 0.5020
v -29.200 72.000 4.200 0.7686 0.6118 0.5020
v -29.200 88.000 -4.200 0.7686 0.6118 0.5020
v -29.200 88.000 4.200 0.7686 0.6118 0.5020
v -20.400 72.000 -4.200 0.7686 0.6118 0.5020
v -20.400 72.000 4.200 0.7686 0.6118 0.5020
v -20.400 88.000 -4.200 0.7686 0.6118 0.5020
v -20.400 88.000 4.200 0.7686 0.6118 0.5020
v -0.800 92.000 0.000 0.2039 0.1961 0.2275
v -5.600 92.000 8.314 0.2039 0.1961 0.2275
v -15.200 92.000 8.314 0.2039 0.1961 0.2275
v -20.000 92.000 0.000 0.2039 0.1961 0.2275
v -15.200 92.000 -8.314 0.2039 0.1961 0.2275
v -5.600 92.000 -8.314 0.2039 0.1961 0.2275
v -2.900 52.000 0.000 0.2039 0.1961 0.2275
v -6.450 52.000 6.409 0.2039 0.1961 0.2275
v -13.550 52.000 6.409 0.2039 0.1961 0.2275
v -17.100 52.000 0.000 0.2039 0.1961 0.2275
v -13.550 52.000 -6.409 0.2039 0.1961 0.2275
v -6.450 52.000 -6.409 0.2039 0.1961 0.2275
v -4.800 10.000 0.000 0.2039 0.1961 0.2275
v -7.300 10.000 4.677 0.2039 0.1961 0.2275
v -12.300 10.000 4.677 0.2039 0.1961 0.2275
v -14.800 10.000 0.000 0.2039 0.1961 0.2275
v -12.300 10.000 -4.677 0.2039 0.1961 0.2275
v -7.300 10.000 -4.677 0.2039 0.1961 0.2275
v -2.700 52.000 0.000 0.2039 0.1961 0.2275
v -17.300 52.000 0.000 0.2039 0.1961 0.2275
v -10.000 52.000 7.300 0.2039 0.1961 0.2275
v -10.000 52.000 -7.300 0.2039 0.1961 0.2275
v -10.000 59.300 0.000 0.2039 0.1961 0.2275
v -10.000 44.700 0.000 0.2039 0.1961 0.2275
v -15.400 0.000 -8.000 0.1176 0.1098 0.1176
v -15.400 0.000 19.000 0.1176 0.1098 0.1176
v -15.400 8.400 -8.000 0.1176 0.1098 0.1176
v -15.400 8.400 19.000 0.1176 0.1098 0.1176
v -4.200 0.000 -8.000 0.1176 0.1098 0.1176
v -4.200 0.000 19.000 0.1176 0.1098 0.1176
v -4.200 8.400 -8.000 0.1176 0.1098 0.1176
v -4.200 8.400 19.000 0.1176 0.1098 0.1176
vt 1.03226 0.03571
vt 0.87636 0.03571
vt 0.50000 0.03571
vt 0.12364 0.03571
vt -0.03226 0.03571
vt 0.12364 0.03571
vt 0.50000 0.03571
vt 0.87636 0.03571
vt 1.16935 0.53571
vt 0.97331 0.53571
vt 0.50000 0.53571
vt 0.02669 0.53571
vt -0.16935 0.53571
vt 0.02669 0.53571
vt 0.50000 0.53571
vt 0.97331 0.53571
vt 1.20161 0.96429
vt 0.99612 0.96429
vt 0.50000 0.96429
vt 0.00388 0.96429
vt -0.20161 0.96429
vt 0.00388 0.96429
vt 0.50000 0.96429
vt 0.99612 0.96429
vt 0.00000 1.00000
vt 0.00000 1.00000
vt 0.00000 1.00000
vt 0.00000 1.00000
vt 0.00000 1.00000
vt 0.00000 1.00000
vt 0.00000 1.00000
vt 0.00000 1.00000
vt 0.00000 1.00000
vt 0.50000 0.62143
vt 0.00000 1.00000
vt 0.00000 1.00000
vt 0.00000 1.00000
vt 0.00000 1.00000
vt 0.00000 1.00000
vt 0.00000 1.00000
vt 0.00000 1.00000
vt 0.00000 1.00000
vt 0.00000 1.00000
vt 0.00000 1.00000
vt 0.00000 1.00000
vt 0.00000 1.00000
vt 0.00000 1.00000
vt 0.00000 1.00000
vt 0.00000 1.00000
vt 0.00000 1.00000
vt 0.00000 1.00000
vt 0.00000 1.00000
vt 0.00000 1.00000
vt 0.00000 1.00000
vt 0.00000 1.00000
vt 0.00000 1.00000
vt 0.00000 1.00000
vt 0.00000 1.00000
vt 0.00000 1.00000
vt 0.00000 1.00000
vt 0.00000 1.00000
vt 0.00000 1.00000
vt 0.00000 1.00000
vt 0.00000 1.00000
vt 0.00000 1.00000
vt 0.00000 1.00000
vt 0.00000 1.00000
vt 0.00000 1.00000
vt 0.00000 1.00000
vt 0.00000 1.00000
vt 0.00000 1.00000
vt 0.00000 1.00000
vt 0.00000 1.00000
vt 0.00000 1.00000
vt 0.00000 1.00000
vt 0.00000 1.00000
vt 0.00000 1.00000
vt 0.00000 1.00000
vt 0.00000 1.00000
vt 0.00000 1.00000
vt 0.00000 1.00000
vt 0.00000 1.00000
vt 0.00000 1.00000
vt 0.00000 1.00000
vt 0.00000 1.00000
vt 0.00000 1.00000
vt 0.00000 1.00000
vt 0.00000 1.00000
vt 0.00000 1.00000
vt 0.00000 1.00000
vt 0.00000 1.00000
vt 0.00000 1.00000
vt 0.00000 1.00000
vt 0.00000 1.00000
vt 0.00000 1.00000
vt 0.00000 1.00000
vt 0.00000 1.00000
vt 0.00000 1.00000
vt 0.00000 1.00000
vt 0.00000 1.00000
vt 0.00000 1.00000
vt 0.00000 1.00000
vt 0.00000 1.00000
vt 0.00000 1.00000
vt 0.00000 1.00000
vt 0.00000 1.00000
vt 0.00000 1.00000
vt 0.00000 1.00000
vt 0.00000 1.00000
vt 0.00000 1.00000
vt 0.00000 1.00000
vt 0.00000 1.00000
vt 0.00000 1.00000
vt 0.00000 1.00000
vt 0.00000 1.00000
vt 0.00000 1.00000
vt 0.00000 1.00000
vt 0.00000 1.00000
vt 0.00000 1.00000
vt 0.00000 1.00000
vt 0.00000 1.00000
vt 0.00000 1.00000
vt 0.00000 1.00000
vt 0.00000 1.00000
vt 0.00000 1.00000
vt 0.00000 1.00000
vt 0.00000 1.00000
vt 0.00000 1.00000
vt 0.00000 1.00000
vt 0.00000 1.00000
vt 0.00000 1.00000
vt 0.00000 1.00000
vt 0.00000 1.00000
vt 0.00000 1.00000
vt 0.00000 1.00000
vt 0.00000 1.00000
vt 0.00000 1.00000
vt 0.00000 1.00000
vt 0.00000 1.00000
vt 0.00000 1.00000
vt 0.00000 1.00000
vt 0.00000 1.00000
vt 0.00000 1.00000
vt 0.00000 1.00000
vt 0.00000 1.00000
vt 0.00000 1.00000
vt 0.00000 1.00000
vt 0.00000 1.00000
vt 0.00000 1.00000
vt 0.00000 1.00000
vt 0.00000 1.00000
vt 0.00000 1.00000
vt 0.00000 1.00000
vt 0.00000 1.00000
vt 0.00000 1.00000
vt 0.00000 1.00000
vt 0.00000 1.00000
vt 0.00000 1.00000
vt 0.00000 1.00000
vt 0.00000 1.00000
vt 0.00000 1.00000
vt 0.00000 1.00000
vt 0.00000 1.00000
vt 0.00000 1.00000
vt 0.00000 1.00000
vt 0.00000 1.00000
vt 0.00000 1.00000
vt 0.00000 1.00000
vt 0.00000 1.00000
vt 0.00000 1.00000
vt 0.00000 1.00000
vt 0.00000 1.00000
vt 0.00000 1.00000
vt 0.00000 1.00000
vt 0.00000 1.00000
vt 0.00000 1.00000
vt 0.00000 1.00000
vt 0.00000 1.00000
vt 0.00000 1.00000
vt 0.00000 1.00000
vt 0.00000 1.00000
vt 0.00000 1.00000
vt 0.00000 1.00000
vt 0.00000 1.00000
vt 0.00000 1.00000
vt 0.00000 1.00000
vt 0.00000 1.00000
vt 0.00000 1.00000
vt 0.00000 1.00000
vt 0.00000 1.00000
vt 0.00000 1.00000
vt 0.00000 1.00000
vt 0.00000 1.00000
vt 0.00000 1.00000
vt 0.00000 1.00000
vt 0.00000 1.00000
vt 0.00000 1.00000
vt 0.00000 1.00000
vt 0.00000 1.00000
vt 0.00000 1.00000
vt 0.00000 1.00000
vt 0.00000 1.00000
vt 0.00000 1.00000
vt 0.00000 1.00000
vt 0.00000 1.00000
vt 0.00000 1.00000
vt 0.00000 1.00000
vt 0.00000 1.00000
vt 0.00000 1.00000
vt 0.00000 1.00000
vt 0.00000 1.00000
vt 0.00000 1.00000
vt 0.00000 1.00000
vt 0.00000 1.00000
vt 0.00000 1.00000
vt 0.00000 1.00000
vt 0.00000 1.00000
vt 0.00000 1.00000
vt 0.00000 1.00000
vt 0.00000 1.00000
vt 0.00000 1.00000
vt 0.00000 1.00000
vt 0.00000 1.00000
vt 0.00000 1.00000
vt 0.00000 1.00000
vt 0.00000 1.00000
vt 0.00000 1.00000
vt 0.00000 1.00000
vt 0.00000 1.00000
vt 0.00000 1.00000
vt 0.00000 1.00000
vt 0.00000 1.00000
vt 0.00000 1.00000
vt 0.00000 1.00000
vt 0.00000 1.00000
vt 0.00000 1.00000
vt 0.00000 1.00000
vt 0.00000 1.00000
vt 0.00000 1.00000
vt 0.00000 1.00000
vt 0.00000 1.00000
vt 0.00000 1.00000
vt 0.00000 1.00000
vt 0.00000 1.00000
vt 0.00000 1.00000
vt 0.00000 1.00000
vt 0.00000 1.00000
vt 0.00000 1.00000
vt 0.00000 1.00000
vt 0.00000 1.00000
vt 0.00000 1.00000
vt 0.00000 1.00000
vt 0.00000 1.00000
vt 0.00000 1.00000
vt 0.00000 1.00000
vt 0.00000 1.00000
vt 0.00000 1.00000
vt 0.00000 1.00000
vt 0.00000 1.00000
vt 0.00000 1.00000
vt 0.00000 1.00000
vt 0.00000 1.00000
vt 0.00000 1.00000
vt 0.00000 1.00000
vt 0.00000 1.00000
vt 0.00000 1.00000
vt 0.00000 1.00000
vt 0.00000 1.00000
vt 0.00000 1.00000
vt 0.00000 1.00000
vt 0.00000 1.00000
vt 0.00000 1.00000
vt 0.00000 1.00000
vt 0.00000 1.00000
vt 0.00000 1.00000
vt 0.00000 1.00000
vt 0.00000 1.00000
usemtl face
f 2/2 11/11 3/3
f 2/2 10/10 11/11
f 3/3 12/12 4/4
f 3/3 11/11 12/12
f 10/10 19/19 11/11
f 10/10 18/18 19/19
f 11/11 20/20 12/12
f 11/11 19/19 20/20
f 10/10 34/34 11/11
f 11/11 34/34 12/12
f 19/19 34/34 11/11
usemtl shade
f 1/1 10/10 2/2
f 1/1 9/9 10/10
f 4/4 13/13 5/5
f 4/4 12/12 13/13
f 5/5 14/14 6/6
f 5/5 13/13 14/14
f 6/6 15/15 7/7
f 6/6 14/14 15/15
f 7/7 16/16 8/8
f 7/7 15/15 16/16
f 8/8 9/9 1/1
f 8/8 16/16 9/9
f 9/9 18/18 10/10
f 9/9 17/17 18/18
f 12/12 21/21 13/13
f 12/12 20/20 21/21
f 13/13 22/22 14/14
f 13/13 21/21 22/22
f 14/14 23/23 15/15
f 14/14 22/22 23/23
f 15/15 24/24 16/16
f 15/15 23/23 24/24
f 16/16 17/17 9/9
f 16/16 24/24 17/17
f 17/17 26/26 18/18
f 17/17 25/25 26/26
f 18/18 27/27 19/19
f 18/18 26/26 27/27
f 19/19 28/28 20/20
f 19/19 27/27 28/28
f 20/20 29/29 21/21
f 20/20 28/28 29/29
f 21/21 30/30 22/22
f 21/21 29/29 30/30
f 22/22 31/31 23/23
f 22/22 30/30 31/31
f 23/23 32/32 24/24
f 23/23 31/31 32/32
f 24/24 25/25 17/17
f 24/24 32/32 25/25
f 25/25 33/33 26/26
f 26/26 33/33 27/27
f 27/27 33/33 28/28
f 28/28 33/33 29/29
f 29/29 33/33 30/30
f 30/30 33/33 31/31
f 31/31 33/33 32/32
f 32/32 33/33 25/25
f 35/35 37/37 36/36
f 38/38 40/40 39/39
f 41/41 2/2 42/42
f 41/41 1/1 2/2
f 42/42 3/3 43/43
f 42/42 2/2 3/3
f 43/43 4/4 44/44
f 43/43 3/3 4/4
f 44/44 5/5 45/45
f 44/44 4/4 5/5
f 45/45 6/6 46/46
f 45/45 5/5 6/6
f 46/46 7/7 47/47
f 46/46 6/6 7/7
f 47/47 8/8 48/48
f 47/47 7/7 8/8
f 48/48 1/1 41/41
f 48/48 8/8 1/1
f 49/49 51/51 52/52
f 49/49 52/52 50/50
f 51/51 53/53 54/54
f 51/51 54/54 52/52
f 53/53 55/55 56/56
f 53/53 56/56 54/54
f 57/57 58/58 64/64
f 57/57 64/64 63/63
f 58/58 59/59 65/65
f 58/58 65/65 64/64
f 59/59 60/60 66/66
f 59/59 66/66 65/65
f 60/60 61/61 67/67
f 60/60 67/67 66/66
f 61/61 62/62 68/68
f 61/61 68/68 67/67
f 62/62 57/57 63/63
f 62/62 63/63 68/68
f 69/69 70/70 78/78
f 69/69 78/78 77/77
f 70/70 71/71 79/79
f 70/70 79/79 78/78
f 71/71 72/72 80/80
f 71/71 80/80 79/79
f 72/72 73/73 81/81
f 72/72 81/81 80/80
f 73/73 74/74 82/82
f 73/73 82/82 81/81
f 74/74 75/75 83/83
f 74/74 83/83 82/82
f 75/75 76/76 84/84
f 75/75 84/84 83/83
f 76/76 69/69 77/77
f 76/76 77/77 84/84
f 77/77 78/78 86/86
f 77/77 86/86 85/85
f 78/78 79/79 87/87
f 78/78 87/87 86/86
f 79/79 80/80 88/88
f 79/79 88/88 87/87
f 80/80 81/81 89/89
f 80/80 89/89 88/88
f 81/81 82/82 90/90
f 81/81 90/90 89/89
f 82/82 83/83 91/91
f 82/82 91/91 90/90
f 83/83 84/84 92/92
f 83/83 92/92 91/91
f 84/84 77/77 85/85
f 84/84 85/85 92/92
f 85/85 86/86 94/94
f 85/85 94/94 93/93
f 86/86 87/87 95/95
f 86/86 95/95 94/94
f 87/87 88/88 96/96
f 87/87 96/96 95/95
f 88/88 89/89 97/97
f 88/88 97/97 96/96
f 89/89 90/90 98/98
f 89/89 98/98 97/97
f 90/90 91/91 99/99
f 90/90 99/99 98/98
f 91/91 92/92 100/100
f 91/91 100/100 99/99
f 92/92 85/85 93/93
f 92/92 93/93 100/100
f 69/69 102/102 70/70
f 69/69 101/101 102/102
f 70/70 103/103 71/71
f 70/70 102/102 103/103
f 71/71 104/104 72/72
f 71/71 103/103 104/104
f 72/72 105/105 73/73
f 72/72 104/104 105/105
f 73/73 106/106 74/74
f 73/73 105/105 106/106
f 74/74 107/107 75/75
f 74/74 106/106 107/107
f 75/75 108/108 76/76
f 75/75 107/107 108/108
f 76/76 101/101 69/69
f 76/76 108/108 101/101
f 101/101 109/109 102/102
f 102/102 109/109 103/103
f 103/103 109/109 104/104
f 104/104 109/109 105/105
f 105/105 109/109 106/106
f 106/106 109/109 107/107
f 107/107 109/109 108/108
f 108/108 109/109 101/101
f 110/110 112/112 111/111
f 113/113 115/115 114/114
f 113/113 116/116 115/115
f 117/117 119/119 118/118
f 117/117 120/120 119/119
f 121/121 122/122 130/130
f 121/121 130/130 129/129
f 122/122 123/123 131/131
f 122/122 131/131 130/130
f 123/123 124/124 132/132
f 123/123 132/132 131/131
f 124/124 125/125 133/133
f 124/124 133/133 132/132
f 125/125 126/126 134/134
f 125/125 134/134 133/133
f 126/126 127/127 135/135
f 126/126 135/135 134/134
f 127/127 128/128 136/136
f 127/127 136/136 135/135
f 128/128 121/121 129/129
f 128/128 129/129 136/136
f 129/129 130/130 137/137
f 130/130 131/131 137/137
f 131/131 132/132 137/137
f 132/132 133/133 137/137
f 133/133 134/134 137/137
f 134/134 135/135 137/137
f 135/135 136/136 137/137
f 136/136 129/129 137/137
f 138/138 139/139 145/145
f 138/138 145/145 144/144
f 139/139 140/140 146/146
f 139/139 146/146 145/145
f 140/140 141/141 147/147
f 140/140 147/147 146/146
f 141/141 142/142 148/148
f 141/141 148/148 147/147
f 142/142 143/143 149/149
f 142/142 149/149 148/148
f 143/143 138/138 144/144
f 143/143 144/144 149/149
f 144/144 145/145 151/151
f 144/144 151/151 150/150
f 145/145 146/146 152/152
f 145/145 152/152 151/151
f 146/146 147/147 153/153
f 146/146 153/153 152/152
f 147/147 148/148 154/154
f 147/147 154/154 153/153
f 148/148 149/149 155/155
f 148/148 155/155 154/154
f 149/149 144/144 150/150
f 149/149 150/150 155/155
f 150/150 151/151 157/157
f 150/150 157/157 156/156
f 151/151 152/152 158/158
f 151/151 158/158 157/157
f 152/152 153/153 159/159
f 152/152 159/159 158/158
f 153/153 154/154 160/160
f 153/153 160/160 159/159
f 154/154 155/155 161/161
f 154/154 161/161 160/160
f 155/155 150/150 156/156
f 155/155 156/156 161/161
f 162/162 166/166 164/164
f 164/164 166/166 163/163
f 163/163 166/166 165/165
f 165/165 166/166 162/162
f 162/162 164/164 167/167
f 164/164 163/163 167/167
f 163/163 165/165 167/167
f 165/165 162/162 167/167
f 168/168 169/169 171/171
f 168/168 171/171 170/170
f 172/172 175/175 173/173
f 172/172 174/174 175/175
f 168/168 173/173 169/169
f 168/168 172/172 173/173
f 170/170 171/171 175/175
f 170/170 175/175 174/174
f 168/168 170/170 174/174
f 168/168 174/174 172/172
f 169/169 175/175 171/171
f 169/169 173/173 175/175
f 176/176 177/177 183/183
f 176/176 183/183 182/182
f 177/177 178/178 184/184
f 177/177 184/184 183/183
f 178/178 179/179 185/185
f 178/178 185/185 184/184
f 179/179 180/180 186/186
f 179/179 186/186 185/185
f 180/180 181/181 187/187
f 180/180 187/187 186/186
f 181/181 176/176 182/182
f 181/181 182/182 187/187
f 182/182 183/183 189/189
f 182/182 189/189 188/188
f 183/183 184/184 190/190
f 183/183 190/190 189/189
f 184/184 185/185 191/191
f 184/184 191/191 190/190
f 185/185 186/186 192/192
f 185/185 192/192 191/191
f 186/186 187/187 193/193
f 186/186 193/193 192/192
f 187/187 182/182 188/188
f 187/187 188/188 193/193
f 194/194 198/198 196/196
f 196/196 198/198 195/195
f 195/195 198/198 197/197
f 197/197 198/198 194/194
f 194/194 196/196 199/199
f 196/196 195/195 199/199
f 195/195 197/197 199/199
f 197/197 194/194 199/199
f 200/200 201/201 203/203
f 200/200 203/203 202/202
f 204/204 207/207 205/205
f 204/204 206/206 207/207
f 200/200 205/205 201/201
f 200/200 204/204 205/205
f 202/202 203/203 207/207
f 202/202 207/207 206/206
f 200/200 202/202 206/206
f 200/200 206/206 204/204
f 201/201 207/207 203/203
f 201/201 205/205 207/207
f 208/208 209/209 215/215
f 208/208 215/215 214/214
f 209/209 210/210 216/216
f 209/209 216/216 215/215
f 210/210 211/211 217/217
f 210/210 217/217 216/216
f 211/211 212/212 218/218
f 211/211 218/218 217/217
f 212/212 213/213 219/219
f 212/212 219/219 218/218
f 213/213 208/208 214/214
f 213/213 214/214 219/219
f 214/214 215/215 221/221
f 214/214 221/221 220/220
f 215/215 216/216 222/222
f 215/215 222/222 221/221
f 216/216 217/217 223/223
f 216/216 223/223 222/222
f 217/217 218/218 224/224
f 217/217 224/224 223/223
f 218/218 219/219 225/225
f 218/218 225/225 224/224
f 219/219 214/214 220/220
f 219/219 220/220 225/225
f 220/220 221/221 227/227
f 220/220 227/227 226/226
f 221/221 222/222 228/228
f 221/221 228/228 227/227
f 222/222 223/223 229/229
f 222/222 229/229 228/228
f 223/223 224/224 230/230
f 223/223 230/230 229/229
f 224/224 225/225 231/231
f 224/224 231/231 230/230
f 225/225 220/220 226/226
f 225/225 226/226 231/231
f 232/232 236/236 234/234
f 234/234 236/236 233/233
f 233/233 236/236 235/235
f 235/235 236/236 232/232
f 232/232 234/234 237/237
f 234/234 233/233 237/237
f 233/233 235/235 237/237
f 235/235 232/232 237/237
f 238/238 239/239 241/241
f 238/238 241/241 240/240
f 242/242 245/245 243/243
f 242/242 244/244 245/245
f 238/238 243/243 239/239
f 238/238 242/242 243/243
f 240/240 241/241 245/245
f 240/240 245/245 244/244
f 238/238 240/240 244/244
f 238/238 244/244 242/242
f 239/239 245/245 241/241
f 239/239 243/243 245/245
f 246/246 247/247 253/253
f 246/246 253/253 252/252
f 247/247 248/248 254/254
f 247/247 254/254 253/253
f 248/248 249/249 255/255
f 248/248 255/255 254/254
f 249/249 250/250 256/256
f 249/249 256/256 255/255
f 250/250 251/251 257/257
f 250/250 257/257 256/256
f 251/251 246/246 252/252
f 251/251 252/252 257/257
f 252/252 253/253 259/259
f 252/252 259/259 258/258
f 253/253 254/254 260/260
f 253/253 260/260 259/259
f 254/254 255/255 261/261
f 254/254 261/261 260/260
f 255/255 256/256 262/262
f 255/255 262/262 261/261
f 256/256 257/257 263/263
f 256/256 263/263 262/262
f 257/257 252/252 258/258
f 257/257 258/258 263/263
f 264/264 268/268 266/266
f 266/266 268/268 265/265
f 265/265 268/268 267/267
f 267/267 268/268 264/264
f 264/264 266/266 269/269
f 266/266 265/265 269/269
f 265/265 267/267 269/269
f 267/267 264/264 269/269
f 270/270 271/271 273/273
f 270/270 273/273 272/272
f 274/274 277/277 275/275
f 274/274 276/276 277/277
f 270/270 275/275 271/271
f 270/270 274/274 275/275
f 272/272 273/273 277/277
f 272/272 277/277 276/276
f 270/270 272/272 276/276
f 270/270 276/276 274/274
f 271/271 277/277 273/273
f 271/271 275/275 277/277
