{
  "asset": {
    "version": "2.0",
    "generator": "N64 Florida Keys Palm Generator - Grok",
    "copyright": "Procedural N64-style asset"
  },
  "scene": 0,
  "scenes": [
    {
      "name": "FloridaKeysPalms",
      "nodes": [
        0
      ]
    }
  ],
  "nodes": [
    {
      "name": "N64_Tropical_Plants",
      "mesh": 0
    }
  ],
  "meshes": [
    {
      "name": "PalmTreesAndPlants",
      "primitives": [
        {
          "attributes": {
            "POSITION": 0,
            "COLOR_0": 1
          },
          "indices": 2,
          "mode": 4
        }
      ]
    }
  ],
  "accessors": [
    {
      "bufferView": 0,
      "componentType": 5126,
      "count": 1285,
      "type": "VEC3",
      "max": [
        4.82,
        6.058458190404841,
        4.2826528542452404
      ],
      "min": [
        -4.7399186938124425,
        0.0,
        -4.600949401721784
      ]
    },
    {
      "bufferView": 1,
      "componentType": 5126,
      "count": 1285,
      "type": "VEC4"
    },
    {
      "bufferView": 2,
      "componentType": 5123,
      "count": 2586,
      "type": "SCALAR"
    }
  ],
  "bufferViews": [
    {
      "buffer": 0,
      "byteOffset": 0,
      "byteLength": 15420,
      "target": 34962
    },
    {
      "buffer": 0,
      "byteOffset": 15420,
      "byteLength": 20560,
      "target": 34962
    },
    {
      "buffer": 0,
      "byteOffset": 35980,
      "byteLength": 5172,
      "target": 34963
    }
  ],
  "buffers": [
    {
      "byteLength": 41152,
      "uri": "data:application/octet-stream;base64,"
    }
  ]
}